<?xml version="1.0" encoding="utf-8"?>
<!-- Generator: Adobe Illustrator 23.0.1, SVG Export Plug-In . SVG Version: 6.00 Build 0)  -->
<svg version="1.1" id="Layer_1" xmlns="http://www.w3.org/2000/svg" xmlns:xlink="http://www.w3.org/1999/xlink" x="0px" y="0px"
	 viewBox="0 0 92.7 62.2" style="enable-background:new 0 0 92.7 62.2;" xml:space="preserve">
<style type="text/css">
	.st0{fill:#FFFFFF;}
</style>
<title>v-symbol</title>
<path class="st0" d="M23.9,7.7c-3.4-1.1-7.1-0.3-9.8,2.1c0,0-5.9,4-7,20.6c0,0-0.3,2.8,2.1,3.2c0,0,2.5,0.5,2.8-1.6s0.3-12.6,4.9-18
	c0.4-0.5,1-1,1.7-1.2c1-0.7,1.8-1.7,2.5-2.7C21.8,9,22.8,8.2,23.9,7.7"/>
<path class="st0" d="M32.7,7.3c0,0-4.4-1.4-9,2.2c0,0-5.5,3.4-6.9,16.9c-0.2,1.7-0.3,3.3-0.2,5c0.1,1.2,1.1,2,2.2,2.1
	c0,0,2.5,0.2,2.6-2.1l0.2-3.2c0,0,0.4-9,4-13.5l0.9,0.7C27.7,12,29.9,9.2,32.7,7.3L32.7,7.3z"/>
<path class="st0" d="M41.6,7.3c-3.7-0.7-7.4,0.5-10,3.2c0,0-4.2,3.7-5.4,13c0,0-0.5,5-0.6,7.4c0,1.3,0.9,2.4,2.2,2.6
	c1.3,0.1,2.4-0.9,2.5-2.2c0-0.1,0-0.1,0-0.2c0,0,0.2-11.3,4.4-16.5l1,0.6C35.6,15.3,37.4,10.1,41.6,7.3L41.6,7.3z"/>
<path class="st0" d="M48.2,7.1c-3.9,0.1-7.4,2.3-9.3,5.7c0,0-4,5.8-4,17.6c0,0-0.2,2.8,2,3.1c1.4,0.1,2.6-1,2.6-2.4
	c0-0.1,0-0.3,0-0.4c0,0,0.1-11.7,4.6-16.4c0,0,4,4.7,4.3,15.9c0,0,0.1,7.7,1.6,11.9c0.9-3.7,1.4-7.5,1.5-11.3c0-0.8,0.3-1.5,0.9-2
	c0,0,0.7-0.3,0.5-1.5c0,0-1-9.7-4.2-15.3c0,0,6.9-0.5,8.2,13.3c0,1.2,0.4,2.3,1.1,3.3c0.6,0.5,0.9,1.2,0.9,2c0.1,2.8,0,5.5-0.4,8.2
	c-0.1,1.1,0.1,2.3,0.5,3.3c1-3,1.4-6.2,1.3-9.3c0,0-0.2-3.7,1.6-5c0,0-0.1-10.5-4.3-16.2C55.4,8.7,51.9,7.1,48.2,7.1L48.2,7.1z"/>
<path class="st0" d="M68.8,54.4c3.4,1.1,7.1,0.3,9.8-2.1c0,0,5.9-4,7-20.6c0,0,0.3-2.8-2.1-3.2c0,0-2.5-0.5-2.8,1.6
	s-0.3,12.6-4.9,18c-0.4,0.5-1,1-1.7,1.2c-1,0.7-1.8,1.7-2.5,2.7C70.8,53.1,69.9,53.8,68.8,54.4"/>
<path class="st0" d="M59.9,54.8c0,0,4.4,1.4,9-2.2c0,0,5.5-3.4,6.9-16.9c0.2-1.7,0.3-3.3,0.2-5c-0.1-1.2-1.1-2.1-2.2-2.1
	c0,0-2.5-0.2-2.6,2.1l-0.2,3.2c0,0-0.4,9-4,13.5L66,46.8C64.9,50,62.8,52.9,59.9,54.8L59.9,54.8z"/>
<path class="st0" d="M51.1,54.8c3.7,0.7,7.4-0.5,10-3.2c0,0,4.2-3.7,5.4-13c0,0,0.5-5,0.6-7.4c0-1.3-0.9-2.4-2.2-2.6
	c-1.3-0.1-2.4,0.9-2.5,2.2c0,0.1,0,0.1,0,0.2c0,0-0.1,11.3-4.4,16.5l-1-0.6C57.1,46.7,55.3,52,51.1,54.8L51.1,54.8z"/>
<path class="st0" d="M44.4,55c3.9-0.1,7.4-2.3,9.3-5.7c0,0,4-5.8,4-17.6c0,0,0.2-2.8-2-3.1c-1.4-0.1-2.6,1-2.6,2.4
	c0,0.1,0,0.3,0,0.4c0,0-0.1,11.7-4.6,16.4c0,0-4-4.7-4.3-15.9c0,0-0.1-7.7-1.6-11.9c-0.9,3.7-1.4,7.5-1.5,11.3c0,0.8-0.3,1.5-0.9,2
	c0,0-0.7,0.3-0.5,1.5c0,0,1,9.7,4.2,15.3c0,0-6.9,0.5-8.2-13.3c0-1.2-0.4-2.3-1.1-3.3c-0.6-0.5-0.9-1.2-0.9-2
	c-0.1-2.8,0-5.5,0.4-8.2c0-1.1-0.1-2.3-0.5-3.3c-1,3-1.4,6.2-1.2,9.3c0,0,0.2,3.7-1.6,5c0,0,0.2,10.5,4.3,16.2
	C37.2,53.4,40.7,55,44.4,55L44.4,55z"/>
</svg>
