<svg width="320" height="68" viewBox="0 0 320 68" fill="none" xmlns="http://www.w3.org/2000/svg">
<path d="M6.04688 11.0146H2.80371L2.78613 9.65234H5.73047C6.2168 9.65234 6.6416 9.57031 7.00488 9.40625C7.36816 9.24219 7.64941 9.00781 7.84863 8.70312C8.05371 8.39258 8.15625 8.02344 8.15625 7.5957C8.15625 7.12695 8.06543 6.74609 7.88379 6.45312C7.70801 6.1543 7.43555 5.9375 7.06641 5.80273C6.70312 5.66211 6.24023 5.5918 5.67773 5.5918H3.18164V17H1.48535V4.20312H5.67773C6.33398 4.20312 6.91992 4.27051 7.43555 4.40527C7.95117 4.53418 8.3877 4.73926 8.74512 5.02051C9.1084 5.2959 9.38379 5.64746 9.57129 6.0752C9.75879 6.50293 9.85254 7.01562 9.85254 7.61328C9.85254 8.14062 9.71777 8.61816 9.44824 9.0459C9.17871 9.46777 8.80371 9.81348 8.32324 10.083C7.84863 10.3525 7.29199 10.5254 6.65332 10.6016L6.04688 11.0146ZM5.96777 17H2.13574L3.09375 15.6201H5.96777C6.50684 15.6201 6.96387 15.5264 7.33887 15.3389C7.71973 15.1514 8.00977 14.8877 8.20898 14.5479C8.4082 14.2021 8.50781 13.7949 8.50781 13.3262C8.50781 12.8516 8.42285 12.4414 8.25293 12.0957C8.08301 11.75 7.81641 11.4834 7.45312 11.2959C7.08984 11.1084 6.62109 11.0146 6.04688 11.0146H3.62988L3.64746 9.65234H6.95215L7.3125 10.1445C7.92773 10.1973 8.44922 10.373 8.87695 10.6719C9.30469 10.9648 9.62988 11.3398 9.85254 11.7969C10.0811 12.2539 10.1953 12.7578 10.1953 13.3086C10.1953 14.1055 10.0195 14.7793 9.66797 15.3301C9.32227 15.875 8.83301 16.291 8.2002 16.5781C7.56738 16.8594 6.82324 17 5.96777 17ZM14.2207 7.49023V17H12.5859V7.49023H14.2207ZM12.4629 4.96777C12.4629 4.7041 12.542 4.48145 12.7002 4.2998C12.8643 4.11816 13.1045 4.02734 13.4209 4.02734C13.7314 4.02734 13.9688 4.11816 14.1328 4.2998C14.3027 4.48145 14.3877 4.7041 14.3877 4.96777C14.3877 5.21973 14.3027 5.43652 14.1328 5.61816C13.9688 5.79395 13.7314 5.88184 13.4209 5.88184C13.1045 5.88184 12.8643 5.79395 12.7002 5.61816C12.542 5.43652 12.4629 5.21973 12.4629 4.96777ZM18.5977 3.5V17H16.9629V3.5H18.5977ZM27.3691 7.49023H28.8457V16.7979C28.8457 17.6357 28.6758 18.3506 28.3359 18.9424C27.9961 19.5342 27.5215 19.9824 26.9121 20.2871C26.3086 20.5977 25.6113 20.7529 24.8203 20.7529C24.4922 20.7529 24.1055 20.7002 23.6602 20.5947C23.2207 20.4951 22.7871 20.3223 22.3594 20.0762C21.9375 19.8359 21.583 19.5107 21.2959 19.1006L22.1484 18.1338C22.5469 18.6143 22.9629 18.9482 23.3965 19.1357C23.8359 19.3232 24.2695 19.417 24.6973 19.417C25.2129 19.417 25.6582 19.3203 26.0332 19.127C26.4082 18.9336 26.6982 18.6465 26.9033 18.2656C27.1143 17.8906 27.2197 17.4277 27.2197 16.877V9.58203L27.3691 7.49023ZM20.8213 12.3506V12.166C20.8213 11.4395 20.9062 10.7803 21.0762 10.1885C21.252 9.59082 21.501 9.07812 21.8232 8.65039C22.1514 8.22266 22.5469 7.89453 23.0098 7.66602C23.4727 7.43164 23.9941 7.31445 24.5742 7.31445C25.1719 7.31445 25.6934 7.41992 26.1387 7.63086C26.5898 7.83594 26.9707 8.1377 27.2812 8.53613C27.5977 8.92871 27.8467 9.40332 28.0283 9.95996C28.21 10.5166 28.3359 11.1465 28.4062 11.8496V12.6582C28.3418 13.3555 28.2158 13.9824 28.0283 14.5391C27.8467 15.0957 27.5977 15.5703 27.2812 15.9629C26.9707 16.3555 26.5898 16.6572 26.1387 16.8682C25.6875 17.0732 25.1602 17.1758 24.5566 17.1758C23.9883 17.1758 23.4727 17.0557 23.0098 16.8154C22.5527 16.5752 22.1602 16.2383 21.832 15.8047C21.5039 15.3711 21.252 14.8613 21.0762 14.2754C20.9062 13.6836 20.8213 13.042 20.8213 12.3506ZM22.4473 12.166V12.3506C22.4473 12.8252 22.4941 13.2705 22.5879 13.6865C22.6875 14.1025 22.8369 14.4688 23.0361 14.7852C23.2412 15.1016 23.502 15.3506 23.8184 15.5322C24.1348 15.708 24.5127 15.7959 24.9521 15.7959C25.4912 15.7959 25.9365 15.6816 26.2881 15.4531C26.6396 15.2246 26.918 14.9229 27.123 14.5479C27.334 14.1729 27.498 13.7656 27.6152 13.3262V11.208C27.5508 10.8857 27.4512 10.5752 27.3164 10.2764C27.1875 9.97168 27.0176 9.70215 26.8066 9.46777C26.6016 9.22754 26.3467 9.03711 26.042 8.89648C25.7373 8.75586 25.3799 8.68555 24.9697 8.68555C24.5244 8.68555 24.1406 8.7793 23.8184 8.9668C23.502 9.14844 23.2412 9.40039 23.0361 9.72266C22.8369 10.0391 22.6875 10.4082 22.5879 10.8301C22.4941 11.2461 22.4473 11.6914 22.4473 12.166ZM35.2617 17.1758C34.5996 17.1758 33.999 17.0645 33.46 16.8418C32.9268 16.6133 32.4668 16.2939 32.0801 15.8838C31.6992 15.4736 31.4062 14.9873 31.2012 14.4248C30.9961 13.8623 30.8936 13.2471 30.8936 12.5791V12.21C30.8936 11.4365 31.0078 10.748 31.2363 10.1445C31.4648 9.53516 31.7754 9.01953 32.168 8.59766C32.5605 8.17578 33.0059 7.85645 33.5039 7.63965C34.002 7.42285 34.5176 7.31445 35.0508 7.31445C35.7305 7.31445 36.3164 7.43164 36.8086 7.66602C37.3066 7.90039 37.7139 8.22852 38.0303 8.65039C38.3467 9.06641 38.5811 9.55859 38.7334 10.127C38.8857 10.6895 38.9619 11.3047 38.9619 11.9727V12.7021H31.8604V11.375H37.3359V11.252C37.3125 10.8301 37.2246 10.4199 37.0723 10.0215C36.9258 9.62305 36.6914 9.29492 36.3691 9.03711C36.0469 8.7793 35.6074 8.65039 35.0508 8.65039C34.6816 8.65039 34.3418 8.72949 34.0312 8.8877C33.7207 9.04004 33.4541 9.26855 33.2314 9.57324C33.0088 9.87793 32.8359 10.25 32.7129 10.6895C32.5898 11.1289 32.5283 11.6357 32.5283 12.21V12.5791C32.5283 13.0303 32.5898 13.4551 32.7129 13.8535C32.8418 14.2461 33.0264 14.5918 33.2666 14.8906C33.5127 15.1895 33.8086 15.4238 34.1543 15.5938C34.5059 15.7637 34.9043 15.8486 35.3496 15.8486C35.9238 15.8486 36.4102 15.7314 36.8086 15.4971C37.207 15.2627 37.5557 14.9492 37.8545 14.5566L38.8389 15.3389C38.6338 15.6494 38.373 15.9453 38.0566 16.2266C37.7402 16.5078 37.3506 16.7363 36.8877 16.9121C36.4307 17.0879 35.8887 17.1758 35.2617 17.1758ZM50.291 11.9814H46.8721V10.6016H50.291C50.9531 10.6016 51.4893 10.4961 51.8994 10.2852C52.3096 10.0742 52.6084 9.78125 52.7959 9.40625C52.9893 9.03125 53.0859 8.60352 53.0859 8.12305C53.0859 7.68359 52.9893 7.27051 52.7959 6.88379C52.6084 6.49707 52.3096 6.18652 51.8994 5.95215C51.4893 5.71191 50.9531 5.5918 50.291 5.5918H47.2676V17H45.5713V4.20312H50.291C51.2578 4.20312 52.0752 4.37012 52.7432 4.7041C53.4111 5.03809 53.918 5.50098 54.2637 6.09277C54.6094 6.67871 54.7822 7.34961 54.7822 8.10547C54.7822 8.92578 54.6094 9.62598 54.2637 10.2061C53.918 10.7861 53.4111 11.2285 52.7432 11.5332C52.0752 11.832 51.2578 11.9814 50.291 11.9814ZM62.499 14.8027V7.49023H64.1338V17H62.5781L62.499 14.8027ZM62.8066 12.7988L63.4834 12.7812C63.4834 13.4141 63.416 14 63.2812 14.5391C63.1523 15.0723 62.9414 15.5352 62.6484 15.9277C62.3555 16.3203 61.9717 16.6279 61.4971 16.8506C61.0225 17.0674 60.4453 17.1758 59.7656 17.1758C59.3027 17.1758 58.8779 17.1084 58.4912 16.9736C58.1104 16.8389 57.7822 16.6309 57.5068 16.3496C57.2314 16.0684 57.0176 15.7021 56.8652 15.251C56.7188 14.7998 56.6455 14.2578 56.6455 13.625V7.49023H58.2715V13.6426C58.2715 14.0703 58.3184 14.4248 58.4121 14.7061C58.5117 14.9814 58.6436 15.2012 58.8076 15.3652C58.9775 15.5234 59.165 15.6348 59.3701 15.6992C59.5811 15.7637 59.7979 15.7959 60.0205 15.7959C60.7119 15.7959 61.2598 15.6641 61.6641 15.4004C62.0684 15.1309 62.3584 14.7705 62.5342 14.3193C62.7158 13.8623 62.8066 13.3555 62.8066 12.7988ZM68.2295 9.37988V17H66.5947V7.49023H68.1416L68.2295 9.37988ZM67.8955 11.8848L67.1396 11.8584C67.1455 11.208 67.2305 10.6074 67.3945 10.0566C67.5586 9.5 67.8018 9.0166 68.124 8.60645C68.4463 8.19629 68.8477 7.87988 69.3281 7.65723C69.8086 7.42871 70.3652 7.31445 70.998 7.31445C71.4434 7.31445 71.8535 7.37891 72.2285 7.50781C72.6035 7.63086 72.9287 7.82715 73.2041 8.09668C73.4795 8.36621 73.6934 8.71191 73.8457 9.13379C73.998 9.55566 74.0742 10.0654 74.0742 10.6631V17H72.4482V10.7422C72.4482 10.2441 72.3633 9.8457 72.1934 9.54688C72.0293 9.24805 71.7949 9.03125 71.4902 8.89648C71.1855 8.75586 70.8281 8.68555 70.418 8.68555C69.9375 8.68555 69.5361 8.77051 69.2139 8.94043C68.8916 9.11035 68.6338 9.34473 68.4404 9.64355C68.2471 9.94238 68.1064 10.2852 68.0186 10.6719C67.9365 11.0527 67.8955 11.457 67.8955 11.8848ZM74.0566 10.9883L72.9668 11.3223C72.9727 10.8008 73.0576 10.2998 73.2217 9.81934C73.3916 9.33887 73.6348 8.91113 73.9512 8.53613C74.2734 8.16113 74.6689 7.86523 75.1377 7.64844C75.6064 7.42578 76.1426 7.31445 76.7461 7.31445C77.2559 7.31445 77.707 7.38184 78.0996 7.5166C78.498 7.65137 78.832 7.85938 79.1016 8.14062C79.377 8.41602 79.585 8.77051 79.7256 9.2041C79.8662 9.6377 79.9365 10.1533 79.9365 10.751V17H78.3018V10.7334C78.3018 10.2002 78.2168 9.78711 78.0469 9.49414C77.8828 9.19531 77.6484 8.9873 77.3438 8.87012C77.0449 8.74707 76.6875 8.68555 76.2715 8.68555C75.9141 8.68555 75.5977 8.74707 75.3223 8.87012C75.0469 8.99316 74.8154 9.16309 74.6279 9.37988C74.4404 9.59082 74.2969 9.83398 74.1973 10.1094C74.1035 10.3848 74.0566 10.6777 74.0566 10.9883ZM84.0234 9.31836V20.6562H82.3887V7.49023H83.8828L84.0234 9.31836ZM90.4307 12.166V12.3506C90.4307 13.042 90.3486 13.6836 90.1846 14.2754C90.0205 14.8613 89.7803 15.3711 89.4639 15.8047C89.1533 16.2383 88.7695 16.5752 88.3125 16.8154C87.8555 17.0557 87.3311 17.1758 86.7393 17.1758C86.1357 17.1758 85.6025 17.0762 85.1396 16.877C84.6768 16.6777 84.2842 16.3877 83.9619 16.0068C83.6396 15.626 83.3818 15.1689 83.1885 14.6357C83.001 14.1025 82.8721 13.502 82.8018 12.834V11.8496C82.8721 11.1465 83.0039 10.5166 83.1973 9.95996C83.3906 9.40332 83.6455 8.92871 83.9619 8.53613C84.2842 8.1377 84.6738 7.83594 85.1309 7.63086C85.5879 7.41992 86.1152 7.31445 86.7129 7.31445C87.3105 7.31445 87.8408 7.43164 88.3037 7.66602C88.7666 7.89453 89.1562 8.22266 89.4727 8.65039C89.7891 9.07812 90.0264 9.59082 90.1846 10.1885C90.3486 10.7803 90.4307 11.4395 90.4307 12.166ZM88.7959 12.3506V12.166C88.7959 11.6914 88.7461 11.2461 88.6465 10.8301C88.5469 10.4082 88.3916 10.0391 88.1807 9.72266C87.9756 9.40039 87.7119 9.14844 87.3896 8.9668C87.0674 8.7793 86.6836 8.68555 86.2383 8.68555C85.8281 8.68555 85.4707 8.75586 85.166 8.89648C84.8672 9.03711 84.6123 9.22754 84.4014 9.46777C84.1904 9.70215 84.0176 9.97168 83.8828 10.2764C83.7539 10.5752 83.6572 10.8857 83.5928 11.208V13.4844C83.71 13.8945 83.874 14.2812 84.085 14.6445C84.2959 15.002 84.5771 15.292 84.9287 15.5146C85.2803 15.7314 85.7227 15.8398 86.2559 15.8398C86.6953 15.8398 87.0732 15.749 87.3896 15.5674C87.7119 15.3799 87.9756 15.125 88.1807 14.8027C88.3916 14.4805 88.5469 14.1113 88.6465 13.6953C88.7461 13.2734 88.7959 12.8252 88.7959 12.3506Z" fill="#FAF9F5"/>
<rect x="236" width="84" height="22" rx="10" fill="#F0962E" fill-opacity="0.3"/>
<path d="M253.51 6.04688H257.03C257.787 6.04688 258.432 6.16081 258.965 6.38867C259.498 6.61654 259.906 6.95378 260.188 7.40039C260.476 7.84245 260.619 8.38932 260.619 9.04102C260.619 9.53776 260.528 9.97526 260.346 10.3535C260.163 10.7318 259.906 11.0508 259.573 11.3105C259.241 11.5658 258.844 11.764 258.384 11.9053L257.864 12.1582H254.699L254.686 10.7979H257.058C257.468 10.7979 257.81 10.7249 258.083 10.5791C258.356 10.4333 258.562 10.235 258.698 9.98438C258.84 9.72917 258.91 9.44206 258.91 9.12305C258.91 8.77669 258.842 8.47591 258.705 8.2207C258.573 7.96094 258.368 7.7627 258.09 7.62598C257.812 7.4847 257.459 7.41406 257.03 7.41406H255.226V16H253.51V6.04688ZM259.19 16L256.853 11.5293L258.65 11.5225L261.022 15.9111V16H259.19ZM266.614 14.2568V8.60352H268.269V16H266.71L266.614 14.2568ZM266.847 12.7188L267.4 12.7051C267.4 13.2018 267.346 13.6598 267.236 14.0791C267.127 14.4938 266.958 14.8561 266.73 15.166C266.503 15.4714 266.211 15.7106 265.855 15.8838C265.5 16.0524 265.074 16.1367 264.577 16.1367C264.217 16.1367 263.887 16.0843 263.586 15.9795C263.285 15.8747 263.025 15.7129 262.807 15.4941C262.592 15.2754 262.426 14.9906 262.308 14.6396C262.189 14.2887 262.13 13.8695 262.13 13.3818V8.60352H263.777V13.3955C263.777 13.6644 263.809 13.89 263.873 14.0723C263.937 14.25 264.023 14.3936 264.133 14.5029C264.242 14.6123 264.37 14.6898 264.516 14.7354C264.661 14.7809 264.816 14.8037 264.98 14.8037C265.45 14.8037 265.819 14.7126 266.088 14.5303C266.361 14.3434 266.555 14.0928 266.669 13.7783C266.787 13.4639 266.847 13.1107 266.847 12.7188ZM271.591 10.1826V16H269.943V8.60352H271.495L271.591 10.1826ZM271.297 12.0283L270.764 12.0215C270.768 11.4974 270.841 11.0166 270.982 10.5791C271.128 10.1416 271.329 9.76562 271.584 9.45117C271.844 9.13672 272.154 8.89518 272.514 8.72656C272.874 8.55339 273.275 8.4668 273.717 8.4668C274.072 8.4668 274.394 8.51693 274.681 8.61719C274.972 8.71289 275.221 8.87012 275.426 9.08887C275.635 9.30762 275.795 9.59245 275.904 9.94336C276.014 10.2897 276.068 10.7158 276.068 11.2217V16H274.414V11.2148C274.414 10.8594 274.362 10.5791 274.257 10.374C274.157 10.1644 274.008 10.0163 273.812 9.92969C273.621 9.83854 273.382 9.79297 273.095 9.79297C272.812 9.79297 272.559 9.85221 272.336 9.9707C272.113 10.0892 271.924 10.251 271.769 10.4561C271.618 10.6611 271.502 10.8981 271.42 11.167C271.338 11.4359 271.297 11.723 271.297 12.0283ZM279.384 10.1826V16H277.736V8.60352H279.288L279.384 10.1826ZM279.09 12.0283L278.557 12.0215C278.561 11.4974 278.634 11.0166 278.775 10.5791C278.921 10.1416 279.122 9.76562 279.377 9.45117C279.637 9.13672 279.947 8.89518 280.307 8.72656C280.667 8.55339 281.068 8.4668 281.51 8.4668C281.865 8.4668 282.187 8.51693 282.474 8.61719C282.765 8.71289 283.014 8.87012 283.219 9.08887C283.428 9.30762 283.588 9.59245 283.697 9.94336C283.807 10.2897 283.861 10.7158 283.861 11.2217V16H282.207V11.2148C282.207 10.8594 282.155 10.5791 282.05 10.374C281.95 10.1644 281.801 10.0163 281.605 9.92969C281.414 9.83854 281.175 9.79297 280.888 9.79297C280.605 9.79297 280.352 9.85221 280.129 9.9707C279.906 10.0892 279.716 10.251 279.562 10.4561C279.411 10.6611 279.295 10.8981 279.213 11.167C279.131 11.4359 279.09 11.723 279.09 12.0283ZM287.307 8.60352V16H285.652V8.60352H287.307ZM285.543 6.66211C285.543 6.41146 285.625 6.2041 285.789 6.04004C285.958 5.87142 286.19 5.78711 286.486 5.78711C286.778 5.78711 287.008 5.87142 287.177 6.04004C287.345 6.2041 287.43 6.41146 287.43 6.66211C287.43 6.9082 287.345 7.11328 287.177 7.27734C287.008 7.44141 286.778 7.52344 286.486 7.52344C286.19 7.52344 285.958 7.44141 285.789 7.27734C285.625 7.11328 285.543 6.9082 285.543 6.66211ZM290.745 10.1826V16H289.098V8.60352H290.649L290.745 10.1826ZM290.451 12.0283L289.918 12.0215C289.923 11.4974 289.995 11.0166 290.137 10.5791C290.283 10.1416 290.483 9.76562 290.738 9.45117C290.998 9.13672 291.308 8.89518 291.668 8.72656C292.028 8.55339 292.429 8.4668 292.871 8.4668C293.227 8.4668 293.548 8.51693 293.835 8.61719C294.127 8.71289 294.375 8.87012 294.58 9.08887C294.79 9.30762 294.949 9.59245 295.059 9.94336C295.168 10.2897 295.223 10.7158 295.223 11.2217V16H293.568V11.2148C293.568 10.8594 293.516 10.5791 293.411 10.374C293.311 10.1644 293.163 10.0163 292.967 9.92969C292.775 9.83854 292.536 9.79297 292.249 9.79297C291.966 9.79297 291.714 9.85221 291.49 9.9707C291.267 10.0892 291.078 10.251 290.923 10.4561C290.772 10.6611 290.656 10.8981 290.574 11.167C290.492 11.4359 290.451 11.723 290.451 12.0283ZM301.642 8.60352H303.139V15.7949C303.139 16.4603 302.997 17.0254 302.715 17.4902C302.432 17.9551 302.038 18.3083 301.532 18.5498C301.026 18.7959 300.441 18.9189 299.775 18.9189C299.493 18.9189 299.178 18.8779 298.832 18.7959C298.49 18.7139 298.158 18.5817 297.834 18.3994C297.515 18.2217 297.248 17.987 297.034 17.6953L297.807 16.7246C298.071 17.0391 298.363 17.2692 298.682 17.415C299.001 17.5609 299.336 17.6338 299.687 17.6338C300.065 17.6338 300.386 17.5632 300.65 17.4219C300.919 17.2852 301.127 17.0824 301.272 16.8135C301.418 16.5446 301.491 16.2165 301.491 15.8291V10.2783L301.642 8.60352ZM296.617 12.3838V12.2402C296.617 11.6797 296.686 11.1693 296.822 10.709C296.959 10.2441 297.155 9.84538 297.41 9.5127C297.665 9.17546 297.975 8.91797 298.34 8.74023C298.704 8.55794 299.117 8.4668 299.577 8.4668C300.056 8.4668 300.464 8.55339 300.801 8.72656C301.143 8.89974 301.427 9.14811 301.655 9.47168C301.883 9.79069 302.061 10.1735 302.188 10.6201C302.321 11.0622 302.419 11.5544 302.482 12.0967V12.5547C302.423 13.0833 302.323 13.5664 302.182 14.0039C302.04 14.4414 301.854 14.8197 301.621 15.1387C301.389 15.4577 301.102 15.7038 300.76 15.877C300.423 16.0501 300.024 16.1367 299.563 16.1367C299.112 16.1367 298.704 16.0433 298.34 15.8564C297.98 15.6696 297.67 15.4076 297.41 15.0703C297.155 14.7331 296.959 14.3366 296.822 13.8809C296.686 13.4206 296.617 12.9215 296.617 12.3838ZM298.265 12.2402V12.3838C298.265 12.721 298.297 13.0355 298.36 13.3271C298.429 13.6188 298.531 13.8763 298.668 14.0996C298.809 14.3184 298.987 14.4915 299.201 14.6191C299.42 14.7422 299.677 14.8037 299.974 14.8037C300.361 14.8037 300.678 14.7217 300.924 14.5576C301.174 14.3936 301.366 14.1725 301.498 13.8945C301.635 13.612 301.73 13.2975 301.785 12.9512V11.7139C301.758 11.445 301.701 11.1943 301.614 10.9619C301.532 10.7295 301.421 10.5267 301.279 10.3535C301.138 10.1758 300.96 10.0391 300.746 9.94336C300.532 9.8431 300.279 9.79297 299.987 9.79297C299.691 9.79297 299.434 9.85677 299.215 9.98438C298.996 10.112 298.816 10.2874 298.675 10.5107C298.538 10.734 298.436 10.9938 298.367 11.29C298.299 11.5863 298.265 11.903 298.265 12.2402Z" fill="#F0962E"/>
<rect x="319" y="29" width="38" height="318" rx="5" transform="rotate(90 319 29)" fill="#15304A" stroke="#387DC5" stroke-width="2"/>
<path d="M160 68L160 28L310.34 28C313.757 28 315.465 28 316.766 28.6755C317.862 29.2448 318.755 30.1383 319.324 31.2342C320 32.5346 320 34.2431 320 37.66L320 58.34C320 61.7569 320 63.4654 319.324 64.7658C318.755 65.8617 317.862 66.7552 316.766 67.3245C315.465 68 313.757 68 310.34 68L160 68Z" fill="#387DC5"/>
<path d="M240.619 48.1973V49.0059C240.619 49.9668 240.499 50.8281 240.259 51.5898C240.019 52.3516 239.673 52.999 239.222 53.5322C238.771 54.0654 238.229 54.4727 237.596 54.7539C236.969 55.0352 236.266 55.1758 235.487 55.1758C234.731 55.1758 234.036 55.0352 233.404 54.7539C232.777 54.4727 232.232 54.0654 231.769 53.5322C231.312 52.999 230.957 52.3516 230.705 51.5898C230.453 50.8281 230.327 49.9668 230.327 49.0059V48.1973C230.327 47.2363 230.45 46.3779 230.697 45.6221C230.948 44.8604 231.303 44.2129 231.76 43.6797C232.217 43.1406 232.759 42.7305 233.386 42.4492C234.019 42.168 234.713 42.0273 235.469 42.0273C236.248 42.0273 236.951 42.168 237.578 42.4492C238.211 42.7305 238.753 43.1406 239.204 43.6797C239.661 44.2129 240.01 44.8604 240.25 45.6221C240.496 46.3779 240.619 47.2363 240.619 48.1973ZM238.941 49.0059V48.1797C238.941 47.418 238.862 46.7441 238.703 46.1582C238.551 45.5723 238.325 45.0801 238.027 44.6816C237.728 44.2832 237.362 43.9814 236.928 43.7764C236.5 43.5713 236.014 43.4688 235.469 43.4688C234.942 43.4688 234.464 43.5713 234.036 43.7764C233.615 43.9814 233.251 44.2832 232.947 44.6816C232.648 45.0801 232.416 45.5723 232.252 46.1582C232.088 46.7441 232.006 47.418 232.006 48.1797V49.0059C232.006 49.7734 232.088 50.4531 232.252 51.0449C232.416 51.6309 232.651 52.126 232.955 52.5303C233.266 52.9287 233.632 53.2305 234.054 53.4355C234.482 53.6406 234.959 53.7432 235.487 53.7432C236.037 53.7432 236.527 53.6406 236.954 53.4355C237.382 53.2305 237.742 52.9287 238.035 52.5303C238.334 52.126 238.56 51.6309 238.712 51.0449C238.865 50.4531 238.941 49.7734 238.941 49.0059ZM244.539 47.5205V55H242.913V45.4902H244.451L244.539 47.5205ZM244.153 49.8848L243.476 49.8584C243.482 49.208 243.578 48.6074 243.766 48.0566C243.953 47.5 244.217 47.0166 244.557 46.6064C244.897 46.1963 245.301 45.8799 245.77 45.6572C246.244 45.4287 246.769 45.3145 247.343 45.3145C247.812 45.3145 248.234 45.3789 248.609 45.5078C248.984 45.6309 249.303 45.8301 249.567 46.1055C249.836 46.3809 250.041 46.7383 250.182 47.1777C250.323 47.6113 250.393 48.1416 250.393 48.7686V55H248.758V48.751C248.758 48.2529 248.685 47.8545 248.538 47.5557C248.392 47.251 248.178 47.0312 247.897 46.8965C247.615 46.7559 247.27 46.6855 246.86 46.6855C246.455 46.6855 246.086 46.7705 245.752 46.9404C245.424 47.1104 245.14 47.3447 244.9 47.6436C244.665 47.9424 244.481 48.2852 244.346 48.6719C244.217 49.0527 244.153 49.457 244.153 49.8848Z" fill="#FAF9F5"/>
<path d="M66.4016 43.3369L62.1653 55H60.4338L65.3118 42.2031H66.428L66.4016 43.3369ZM69.9524 55L65.7073 43.3369L65.6809 42.2031H66.7971L71.6926 55H69.9524ZM69.7327 50.2627V51.6514H62.5432V50.2627H69.7327ZM78.8733 52.8027V45.4902H80.508V55H78.9524L78.8733 52.8027ZM79.1809 50.7988L79.8577 50.7812C79.8577 51.4141 79.7903 52 79.6555 52.5391C79.5266 53.0723 79.3157 53.5352 79.0227 53.9277C78.7297 54.3203 78.3459 54.6279 77.8713 54.8506C77.3967 55.0674 76.8196 55.1758 76.1399 55.1758C75.677 55.1758 75.2522 55.1084 74.8655 54.9736C74.4846 54.8389 74.1565 54.6309 73.8811 54.3496C73.6057 54.0684 73.3918 53.7021 73.2395 53.251C73.093 52.7998 73.0198 52.2578 73.0198 51.625V45.4902H74.6457V51.6426C74.6457 52.0703 74.6926 52.4248 74.7864 52.7061C74.886 52.9814 75.0178 53.2012 75.1819 53.3652C75.3518 53.5234 75.5393 53.6348 75.7444 53.6992C75.9553 53.7637 76.1721 53.7959 76.3948 53.7959C77.0862 53.7959 77.634 53.6641 78.0383 53.4004C78.4426 53.1309 78.7327 52.7705 78.9084 52.3193C79.0901 51.8623 79.1809 51.3555 79.1809 50.7988ZM86.968 45.4902V46.7383H81.8264V45.4902H86.968ZM83.5666 43.1787H85.1926V52.6445C85.1926 52.9668 85.2424 53.21 85.342 53.374C85.4416 53.5381 85.5705 53.6465 85.7287 53.6992C85.8869 53.752 86.0569 53.7783 86.2385 53.7783C86.3733 53.7783 86.5139 53.7666 86.6604 53.7432C86.8127 53.7139 86.927 53.6904 87.0032 53.6729L87.0119 55C86.883 55.041 86.7131 55.0791 86.5022 55.1143C86.2971 55.1553 86.0481 55.1758 85.7551 55.1758C85.3567 55.1758 84.9905 55.0967 84.6565 54.9385C84.3225 54.7803 84.0559 54.5166 83.8567 54.1475C83.6633 53.7725 83.5666 53.2686 83.5666 52.6357V43.1787ZM88.2688 50.3506V50.1484C88.2688 49.4629 88.3684 48.8271 88.5676 48.2412C88.7668 47.6494 89.0539 47.1367 89.4289 46.7031C89.8039 46.2637 90.258 45.9238 90.7912 45.6836C91.3244 45.4375 91.9221 45.3145 92.5842 45.3145C93.2522 45.3145 93.8528 45.4375 94.386 45.6836C94.925 45.9238 95.3821 46.2637 95.7571 46.7031C96.1379 47.1367 96.428 47.6494 96.6272 48.2412C96.8264 48.8271 96.926 49.4629 96.926 50.1484V50.3506C96.926 51.0361 96.8264 51.6719 96.6272 52.2578C96.428 52.8438 96.1379 53.3564 95.7571 53.7959C95.3821 54.2295 94.928 54.5693 94.3948 54.8154C93.8674 55.0557 93.2698 55.1758 92.6018 55.1758C91.9338 55.1758 91.3332 55.0557 90.8 54.8154C90.2668 54.5693 89.8098 54.2295 89.4289 53.7959C89.0539 53.3564 88.7668 52.8438 88.5676 52.2578C88.3684 51.6719 88.2688 51.0361 88.2688 50.3506ZM89.8948 50.1484V50.3506C89.8948 50.8252 89.9504 51.2734 90.0618 51.6953C90.1731 52.1113 90.3401 52.4805 90.5627 52.8027C90.7912 53.125 91.0754 53.3799 91.4153 53.5674C91.7551 53.749 92.1506 53.8398 92.6018 53.8398C93.0471 53.8398 93.4368 53.749 93.7707 53.5674C94.1106 53.3799 94.3918 53.125 94.6145 52.8027C94.8371 52.4805 95.0041 52.1113 95.1155 51.6953C95.2327 51.2734 95.2912 50.8252 95.2912 50.3506V50.1484C95.2912 49.6797 95.2327 49.2373 95.1155 48.8213C95.0041 48.3994 94.8342 48.0273 94.6057 47.7051C94.383 47.377 94.1018 47.1191 93.7619 46.9316C93.428 46.7441 93.0354 46.6504 92.5842 46.6504C92.1389 46.6504 91.7463 46.7441 91.4065 46.9316C91.0725 47.1191 90.7912 47.377 90.5627 47.7051C90.3401 48.0273 90.1731 48.3994 90.0618 48.8213C89.9504 49.2373 89.8948 49.6797 89.8948 50.1484Z" fill="#FAF9F5"/>
</svg>
