<svg width="336" height="40" viewBox="0 0 336 40" fill="none" xmlns="http://www.w3.org/2000/svg">
<rect x="1" y="1" width="334" height="38" rx="5" fill="#BBCEE0" stroke="#387DC5" stroke-width="2"/>
<g clip-path="url(#clip0_15790_236175)">
<rect x="255" width="40" height="336" transform="rotate(90 255 0)" fill="#387DC5"/>
<rect x="247" y="6" width="4" height="28" rx="2" fill="white"/>
</g>
<path d="M50 33.125C50 33.6082 49.5523 34 49 34C48.4477 34 48 33.6082 48 33.125L48 6.875C48 6.39175 48.4477 6 49 6C49.5523 6 50 6.39175 50 6.875L50 33.125Z" fill="white" fill-opacity="0.3"/>
<path d="M24.667 20.1973V21.0059C24.667 21.9668 24.5469 22.8281 24.3066 23.5898C24.0664 24.3516 23.7207 24.999 23.2695 25.5322C22.8184 26.0654 22.2764 26.4727 21.6436 26.7539C21.0166 27.0352 20.3135 27.1758 19.5342 27.1758C18.7783 27.1758 18.084 27.0352 17.4512 26.7539C16.8242 26.4727 16.2793 26.0654 15.8164 25.5322C15.3594 24.999 15.0049 24.3516 14.7529 23.5898C14.501 22.8281 14.375 21.9668 14.375 21.0059V20.1973C14.375 19.2363 14.498 18.3779 14.7441 17.6221C14.9961 16.8604 15.3506 16.2129 15.8076 15.6797C16.2646 15.1406 16.8066 14.7305 17.4336 14.4492C18.0664 14.168 18.7607 14.0273 19.5166 14.0273C20.2959 14.0273 20.999 14.168 21.626 14.4492C22.2588 14.7305 22.8008 15.1406 23.252 15.6797C23.709 16.2129 24.0576 16.8604 24.2979 17.6221C24.5439 18.3779 24.667 19.2363 24.667 20.1973ZM22.9883 21.0059V20.1797C22.9883 19.418 22.9092 18.7441 22.751 18.1582C22.5986 17.5723 22.373 17.0801 22.0742 16.6816C21.7754 16.2832 21.4092 15.9814 20.9756 15.7764C20.5479 15.5713 20.0615 15.4688 19.5166 15.4688C18.9893 15.4688 18.5117 15.5713 18.084 15.7764C17.6621 15.9814 17.2988 16.2832 16.9941 16.6816C16.6953 17.0801 16.4639 17.5723 16.2998 18.1582C16.1357 18.7441 16.0537 19.418 16.0537 20.1797V21.0059C16.0537 21.7734 16.1357 22.4531 16.2998 23.0449C16.4639 23.6309 16.6982 24.126 17.0029 24.5303C17.3135 24.9287 17.6797 25.2305 18.1016 25.4355C18.5293 25.6406 19.0068 25.7432 19.5342 25.7432C20.085 25.7432 20.5742 25.6406 21.002 25.4355C21.4297 25.2305 21.79 24.9287 22.083 24.5303C22.3818 24.126 22.6074 23.6309 22.7598 23.0449C22.9121 22.4531 22.9883 21.7734 22.9883 21.0059ZM28.5869 19.5205V27H26.9609V17.4902H28.499L28.5869 19.5205ZM28.2002 21.8848L27.5234 21.8584C27.5293 21.208 27.626 20.6074 27.8135 20.0566C28.001 19.5 28.2646 19.0166 28.6045 18.6064C28.9443 18.1963 29.3486 17.8799 29.8174 17.6572C30.292 17.4287 30.8164 17.3145 31.3906 17.3145C31.8594 17.3145 32.2812 17.3789 32.6562 17.5078C33.0312 17.6309 33.3506 17.8301 33.6143 18.1055C33.8838 18.3809 34.0889 18.7383 34.2295 19.1777C34.3701 19.6113 34.4404 20.1416 34.4404 20.7686V27H32.8057V20.751C32.8057 20.2529 32.7324 19.8545 32.5859 19.5557C32.4395 19.251 32.2256 19.0312 31.9443 18.8965C31.6631 18.7559 31.3174 18.6855 30.9072 18.6855C30.5029 18.6855 30.1338 18.7705 29.7998 18.9404C29.4717 19.1104 29.1875 19.3447 28.9473 19.6436C28.7129 19.9424 28.5283 20.2852 28.3936 20.6719C28.2646 21.0527 28.2002 21.457 28.2002 21.8848Z" fill="#FAF9F5"/>
<defs>
<clipPath id="clip0_15790_236175">
<rect width="336" height="40" rx="6" fill="white"/>
</clipPath>
</defs>
</svg>
