<svg width="368" height="88" viewBox="0 0 368 88" fill="none" xmlns="http://www.w3.org/2000/svg">
<path d="M24.3057 21.7656C24.3057 21.4668 24.2588 21.2031 24.165 20.9746C24.0771 20.7402 23.9189 20.5293 23.6904 20.3418C23.4678 20.1543 23.1572 19.9756 22.7588 19.8057C22.3662 19.6357 21.8682 19.4629 21.2646 19.2871C20.6318 19.0996 20.0605 18.8916 19.5508 18.6631C19.041 18.4287 18.6045 18.1621 18.2412 17.8633C17.8779 17.5645 17.5996 17.2217 17.4062 16.835C17.2129 16.4482 17.1162 16.0059 17.1162 15.5078C17.1162 15.0098 17.2188 14.5498 17.4238 14.1279C17.6289 13.7061 17.9219 13.3398 18.3027 13.0293C18.6895 12.7129 19.1494 12.4668 19.6826 12.291C20.2158 12.1152 20.8105 12.0273 21.4668 12.0273C22.4277 12.0273 23.2422 12.2119 23.9102 12.5811C24.584 12.9443 25.0967 13.4219 25.4482 14.0137C25.7998 14.5996 25.9756 15.2266 25.9756 15.8945H24.2881C24.2881 15.4141 24.1855 14.9893 23.9805 14.6201C23.7754 14.2451 23.4648 13.9521 23.0488 13.7412C22.6328 13.5244 22.1055 13.416 21.4668 13.416C20.8633 13.416 20.3652 13.5068 19.9727 13.6885C19.5801 13.8701 19.2871 14.1162 19.0938 14.4268C18.9062 14.7373 18.8125 15.0918 18.8125 15.4902C18.8125 15.7598 18.8682 16.0059 18.9795 16.2285C19.0967 16.4453 19.2754 16.6475 19.5156 16.835C19.7617 17.0225 20.0723 17.1953 20.4473 17.3535C20.8281 17.5117 21.2822 17.6641 21.8096 17.8105C22.5361 18.0156 23.1631 18.2441 23.6904 18.4961C24.2178 18.748 24.6514 19.0322 24.9912 19.3486C25.3369 19.6592 25.5918 20.0137 25.7559 20.4121C25.9258 20.8047 26.0107 21.25 26.0107 21.748C26.0107 22.2695 25.9053 22.7412 25.6943 23.1631C25.4834 23.585 25.1816 23.9453 24.7891 24.2441C24.3965 24.543 23.9248 24.7744 23.374 24.9385C22.8291 25.0967 22.2197 25.1758 21.5459 25.1758C20.9541 25.1758 20.3711 25.0938 19.7969 24.9297C19.2285 24.7656 18.71 24.5195 18.2412 24.1914C17.7783 23.8633 17.4062 23.459 17.125 22.9785C16.8496 22.4922 16.7119 21.9297 16.7119 21.291H18.3994C18.3994 21.7305 18.4844 22.1084 18.6543 22.4248C18.8242 22.7354 19.0557 22.9932 19.3486 23.1982C19.6475 23.4033 19.9844 23.5557 20.3594 23.6553C20.7402 23.749 21.1357 23.7959 21.5459 23.7959C22.1377 23.7959 22.6387 23.7139 23.0488 23.5498C23.459 23.3857 23.7695 23.1514 23.9805 22.8467C24.1973 22.542 24.3057 22.1816 24.3057 21.7656ZM27.4961 20.3506V20.1484C27.4961 19.4629 27.5957 18.8271 27.7949 18.2412C27.9941 17.6494 28.2812 17.1367 28.6562 16.7031C29.0312 16.2637 29.4854 15.9238 30.0186 15.6836C30.5518 15.4375 31.1494 15.3145 31.8115 15.3145C32.4795 15.3145 33.0801 15.4375 33.6133 15.6836C34.1523 15.9238 34.6094 16.2637 34.9844 16.7031C35.3652 17.1367 35.6553 17.6494 35.8545 18.2412C36.0537 18.8271 36.1533 19.4629 36.1533 20.1484V20.3506C36.1533 21.0361 36.0537 21.6719 35.8545 22.2578C35.6553 22.8438 35.3652 23.3564 34.9844 23.7959C34.6094 24.2295 34.1553 24.5693 33.6221 24.8154C33.0947 25.0557 32.4971 25.1758 31.8291 25.1758C31.1611 25.1758 30.5605 25.0557 30.0273 24.8154C29.4941 24.5693 29.0371 24.2295 28.6562 23.7959C28.2812 23.3564 27.9941 22.8438 27.7949 22.2578C27.5957 21.6719 27.4961 21.0361 27.4961 20.3506ZM29.1221 20.1484V20.3506C29.1221 20.8252 29.1777 21.2734 29.2891 21.6953C29.4004 22.1113 29.5674 22.4805 29.79 22.8027C30.0186 23.125 30.3027 23.3799 30.6426 23.5674C30.9824 23.749 31.3779 23.8398 31.8291 23.8398C32.2744 23.8398 32.6641 23.749 32.998 23.5674C33.3379 23.3799 33.6191 23.125 33.8418 22.8027C34.0645 22.4805 34.2314 22.1113 34.3428 21.6953C34.46 21.2734 34.5186 20.8252 34.5186 20.3506V20.1484C34.5186 19.6797 34.46 19.2373 34.3428 18.8213C34.2314 18.3994 34.0615 18.0273 33.833 17.7051C33.6104 17.377 33.3291 17.1191 32.9893 16.9316C32.6553 16.7441 32.2627 16.6504 31.8115 16.6504C31.3662 16.6504 30.9736 16.7441 30.6338 16.9316C30.2998 17.1191 30.0186 17.377 29.79 17.7051C29.5674 18.0273 29.4004 18.3994 29.2891 18.8213C29.1777 19.2373 29.1221 19.6797 29.1221 20.1484ZM44.0107 22.8027V15.4902H45.6455V25H44.0898L44.0107 22.8027ZM44.3184 20.7988L44.9951 20.7812C44.9951 21.4141 44.9277 22 44.793 22.5391C44.6641 23.0723 44.4531 23.5352 44.1602 23.9277C43.8672 24.3203 43.4834 24.6279 43.0088 24.8506C42.5342 25.0674 41.957 25.1758 41.2773 25.1758C40.8145 25.1758 40.3896 25.1084 40.0029 24.9736C39.6221 24.8389 39.2939 24.6309 39.0186 24.3496C38.7432 24.0684 38.5293 23.7021 38.377 23.251C38.2305 22.7998 38.1572 22.2578 38.1572 21.625V15.4902H39.7832V21.6426C39.7832 22.0703 39.8301 22.4248 39.9238 22.7061C40.0234 22.9814 40.1553 23.2012 40.3193 23.3652C40.4893 23.5234 40.6768 23.6348 40.8818 23.6992C41.0928 23.7637 41.3096 23.7959 41.5322 23.7959C42.2236 23.7959 42.7715 23.6641 43.1758 23.4004C43.5801 23.1309 43.8701 22.7705 44.0459 22.3193C44.2275 21.8623 44.3184 21.3555 44.3184 20.7988ZM49.75 16.9844V25H48.124V15.4902H49.7061L49.75 16.9844ZM52.7207 15.4375L52.7119 16.9492C52.5771 16.9199 52.4482 16.9023 52.3252 16.8965C52.208 16.8848 52.0732 16.8789 51.9209 16.8789C51.5459 16.8789 51.2148 16.9375 50.9277 17.0547C50.6406 17.1719 50.3975 17.3359 50.1982 17.5469C49.999 17.7578 49.8408 18.0098 49.7236 18.3027C49.6123 18.5898 49.5391 18.9062 49.5039 19.252L49.0469 19.5156C49.0469 18.9414 49.1025 18.4023 49.2139 17.8984C49.3311 17.3945 49.5098 16.9492 49.75 16.5625C49.9902 16.1699 50.2949 15.8652 50.6641 15.6484C51.0391 15.4258 51.4844 15.3145 52 15.3145C52.1172 15.3145 52.252 15.3291 52.4043 15.3584C52.5566 15.3818 52.6621 15.4082 52.7207 15.4375ZM57.8535 23.8398C58.2402 23.8398 58.5977 23.7607 58.9258 23.6025C59.2539 23.4443 59.5234 23.2275 59.7344 22.9521C59.9453 22.6709 60.0654 22.3516 60.0947 21.9941H61.6416C61.6123 22.5566 61.4219 23.0811 61.0703 23.5674C60.7246 24.0479 60.2705 24.4375 59.708 24.7363C59.1455 25.0293 58.5273 25.1758 57.8535 25.1758C57.1387 25.1758 56.5146 25.0498 55.9814 24.7979C55.4541 24.5459 55.0146 24.2002 54.6631 23.7607C54.3174 23.3213 54.0566 22.8174 53.8809 22.249C53.7109 21.6748 53.626 21.0684 53.626 20.4297V20.0605C53.626 19.4219 53.7109 18.8184 53.8809 18.25C54.0566 17.6758 54.3174 17.1689 54.6631 16.7295C55.0146 16.29 55.4541 15.9443 55.9814 15.6924C56.5146 15.4404 57.1387 15.3145 57.8535 15.3145C58.5977 15.3145 59.248 15.4668 59.8047 15.7715C60.3613 16.0703 60.7979 16.4805 61.1143 17.002C61.4365 17.5176 61.6123 18.1035 61.6416 18.7598H60.0947C60.0654 18.3672 59.9541 18.0127 59.7607 17.6963C59.5732 17.3799 59.3154 17.1279 58.9873 16.9404C58.665 16.7471 58.2871 16.6504 57.8535 16.6504C57.3555 16.6504 56.9365 16.75 56.5967 16.9492C56.2627 17.1426 55.9961 17.4062 55.7969 17.7402C55.6035 18.0684 55.4629 18.4346 55.375 18.8389C55.293 19.2373 55.252 19.6445 55.252 20.0605V20.4297C55.252 20.8457 55.293 21.2559 55.375 21.6602C55.457 22.0645 55.5947 22.4307 55.7881 22.7588C55.9873 23.0869 56.2539 23.3506 56.5879 23.5498C56.9277 23.7432 57.3496 23.8398 57.8535 23.8398ZM67.416 25.1758C66.7539 25.1758 66.1533 25.0645 65.6143 24.8418C65.0811 24.6133 64.6211 24.2939 64.2344 23.8838C63.8535 23.4736 63.5605 22.9873 63.3555 22.4248C63.1504 21.8623 63.0479 21.2471 63.0479 20.5791V20.21C63.0479 19.4365 63.1621 18.748 63.3906 18.1445C63.6191 17.5352 63.9297 17.0195 64.3223 16.5977C64.7148 16.1758 65.1602 15.8564 65.6582 15.6396C66.1562 15.4229 66.6719 15.3145 67.2051 15.3145C67.8848 15.3145 68.4707 15.4316 68.9629 15.666C69.4609 15.9004 69.8682 16.2285 70.1846 16.6504C70.501 17.0664 70.7354 17.5586 70.8877 18.127C71.04 18.6895 71.1162 19.3047 71.1162 19.9727V20.7021H64.0146V19.375H69.4902V19.252C69.4668 18.8301 69.3789 18.4199 69.2266 18.0215C69.0801 17.623 68.8457 17.2949 68.5234 17.0371C68.2012 16.7793 67.7617 16.6504 67.2051 16.6504C66.8359 16.6504 66.4961 16.7295 66.1855 16.8877C65.875 17.04 65.6084 17.2686 65.3857 17.5732C65.1631 17.8779 64.9902 18.25 64.8672 18.6895C64.7441 19.1289 64.6826 19.6357 64.6826 20.21V20.5791C64.6826 21.0303 64.7441 21.4551 64.8672 21.8535C64.9961 22.2461 65.1807 22.5918 65.4209 22.8906C65.667 23.1895 65.9629 23.4238 66.3086 23.5938C66.6602 23.7637 67.0586 23.8486 67.5039 23.8486C68.0781 23.8486 68.5645 23.7314 68.9629 23.4971C69.3613 23.2627 69.71 22.9492 70.0088 22.5566L70.9932 23.3389C70.7881 23.6494 70.5273 23.9453 70.2109 24.2266C69.8945 24.5078 69.5049 24.7363 69.042 24.9121C68.585 25.0879 68.043 25.1758 67.416 25.1758ZM79.2461 11.5V25H77.6113V11.5H79.2461ZM87.4639 23.374V18.4785C87.4639 18.1035 87.3877 17.7783 87.2354 17.5029C87.0889 17.2217 86.8662 17.0049 86.5674 16.8525C86.2686 16.7002 85.8994 16.624 85.46 16.624C85.0498 16.624 84.6895 16.6943 84.3789 16.835C84.0742 16.9756 83.834 17.1602 83.6582 17.3887C83.4883 17.6172 83.4033 17.8633 83.4033 18.127H81.7773C81.7773 17.7871 81.8652 17.4502 82.041 17.1162C82.2168 16.7822 82.4688 16.4805 82.7969 16.2109C83.1309 15.9355 83.5293 15.7188 83.9922 15.5605C84.4609 15.3965 84.9824 15.3145 85.5566 15.3145C86.248 15.3145 86.8574 15.4316 87.3848 15.666C87.918 15.9004 88.334 16.2549 88.6328 16.7295C88.9375 17.1982 89.0898 17.7871 89.0898 18.4961V22.9258C89.0898 23.2422 89.1162 23.5791 89.1689 23.9365C89.2275 24.2939 89.3125 24.6016 89.4238 24.8594V25H87.7275C87.6455 24.8125 87.5811 24.5635 87.5342 24.2529C87.4873 23.9365 87.4639 23.6436 87.4639 23.374ZM87.7451 19.2344L87.7627 20.377H86.1191C85.6562 20.377 85.2432 20.415 84.8799 20.4912C84.5166 20.5615 84.2119 20.6699 83.9658 20.8164C83.7197 20.9629 83.5322 21.1475 83.4033 21.3701C83.2744 21.5869 83.21 21.8418 83.21 22.1348C83.21 22.4336 83.2773 22.7061 83.4121 22.9521C83.5469 23.1982 83.749 23.3945 84.0186 23.541C84.2939 23.6816 84.6309 23.752 85.0293 23.752C85.5273 23.752 85.9668 23.6465 86.3477 23.4355C86.7285 23.2246 87.0303 22.9668 87.2529 22.6621C87.4814 22.3574 87.6045 22.0615 87.6221 21.7744L88.3164 22.5566C88.2754 22.8027 88.1641 23.0752 87.9824 23.374C87.8008 23.6729 87.5576 23.96 87.2529 24.2354C86.9541 24.5049 86.5967 24.7305 86.1807 24.9121C85.7705 25.0879 85.3076 25.1758 84.792 25.1758C84.1475 25.1758 83.582 25.0498 83.0957 24.7979C82.6152 24.5459 82.2402 24.209 81.9707 23.7871C81.707 23.3594 81.5752 22.8818 81.5752 22.3545C81.5752 21.8447 81.6748 21.3965 81.874 21.0098C82.0732 20.6172 82.3604 20.292 82.7354 20.0342C83.1104 19.7705 83.5615 19.5713 84.0889 19.4365C84.6162 19.3018 85.2051 19.2344 85.8555 19.2344H87.7451ZM91.6387 11.5H93.2734V23.1543L93.1328 25H91.6387V11.5ZM99.6982 20.166V20.3506C99.6982 21.042 99.6162 21.6836 99.4521 22.2754C99.2881 22.8613 99.0479 23.3711 98.7314 23.8047C98.415 24.2383 98.0283 24.5752 97.5713 24.8154C97.1143 25.0557 96.5898 25.1758 95.998 25.1758C95.3945 25.1758 94.8643 25.0732 94.4072 24.8682C93.9561 24.6572 93.5752 24.3555 93.2646 23.9629C92.9541 23.5703 92.7051 23.0957 92.5176 22.5391C92.3359 21.9824 92.21 21.3555 92.1396 20.6582V19.8496C92.21 19.1465 92.3359 18.5166 92.5176 17.96C92.7051 17.4033 92.9541 16.9287 93.2646 16.5361C93.5752 16.1377 93.9561 15.8359 94.4072 15.6309C94.8584 15.4199 95.3828 15.3145 95.9805 15.3145C96.5781 15.3145 97.1084 15.4316 97.5713 15.666C98.0342 15.8945 98.4209 16.2227 98.7314 16.6504C99.0479 17.0781 99.2881 17.5908 99.4521 18.1885C99.6162 18.7803 99.6982 19.4395 99.6982 20.166ZM98.0635 20.3506V20.166C98.0635 19.6914 98.0195 19.2461 97.9316 18.8301C97.8438 18.4082 97.7031 18.0391 97.5098 17.7227C97.3164 17.4004 97.0615 17.1484 96.7451 16.9668C96.4287 16.7793 96.0391 16.6855 95.5762 16.6855C95.166 16.6855 94.8086 16.7559 94.5039 16.8965C94.2051 17.0371 93.9502 17.2275 93.7393 17.4678C93.5283 17.7021 93.3555 17.9717 93.2207 18.2764C93.0918 18.5752 92.9951 18.8857 92.9307 19.208V21.3262C93.0244 21.7363 93.1768 22.1318 93.3877 22.5127C93.6045 22.8877 93.8916 23.1953 94.249 23.4355C94.6123 23.6758 95.0605 23.7959 95.5938 23.7959C96.0332 23.7959 96.4082 23.708 96.7188 23.5322C97.0352 23.3506 97.29 23.1016 97.4834 22.7852C97.6826 22.4688 97.8291 22.1025 97.9229 21.6865C98.0166 21.2705 98.0635 20.8252 98.0635 20.3506ZM105.701 25.1758C105.039 25.1758 104.438 25.0645 103.899 24.8418C103.366 24.6133 102.906 24.2939 102.52 23.8838C102.139 23.4736 101.846 22.9873 101.641 22.4248C101.436 21.8623 101.333 21.2471 101.333 20.5791V20.21C101.333 19.4365 101.447 18.748 101.676 18.1445C101.904 17.5352 102.215 17.0195 102.607 16.5977C103 16.1758 103.445 15.8564 103.943 15.6396C104.441 15.4229 104.957 15.3145 105.49 15.3145C106.17 15.3145 106.756 15.4316 107.248 15.666C107.746 15.9004 108.153 16.2285 108.47 16.6504C108.786 17.0664 109.021 17.5586 109.173 18.127C109.325 18.6895 109.401 19.3047 109.401 19.9727V20.7021H102.3V19.375H107.775V19.252C107.752 18.8301 107.664 18.4199 107.512 18.0215C107.365 17.623 107.131 17.2949 106.809 17.0371C106.486 16.7793 106.047 16.6504 105.49 16.6504C105.121 16.6504 104.781 16.7295 104.471 16.8877C104.16 17.04 103.894 17.2686 103.671 17.5732C103.448 17.8779 103.275 18.25 103.152 18.6895C103.029 19.1289 102.968 19.6357 102.968 20.21V20.5791C102.968 21.0303 103.029 21.4551 103.152 21.8535C103.281 22.2461 103.466 22.5918 103.706 22.8906C103.952 23.1895 104.248 23.4238 104.594 23.5938C104.945 23.7637 105.344 23.8486 105.789 23.8486C106.363 23.8486 106.85 23.7314 107.248 23.4971C107.646 23.2627 107.995 22.9492 108.294 22.5566L109.278 23.3389C109.073 23.6494 108.812 23.9453 108.496 24.2266C108.18 24.5078 107.79 24.7363 107.327 24.9121C106.87 25.0879 106.328 25.1758 105.701 25.1758ZM113.066 11.5V25H111.432V11.5H113.066ZM120.08 19.8848V19.7969C120.08 18.5195 120.224 17.3652 120.511 16.334C120.798 15.2969 121.164 14.3887 121.609 13.6094C122.055 12.8301 122.523 12.1855 123.016 11.6758C123.508 11.1602 123.962 10.7881 124.378 10.5596L124.721 11.6318C124.375 11.8955 124.023 12.2588 123.666 12.7217C123.314 13.1846 122.989 13.7529 122.69 14.4268C122.397 15.1006 122.16 15.8828 121.979 16.7734C121.797 17.6641 121.706 18.666 121.706 19.7793V19.9023C121.706 21.0156 121.797 22.0205 121.979 22.917C122.16 23.8076 122.397 24.5928 122.69 25.2725C122.989 25.9521 123.314 26.5293 123.666 27.0039C124.023 27.4844 124.375 27.8652 124.721 28.1465L124.378 29.1309C123.962 28.9023 123.508 28.5303 123.016 28.0146C122.523 27.5049 122.055 26.8604 121.609 26.0811C121.164 25.3076 120.798 24.4023 120.511 23.3652C120.224 22.3281 120.08 21.168 120.08 19.8848ZM131.119 19.0146H127.876L127.858 17.6523H130.803C131.289 17.6523 131.714 17.5703 132.077 17.4062C132.44 17.2422 132.722 17.0078 132.921 16.7031C133.126 16.3926 133.229 16.0234 133.229 15.5957C133.229 15.127 133.138 14.7461 132.956 14.4531C132.78 14.1543 132.508 13.9375 132.139 13.8027C131.775 13.6621 131.312 13.5918 130.75 13.5918H128.254V25H126.558V12.2031H130.75C131.406 12.2031 131.992 12.2705 132.508 12.4053C133.023 12.5342 133.46 12.7393 133.817 13.0205C134.181 13.2959 134.456 13.6475 134.644 14.0752C134.831 14.5029 134.925 15.0156 134.925 15.6133C134.925 16.1406 134.79 16.6182 134.521 17.0459C134.251 17.4678 133.876 17.8135 133.396 18.083C132.921 18.3525 132.364 18.5254 131.726 18.6016L131.119 19.0146ZM131.04 25H127.208L128.166 23.6201H131.04C131.579 23.6201 132.036 23.5264 132.411 23.3389C132.792 23.1514 133.082 22.8877 133.281 22.5479C133.48 22.2021 133.58 21.7949 133.58 21.3262C133.58 20.8516 133.495 20.4414 133.325 20.0957C133.155 19.75 132.889 19.4834 132.525 19.2959C132.162 19.1084 131.693 19.0146 131.119 19.0146H128.702L128.72 17.6523H132.024L132.385 18.1445C133 18.1973 133.521 18.373 133.949 18.6719C134.377 18.9648 134.702 19.3398 134.925 19.7969C135.153 20.2539 135.268 20.7578 135.268 21.3086C135.268 22.1055 135.092 22.7793 134.74 23.3301C134.395 23.875 133.905 24.291 133.272 24.5781C132.64 24.8594 131.896 25 131.04 25ZM137.096 20.3506V20.1484C137.096 19.4629 137.195 18.8271 137.395 18.2412C137.594 17.6494 137.881 17.1367 138.256 16.7031C138.631 16.2637 139.085 15.9238 139.618 15.6836C140.151 15.4375 140.749 15.3145 141.411 15.3145C142.079 15.3145 142.68 15.4375 143.213 15.6836C143.752 15.9238 144.209 16.2637 144.584 16.7031C144.965 17.1367 145.255 17.6494 145.454 18.2412C145.653 18.8271 145.753 19.4629 145.753 20.1484V20.3506C145.753 21.0361 145.653 21.6719 145.454 22.2578C145.255 22.8438 144.965 23.3564 144.584 23.7959C144.209 24.2295 143.755 24.5693 143.222 24.8154C142.694 25.0557 142.097 25.1758 141.429 25.1758C140.761 25.1758 140.16 25.0557 139.627 24.8154C139.094 24.5693 138.637 24.2295 138.256 23.7959C137.881 23.3564 137.594 22.8438 137.395 22.2578C137.195 21.6719 137.096 21.0361 137.096 20.3506ZM138.722 20.1484V20.3506C138.722 20.8252 138.777 21.2734 138.889 21.6953C139 22.1113 139.167 22.4805 139.39 22.8027C139.618 23.125 139.902 23.3799 140.242 23.5674C140.582 23.749 140.978 23.8398 141.429 23.8398C141.874 23.8398 142.264 23.749 142.598 23.5674C142.938 23.3799 143.219 23.125 143.441 22.8027C143.664 22.4805 143.831 22.1113 143.942 21.6953C144.06 21.2734 144.118 20.8252 144.118 20.3506V20.1484C144.118 19.6797 144.06 19.2373 143.942 18.8213C143.831 18.3994 143.661 18.0273 143.433 17.7051C143.21 17.377 142.929 17.1191 142.589 16.9316C142.255 16.7441 141.862 16.6504 141.411 16.6504C140.966 16.6504 140.573 16.7441 140.233 16.9316C139.899 17.1191 139.618 17.377 139.39 17.7051C139.167 18.0273 139 18.3994 138.889 18.8213C138.777 19.2373 138.722 19.6797 138.722 20.1484ZM147.361 20.3506V20.1484C147.361 19.4629 147.461 18.8271 147.66 18.2412C147.859 17.6494 148.146 17.1367 148.521 16.7031C148.896 16.2637 149.351 15.9238 149.884 15.6836C150.417 15.4375 151.015 15.3145 151.677 15.3145C152.345 15.3145 152.945 15.4375 153.479 15.6836C154.018 15.9238 154.475 16.2637 154.85 16.7031C155.23 17.1367 155.521 17.6494 155.72 18.2412C155.919 18.8271 156.019 19.4629 156.019 20.1484V20.3506C156.019 21.0361 155.919 21.6719 155.72 22.2578C155.521 22.8438 155.23 23.3564 154.85 23.7959C154.475 24.2295 154.021 24.5693 153.487 24.8154C152.96 25.0557 152.362 25.1758 151.694 25.1758C151.026 25.1758 150.426 25.0557 149.893 24.8154C149.359 24.5693 148.902 24.2295 148.521 23.7959C148.146 23.3564 147.859 22.8438 147.66 22.2578C147.461 21.6719 147.361 21.0361 147.361 20.3506ZM148.987 20.1484V20.3506C148.987 20.8252 149.043 21.2734 149.154 21.6953C149.266 22.1113 149.433 22.4805 149.655 22.8027C149.884 23.125 150.168 23.3799 150.508 23.5674C150.848 23.749 151.243 23.8398 151.694 23.8398C152.14 23.8398 152.529 23.749 152.863 23.5674C153.203 23.3799 153.484 23.125 153.707 22.8027C153.93 22.4805 154.097 22.1113 154.208 21.6953C154.325 21.2734 154.384 20.8252 154.384 20.3506V20.1484C154.384 19.6797 154.325 19.2373 154.208 18.8213C154.097 18.3994 153.927 18.0273 153.698 17.7051C153.476 17.377 153.194 17.1191 152.854 16.9316C152.521 16.7441 152.128 16.6504 151.677 16.6504C151.231 16.6504 150.839 16.7441 150.499 16.9316C150.165 17.1191 149.884 17.377 149.655 17.7051C149.433 18.0273 149.266 18.3994 149.154 18.8213C149.043 19.2373 148.987 19.6797 148.987 20.1484ZM159.824 11.5V25H158.189V11.5H159.824ZM166.381 25.1758C165.719 25.1758 165.118 25.0645 164.579 24.8418C164.046 24.6133 163.586 24.2939 163.199 23.8838C162.818 23.4736 162.525 22.9873 162.32 22.4248C162.115 21.8623 162.013 21.2471 162.013 20.5791V20.21C162.013 19.4365 162.127 18.748 162.355 18.1445C162.584 17.5352 162.895 17.0195 163.287 16.5977C163.68 16.1758 164.125 15.8564 164.623 15.6396C165.121 15.4229 165.637 15.3145 166.17 15.3145C166.85 15.3145 167.436 15.4316 167.928 15.666C168.426 15.9004 168.833 16.2285 169.149 16.6504C169.466 17.0664 169.7 17.5586 169.853 18.127C170.005 18.6895 170.081 19.3047 170.081 19.9727V20.7021H162.979V19.375H168.455V19.252C168.432 18.8301 168.344 18.4199 168.191 18.0215C168.045 17.623 167.811 17.2949 167.488 17.0371C167.166 16.7793 166.727 16.6504 166.17 16.6504C165.801 16.6504 165.461 16.7295 165.15 16.8877C164.84 17.04 164.573 17.2686 164.351 17.5732C164.128 17.8779 163.955 18.25 163.832 18.6895C163.709 19.1289 163.647 19.6357 163.647 20.21V20.5791C163.647 21.0303 163.709 21.4551 163.832 21.8535C163.961 22.2461 164.146 22.5918 164.386 22.8906C164.632 23.1895 164.928 23.4238 165.273 23.5938C165.625 23.7637 166.023 23.8486 166.469 23.8486C167.043 23.8486 167.529 23.7314 167.928 23.4971C168.326 23.2627 168.675 22.9492 168.974 22.5566L169.958 23.3389C169.753 23.6494 169.492 23.9453 169.176 24.2266C168.859 24.5078 168.47 24.7363 168.007 24.9121C167.55 25.0879 167.008 25.1758 166.381 25.1758ZM177.587 23.374V18.4785C177.587 18.1035 177.511 17.7783 177.358 17.5029C177.212 17.2217 176.989 17.0049 176.69 16.8525C176.392 16.7002 176.022 16.624 175.583 16.624C175.173 16.624 174.812 16.6943 174.502 16.835C174.197 16.9756 173.957 17.1602 173.781 17.3887C173.611 17.6172 173.526 17.8633 173.526 18.127H171.9C171.9 17.7871 171.988 17.4502 172.164 17.1162C172.34 16.7822 172.592 16.4805 172.92 16.2109C173.254 15.9355 173.652 15.7188 174.115 15.5605C174.584 15.3965 175.105 15.3145 175.68 15.3145C176.371 15.3145 176.98 15.4316 177.508 15.666C178.041 15.9004 178.457 16.2549 178.756 16.7295C179.061 17.1982 179.213 17.7871 179.213 18.4961V22.9258C179.213 23.2422 179.239 23.5791 179.292 23.9365C179.351 24.2939 179.436 24.6016 179.547 24.8594V25H177.851C177.769 24.8125 177.704 24.5635 177.657 24.2529C177.61 23.9365 177.587 23.6436 177.587 23.374ZM177.868 19.2344L177.886 20.377H176.242C175.779 20.377 175.366 20.415 175.003 20.4912C174.64 20.5615 174.335 20.6699 174.089 20.8164C173.843 20.9629 173.655 21.1475 173.526 21.3701C173.397 21.5869 173.333 21.8418 173.333 22.1348C173.333 22.4336 173.4 22.7061 173.535 22.9521C173.67 23.1982 173.872 23.3945 174.142 23.541C174.417 23.6816 174.754 23.752 175.152 23.752C175.65 23.752 176.09 23.6465 176.471 23.4355C176.852 23.2246 177.153 22.9668 177.376 22.6621C177.604 22.3574 177.728 22.0615 177.745 21.7744L178.439 22.5566C178.398 22.8027 178.287 23.0752 178.105 23.374C177.924 23.6729 177.681 23.96 177.376 24.2354C177.077 24.5049 176.72 24.7305 176.304 24.9121C175.894 25.0879 175.431 25.1758 174.915 25.1758C174.271 25.1758 173.705 25.0498 173.219 24.7979C172.738 24.5459 172.363 24.209 172.094 23.7871C171.83 23.3594 171.698 22.8818 171.698 22.3545C171.698 21.8447 171.798 21.3965 171.997 21.0098C172.196 20.6172 172.483 20.292 172.858 20.0342C173.233 19.7705 173.685 19.5713 174.212 19.4365C174.739 19.3018 175.328 19.2344 175.979 19.2344H177.868ZM183.396 17.5205V25H181.771V15.4902H183.309L183.396 17.5205ZM183.01 19.8848L182.333 19.8584C182.339 19.208 182.436 18.6074 182.623 18.0566C182.811 17.5 183.074 17.0166 183.414 16.6064C183.754 16.1963 184.158 15.8799 184.627 15.6572C185.102 15.4287 185.626 15.3145 186.2 15.3145C186.669 15.3145 187.091 15.3789 187.466 15.5078C187.841 15.6309 188.16 15.8301 188.424 16.1055C188.693 16.3809 188.898 16.7383 189.039 17.1777C189.18 17.6113 189.25 18.1416 189.25 18.7686V25H187.615V18.751C187.615 18.2529 187.542 17.8545 187.396 17.5557C187.249 17.251 187.035 17.0312 186.754 16.8965C186.473 16.7559 186.127 16.6855 185.717 16.6855C185.312 16.6855 184.943 16.7705 184.609 16.9404C184.281 17.1104 183.997 17.3447 183.757 17.6436C183.522 17.9424 183.338 18.2852 183.203 18.6719C183.074 19.0527 183.01 19.457 183.01 19.8848ZM195.464 19.7969V19.8848C195.464 21.168 195.32 22.3281 195.033 23.3652C194.746 24.4023 194.38 25.3076 193.935 26.0811C193.489 26.8604 193.021 27.5049 192.528 28.0146C192.036 28.5303 191.582 28.9023 191.166 29.1309L190.823 28.1465C191.169 27.8828 191.518 27.5137 191.869 27.0391C192.221 26.5703 192.546 25.9902 192.845 25.2988C193.144 24.6133 193.384 23.8223 193.565 22.9258C193.747 22.0234 193.838 21.0156 193.838 19.9023V19.7793C193.838 18.666 193.741 17.6611 193.548 16.7646C193.354 15.8623 193.103 15.0684 192.792 14.3828C192.487 13.6973 192.159 13.1201 191.808 12.6514C191.462 12.1768 191.134 11.8105 190.823 11.5527L191.166 10.5596C191.582 10.7881 192.036 11.1602 192.528 11.6758C193.021 12.1855 193.489 12.8301 193.935 13.6094C194.38 14.3887 194.746 15.2969 195.033 16.334C195.32 17.3652 195.464 18.5195 195.464 19.7969Z" fill="#1D1D1B"/>
<line x1="8" y1="87.5" x2="360" y2="87.5" stroke="#E6E5E1"/>
<rect x="16" y="34" width="336" height="40" rx="6" fill="#F0EFEB"/>
<path d="M39.0615 58.0469C39.0615 57.6816 39.0042 57.3594 38.8896 57.0801C38.7822 56.7936 38.5889 56.5358 38.3096 56.3066C38.0374 56.0775 37.6579 55.859 37.1709 55.6514C36.6911 55.4437 36.0824 55.2324 35.3447 55.0176C34.5713 54.7884 33.873 54.5342 33.25 54.2549C32.627 53.9684 32.0934 53.6426 31.6494 53.2773C31.2054 52.9121 30.8652 52.4932 30.6289 52.0205C30.3926 51.5479 30.2744 51.0072 30.2744 50.3984C30.2744 49.7897 30.3997 49.2275 30.6504 48.7119C30.901 48.1963 31.2591 47.7487 31.7246 47.3691C32.1973 46.9824 32.7594 46.6816 33.4111 46.4668C34.0628 46.252 34.7897 46.1445 35.5918 46.1445C36.7663 46.1445 37.7617 46.3701 38.5781 46.8213C39.4017 47.2653 40.0283 47.849 40.458 48.5723C40.8877 49.2884 41.1025 50.0547 41.1025 50.8711H39.04C39.04 50.2839 38.9147 49.7646 38.6641 49.3135C38.4134 48.8551 38.0339 48.4971 37.5254 48.2393C37.0169 47.9743 36.3724 47.8418 35.5918 47.8418C34.8542 47.8418 34.2454 47.9528 33.7656 48.1748C33.2858 48.3968 32.9277 48.6976 32.6914 49.0771C32.4622 49.4567 32.3477 49.89 32.3477 50.377C32.3477 50.7064 32.4157 51.0072 32.5518 51.2793C32.695 51.5443 32.9134 51.7913 33.207 52.0205C33.5078 52.2497 33.8874 52.4609 34.3457 52.6543C34.8112 52.8477 35.3662 53.0339 36.0107 53.2129C36.8988 53.4635 37.665 53.7428 38.3096 54.0508C38.9541 54.3587 39.484 54.7061 39.8994 55.0928C40.3219 55.4723 40.6335 55.9056 40.834 56.3926C41.0417 56.8724 41.1455 57.4167 41.1455 58.0254C41.1455 58.6628 41.0166 59.2393 40.7588 59.7549C40.501 60.2705 40.1322 60.7109 39.6523 61.0762C39.1725 61.4414 38.596 61.7243 37.9229 61.9248C37.2568 62.1182 36.512 62.2148 35.6885 62.2148C34.9652 62.2148 34.2526 62.1146 33.5508 61.9141C32.8561 61.7135 32.2223 61.4128 31.6494 61.0117C31.0837 60.6107 30.6289 60.1165 30.2852 59.5293C29.9486 58.9349 29.7803 58.2474 29.7803 57.4668H31.8428C31.8428 58.0039 31.9466 58.4658 32.1543 58.8525C32.362 59.2321 32.6449 59.5472 33.0029 59.7979C33.3682 60.0485 33.7799 60.2347 34.2383 60.3564C34.7038 60.471 35.1872 60.5283 35.6885 60.5283C36.4118 60.5283 37.0241 60.4281 37.5254 60.2275C38.0267 60.027 38.4062 59.7406 38.6641 59.3682C38.929 58.9958 39.0615 58.5553 39.0615 58.0469ZM48.3535 50.377V51.9023H42.0693V50.377H48.3535ZM44.1963 47.5518H46.1836V59.1211C46.1836 59.515 46.2445 59.8122 46.3662 60.0127C46.488 60.2132 46.6455 60.3457 46.8389 60.4102C47.0322 60.4746 47.2399 60.5068 47.4619 60.5068C47.6266 60.5068 47.7985 60.4925 47.9775 60.4639C48.1637 60.4281 48.3034 60.3994 48.3965 60.3779L48.4072 62C48.2497 62.0501 48.042 62.0967 47.7842 62.1396C47.5335 62.1898 47.2292 62.2148 46.8711 62.2148C46.3841 62.2148 45.9365 62.1182 45.5283 61.9248C45.1201 61.7314 44.7943 61.4092 44.5508 60.958C44.3145 60.4997 44.1963 59.8838 44.1963 59.1104V47.5518ZM57.5381 60.0127V54.0293C57.5381 53.571 57.445 53.1735 57.2588 52.8369C57.0798 52.4932 56.8076 52.2282 56.4424 52.042C56.0771 51.8558 55.626 51.7627 55.0889 51.7627C54.5876 51.7627 54.1471 51.8486 53.7676 52.0205C53.3952 52.1924 53.1016 52.418 52.8867 52.6973C52.679 52.9766 52.5752 53.2773 52.5752 53.5996H50.5879C50.5879 53.1842 50.6953 52.7725 50.9102 52.3643C51.125 51.9561 51.4329 51.5872 51.834 51.2578C52.2422 50.9212 52.7292 50.6562 53.2949 50.4629C53.8678 50.2624 54.5052 50.1621 55.207 50.1621C56.0521 50.1621 56.7969 50.3053 57.4414 50.5918C58.0931 50.8783 58.6016 51.3115 58.9668 51.8916C59.3392 52.4645 59.5254 53.1842 59.5254 54.0508V59.4648C59.5254 59.8516 59.5576 60.2633 59.6221 60.7002C59.6937 61.137 59.7975 61.513 59.9336 61.8281V62H57.8604C57.7601 61.7708 57.6813 61.4665 57.624 61.0869C57.5667 60.7002 57.5381 60.3421 57.5381 60.0127ZM57.8818 54.9531L57.9033 56.3496H55.8945C55.3288 56.3496 54.8239 56.3962 54.3799 56.4893C53.9359 56.5752 53.5635 56.7077 53.2627 56.8867C52.9619 57.0658 52.7327 57.2913 52.5752 57.5635C52.4176 57.8285 52.3389 58.14 52.3389 58.498C52.3389 58.8633 52.4212 59.1963 52.5859 59.4971C52.7507 59.7979 52.9977 60.0378 53.3271 60.2168C53.6637 60.3887 54.0755 60.4746 54.5625 60.4746C55.1712 60.4746 55.7083 60.3457 56.1738 60.0879C56.6393 59.8301 57.0081 59.515 57.2803 59.1426C57.5596 58.7702 57.71 58.4085 57.7314 58.0576L58.5801 59.0137C58.5299 59.3145 58.3939 59.6475 58.1719 60.0127C57.9499 60.3779 57.6527 60.7288 57.2803 61.0654C56.915 61.3949 56.4782 61.6706 55.9697 61.8926C55.4684 62.1074 54.9027 62.2148 54.2725 62.2148C53.4847 62.2148 52.7936 62.0609 52.1992 61.7529C51.612 61.445 51.1536 61.0332 50.8242 60.5176C50.502 59.9948 50.3408 59.4111 50.3408 58.7666C50.3408 58.1436 50.4626 57.5957 50.7061 57.123C50.9495 56.6432 51.3005 56.2458 51.7588 55.9307C52.2171 55.6084 52.7686 55.3649 53.4131 55.2002C54.0576 55.0355 54.7773 54.9531 55.5723 54.9531H57.8818ZM67.5176 50.377V51.9023H61.2334V50.377H67.5176ZM63.3604 47.5518H65.3477V59.1211C65.3477 59.515 65.4085 59.8122 65.5303 60.0127C65.652 60.2132 65.8096 60.3457 66.0029 60.4102C66.1963 60.4746 66.404 60.5068 66.626 60.5068C66.7907 60.5068 66.9626 60.4925 67.1416 60.4639C67.3278 60.4281 67.4674 60.3994 67.5605 60.3779L67.5713 62C67.4137 62.0501 67.2061 62.0967 66.9482 62.1396C66.6976 62.1898 66.3932 62.2148 66.0352 62.2148C65.5482 62.2148 65.1006 62.1182 64.6924 61.9248C64.2842 61.7314 63.9583 61.4092 63.7148 60.958C63.4785 60.4997 63.3604 59.8838 63.3604 59.1104V47.5518ZM74.6719 62.2148C73.8626 62.2148 73.1286 62.0788 72.4697 61.8066C71.818 61.5273 71.2559 61.137 70.7832 60.6357C70.3177 60.1344 69.9596 59.54 69.709 58.8525C69.4583 58.165 69.333 57.4131 69.333 56.5967V56.1455C69.333 55.2002 69.4727 54.3587 69.752 53.6211C70.0312 52.8763 70.4108 52.2461 70.8906 51.7305C71.3704 51.2148 71.9147 50.8245 72.5234 50.5596C73.1322 50.2946 73.7624 50.1621 74.4141 50.1621C75.2448 50.1621 75.9609 50.3053 76.5625 50.5918C77.1712 50.8783 77.6689 51.2793 78.0557 51.7949C78.4424 52.3034 78.7288 52.9049 78.915 53.5996C79.1012 54.2871 79.1943 55.0391 79.1943 55.8555V56.7471H70.5146V55.125H77.207V54.9746C77.1784 54.459 77.071 53.9577 76.8848 53.4707C76.7057 52.9837 76.4193 52.5827 76.0254 52.2676C75.6315 51.9525 75.0944 51.7949 74.4141 51.7949C73.9629 51.7949 73.5475 51.8916 73.168 52.085C72.7884 52.2712 72.4626 52.5505 72.1904 52.9229C71.9183 53.2952 71.707 53.75 71.5566 54.2871C71.4062 54.8242 71.3311 55.4437 71.3311 56.1455V56.5967C71.3311 57.1481 71.4062 57.6673 71.5566 58.1543C71.7142 58.6341 71.9398 59.0566 72.2334 59.4219C72.5342 59.7871 72.8958 60.0736 73.3184 60.2812C73.748 60.4889 74.235 60.5928 74.7793 60.5928C75.4811 60.5928 76.0755 60.4495 76.5625 60.1631C77.0495 59.8766 77.4756 59.4935 77.8408 59.0137L79.0439 59.9697C78.7933 60.3493 78.4746 60.7109 78.0879 61.0547C77.7012 61.3984 77.2249 61.6777 76.6592 61.8926C76.1006 62.1074 75.4382 62.2148 74.6719 62.2148Z" fill="#64635F"/>
<path d="M326.551 53.6855V54.6738C326.551 55.8483 326.404 56.901 326.11 57.832C325.817 58.763 325.394 59.5544 324.843 60.2061C324.291 60.8577 323.629 61.3555 322.855 61.6992C322.089 62.043 321.23 62.2148 320.277 62.2148C319.354 62.2148 318.505 62.043 317.731 61.6992C316.965 61.3555 316.299 60.8577 315.733 60.2061C315.175 59.5544 314.742 58.763 314.434 57.832C314.126 56.901 313.972 55.8483 313.972 54.6738V53.6855C313.972 52.5111 314.122 51.4619 314.423 50.5381C314.731 49.6071 315.164 48.8158 315.723 48.1641C316.281 47.5052 316.944 47.0039 317.71 46.6602C318.483 46.3164 319.332 46.1445 320.256 46.1445C321.208 46.1445 322.068 46.3164 322.834 46.6602C323.607 47.0039 324.27 47.5052 324.821 48.1641C325.38 48.8158 325.806 49.6071 326.1 50.5381C326.4 51.4619 326.551 52.5111 326.551 53.6855ZM324.499 54.6738V53.6641C324.499 52.7331 324.402 51.9095 324.209 51.1934C324.023 50.4772 323.747 49.8757 323.382 49.3887C323.017 48.9017 322.569 48.5329 322.039 48.2822C321.516 48.0316 320.922 47.9062 320.256 47.9062C319.611 47.9062 319.028 48.0316 318.505 48.2822C317.989 48.5329 317.545 48.9017 317.173 49.3887C316.808 49.8757 316.525 50.4772 316.324 51.1934C316.124 51.9095 316.023 52.7331 316.023 53.6641V54.6738C316.023 55.612 316.124 56.4427 316.324 57.166C316.525 57.8822 316.811 58.4873 317.184 58.9814C317.563 59.4684 318.011 59.8372 318.526 60.0879C319.049 60.3385 319.633 60.4639 320.277 60.4639C320.951 60.4639 321.549 60.3385 322.071 60.0879C322.594 59.8372 323.035 59.4684 323.393 58.9814C323.758 58.4873 324.034 57.8822 324.22 57.166C324.406 56.4427 324.499 55.612 324.499 54.6738ZM331.342 52.8584V62H329.354V50.377H331.234L331.342 52.8584ZM330.869 55.748L330.042 55.7158C330.049 54.9209 330.167 54.1868 330.396 53.5137C330.626 52.8333 330.948 52.2425 331.363 51.7412C331.779 51.2399 332.273 50.8532 332.846 50.5811C333.426 50.3018 334.067 50.1621 334.769 50.1621C335.341 50.1621 335.857 50.2409 336.315 50.3984C336.774 50.5488 337.164 50.7923 337.486 51.1289C337.816 51.4655 338.066 51.9023 338.238 52.4395C338.41 52.9694 338.496 53.6175 338.496 54.3838V62H336.498V54.3623C336.498 53.7536 336.409 53.2666 336.229 52.9014C336.05 52.529 335.789 52.2604 335.445 52.0957C335.102 51.9238 334.679 51.8379 334.178 51.8379C333.684 51.8379 333.232 51.9417 332.824 52.1494C332.423 52.3571 332.076 52.6436 331.782 53.0088C331.496 53.374 331.27 53.793 331.105 54.2656C330.948 54.7311 330.869 55.2253 330.869 55.748Z" fill="#1D1D1B"/>
</svg>
