<svg width="336" height="40" viewBox="0 0 336 40" fill="none" xmlns="http://www.w3.org/2000/svg">
<rect x="335" y="1" width="38" height="334" rx="5" transform="rotate(90 335 1)" fill="#BBCEE0" stroke="#387DC5" stroke-width="2"/>
<path d="M24.3379 20.1973V21.0059C24.3379 21.9668 24.2178 22.8281 23.9775 23.5898C23.7373 24.3516 23.3916 24.999 22.9404 25.5322C22.4893 26.0654 21.9473 26.4727 21.3145 26.7539C20.6875 27.0352 19.9844 27.1758 19.2051 27.1758C18.4492 27.1758 17.7549 27.0352 17.1221 26.7539C16.4951 26.4727 15.9502 26.0654 15.4873 25.5322C15.0303 24.999 14.6758 24.3516 14.4238 23.5898C14.1719 22.8281 14.0459 21.9668 14.0459 21.0059V20.1973C14.0459 19.2363 14.1689 18.3779 14.415 17.6221C14.667 16.8604 15.0215 16.2129 15.4785 15.6797C15.9355 15.1406 16.4775 14.7305 17.1045 14.4492C17.7373 14.168 18.4316 14.0273 19.1875 14.0273C19.9668 14.0273 20.6699 14.168 21.2969 14.4492C21.9297 14.7305 22.4717 15.1406 22.9229 15.6797C23.3799 16.2129 23.7285 16.8604 23.9688 17.6221C24.2148 18.3779 24.3379 19.2363 24.3379 20.1973ZM22.6592 21.0059V20.1797C22.6592 19.418 22.5801 18.7441 22.4219 18.1582C22.2695 17.5723 22.0439 17.0801 21.7451 16.6816C21.4463 16.2832 21.0801 15.9814 20.6465 15.7764C20.2188 15.5713 19.7324 15.4688 19.1875 15.4688C18.6602 15.4688 18.1826 15.5713 17.7549 15.7764C17.333 15.9814 16.9697 16.2832 16.665 16.6816C16.3662 17.0801 16.1348 17.5723 15.9707 18.1582C15.8066 18.7441 15.7246 19.418 15.7246 20.1797V21.0059C15.7246 21.7734 15.8066 22.4531 15.9707 23.0449C16.1348 23.6309 16.3691 24.126 16.6738 24.5303C16.9844 24.9287 17.3506 25.2305 17.7725 25.4355C18.2002 25.6406 18.6777 25.7432 19.2051 25.7432C19.7559 25.7432 20.2451 25.6406 20.6729 25.4355C21.1006 25.2305 21.4609 24.9287 21.7539 24.5303C22.0527 24.126 22.2783 23.6309 22.4307 23.0449C22.583 22.4531 22.6592 21.7734 22.6592 21.0059ZM28.2578 19.3184V30.6562H26.623V17.4902H28.1172L28.2578 19.3184ZM34.665 22.166V22.3506C34.665 23.042 34.583 23.6836 34.4189 24.2754C34.2549 24.8613 34.0146 25.3711 33.6982 25.8047C33.3877 26.2383 33.0039 26.5752 32.5469 26.8154C32.0898 27.0557 31.5654 27.1758 30.9736 27.1758C30.3701 27.1758 29.8369 27.0762 29.374 26.877C28.9111 26.6777 28.5186 26.3877 28.1963 26.0068C27.874 25.626 27.6162 25.1689 27.4229 24.6357C27.2354 24.1025 27.1064 23.502 27.0361 22.834V21.8496C27.1064 21.1465 27.2383 20.5166 27.4316 19.96C27.625 19.4033 27.8799 18.9287 28.1963 18.5361C28.5186 18.1377 28.9082 17.8359 29.3652 17.6309C29.8223 17.4199 30.3496 17.3145 30.9473 17.3145C31.5449 17.3145 32.0752 17.4316 32.5381 17.666C33.001 17.8945 33.3906 18.2227 33.707 18.6504C34.0234 19.0781 34.2607 19.5908 34.4189 20.1885C34.583 20.7803 34.665 21.4395 34.665 22.166ZM33.0303 22.3506V22.166C33.0303 21.6914 32.9805 21.2461 32.8809 20.8301C32.7812 20.4082 32.626 20.0391 32.415 19.7227C32.21 19.4004 31.9463 19.1484 31.624 18.9668C31.3018 18.7793 30.918 18.6855 30.4727 18.6855C30.0625 18.6855 29.7051 18.7559 29.4004 18.8965C29.1016 19.0371 28.8467 19.2275 28.6357 19.4678C28.4248 19.7021 28.252 19.9717 28.1172 20.2764C27.9883 20.5752 27.8916 20.8857 27.8271 21.208V23.4844C27.9443 23.8945 28.1084 24.2812 28.3193 24.6445C28.5303 25.002 28.8115 25.292 29.1631 25.5146C29.5146 25.7314 29.957 25.8398 30.4902 25.8398C30.9297 25.8398 31.3076 25.749 31.624 25.5674C31.9463 25.3799 32.21 25.125 32.415 24.8027C32.626 24.4805 32.7812 24.1113 32.8809 23.6953C32.9805 23.2734 33.0303 22.8252 33.0303 22.3506ZM40.7207 17.4902V18.7383H35.5791V17.4902H40.7207ZM37.3193 15.1787H38.9453V24.6445C38.9453 24.9668 38.9951 25.21 39.0947 25.374C39.1943 25.5381 39.3232 25.6465 39.4814 25.6992C39.6396 25.752 39.8096 25.7783 39.9912 25.7783C40.126 25.7783 40.2666 25.7666 40.4131 25.7432C40.5654 25.7139 40.6797 25.6904 40.7559 25.6729L40.7646 27C40.6357 27.041 40.4658 27.0791 40.2549 27.1143C40.0498 27.1553 39.8008 27.1758 39.5078 27.1758C39.1094 27.1758 38.7432 27.0967 38.4092 26.9385C38.0752 26.7803 37.8086 26.5166 37.6094 26.1475C37.416 25.7725 37.3193 25.2686 37.3193 24.6357V15.1787ZM44.3945 17.4902V27H42.7598V17.4902H44.3945ZM42.6367 14.9678C42.6367 14.7041 42.7158 14.4814 42.874 14.2998C43.0381 14.1182 43.2783 14.0273 43.5947 14.0273C43.9053 14.0273 44.1426 14.1182 44.3066 14.2998C44.4766 14.4814 44.5615 14.7041 44.5615 14.9678C44.5615 15.2197 44.4766 15.4365 44.3066 15.6182C44.1426 15.7939 43.9053 15.8818 43.5947 15.8818C43.2783 15.8818 43.0381 15.7939 42.874 15.6182C42.7158 15.4365 42.6367 15.2197 42.6367 14.9678ZM46.5742 22.3506V22.1484C46.5742 21.4629 46.6738 20.8271 46.873 20.2412C47.0723 19.6494 47.3594 19.1367 47.7344 18.7031C48.1094 18.2637 48.5635 17.9238 49.0967 17.6836C49.6299 17.4375 50.2275 17.3145 50.8896 17.3145C51.5576 17.3145 52.1582 17.4375 52.6914 17.6836C53.2305 17.9238 53.6875 18.2637 54.0625 18.7031C54.4434 19.1367 54.7334 19.6494 54.9326 20.2412C55.1318 20.8271 55.2314 21.4629 55.2314 22.1484V22.3506C55.2314 23.0361 55.1318 23.6719 54.9326 24.2578C54.7334 24.8438 54.4434 25.3564 54.0625 25.7959C53.6875 26.2295 53.2334 26.5693 52.7002 26.8154C52.1729 27.0557 51.5752 27.1758 50.9072 27.1758C50.2393 27.1758 49.6387 27.0557 49.1055 26.8154C48.5723 26.5693 48.1152 26.2295 47.7344 25.7959C47.3594 25.3564 47.0723 24.8438 46.873 24.2578C46.6738 23.6719 46.5742 23.0361 46.5742 22.3506ZM48.2002 22.1484V22.3506C48.2002 22.8252 48.2559 23.2734 48.3672 23.6953C48.4785 24.1113 48.6455 24.4805 48.8682 24.8027C49.0967 25.125 49.3809 25.3799 49.7207 25.5674C50.0605 25.749 50.4561 25.8398 50.9072 25.8398C51.3525 25.8398 51.7422 25.749 52.0762 25.5674C52.416 25.3799 52.6973 25.125 52.9199 24.8027C53.1426 24.4805 53.3096 24.1113 53.4209 23.6953C53.5381 23.2734 53.5967 22.8252 53.5967 22.3506V22.1484C53.5967 21.6797 53.5381 21.2373 53.4209 20.8213C53.3096 20.3994 53.1396 20.0273 52.9111 19.7051C52.6885 19.377 52.4072 19.1191 52.0674 18.9316C51.7334 18.7441 51.3408 18.6504 50.8896 18.6504C50.4443 18.6504 50.0518 18.7441 49.7119 18.9316C49.3779 19.1191 49.0967 19.377 48.8682 19.7051C48.6455 20.0273 48.4785 20.3994 48.3672 20.8213C48.2559 21.2373 48.2002 21.6797 48.2002 22.1484ZM58.8965 19.5205V27H57.2705V17.4902H58.8086L58.8965 19.5205ZM58.5098 21.8848L57.833 21.8584C57.8389 21.208 57.9355 20.6074 58.123 20.0566C58.3105 19.5 58.5742 19.0166 58.9141 18.6064C59.2539 18.1963 59.6582 17.8799 60.127 17.6572C60.6016 17.4287 61.126 17.3145 61.7002 17.3145C62.1689 17.3145 62.5908 17.3789 62.9658 17.5078C63.3408 17.6309 63.6602 17.8301 63.9238 18.1055C64.1934 18.3809 64.3984 18.7383 64.5391 19.1777C64.6797 19.6113 64.75 20.1416 64.75 20.7686V27H63.1152V20.751C63.1152 20.2529 63.042 19.8545 62.8955 19.5557C62.749 19.251 62.5352 19.0312 62.2539 18.8965C61.9727 18.7559 61.627 18.6855 61.2168 18.6855C60.8125 18.6855 60.4434 18.7705 60.1094 18.9404C59.7812 19.1104 59.4971 19.3447 59.2568 19.6436C59.0225 19.9424 58.8379 20.2852 58.7031 20.6719C58.5742 21.0527 58.5098 21.457 58.5098 21.8848ZM76.4922 21.0146H73.249L73.2314 19.6523H76.1758C76.6621 19.6523 77.0869 19.5703 77.4502 19.4062C77.8135 19.2422 78.0947 19.0078 78.2939 18.7031C78.499 18.3926 78.6016 18.0234 78.6016 17.5957C78.6016 17.127 78.5107 16.7461 78.3291 16.4531C78.1533 16.1543 77.8809 15.9375 77.5117 15.8027C77.1484 15.6621 76.6855 15.5918 76.123 15.5918H73.627V27H71.9307V14.2031H76.123C76.7793 14.2031 77.3652 14.2705 77.8809 14.4053C78.3965 14.5342 78.833 14.7393 79.1904 15.0205C79.5537 15.2959 79.8291 15.6475 80.0166 16.0752C80.2041 16.5029 80.2979 17.0156 80.2979 17.6133C80.2979 18.1406 80.1631 18.6182 79.8936 19.0459C79.624 19.4678 79.249 19.8135 78.7686 20.083C78.2939 20.3525 77.7373 20.5254 77.0986 20.6016L76.4922 21.0146ZM76.4131 27H72.5811L73.5391 25.6201H76.4131C76.9521 25.6201 77.4092 25.5264 77.7842 25.3389C78.165 25.1514 78.4551 24.8877 78.6543 24.5479C78.8535 24.2021 78.9531 23.7949 78.9531 23.3262C78.9531 22.8516 78.8682 22.4414 78.6982 22.0957C78.5283 21.75 78.2617 21.4834 77.8984 21.2959C77.5352 21.1084 77.0664 21.0146 76.4922 21.0146H74.0752L74.0928 19.6523H77.3975L77.7578 20.1445C78.373 20.1973 78.8945 20.373 79.3223 20.6719C79.75 20.9648 80.0752 21.3398 80.2979 21.7969C80.5264 22.2539 80.6406 22.7578 80.6406 23.3086C80.6406 24.1055 80.4648 24.7793 80.1133 25.3301C79.7676 25.875 79.2783 26.291 78.6455 26.5781C78.0127 26.8594 77.2686 27 76.4131 27ZM92.9014 24.4775C92.9014 24.2432 92.8486 24.0264 92.7432 23.8271C92.6436 23.6221 92.4355 23.4375 92.1191 23.2734C91.8086 23.1035 91.3398 22.957 90.7129 22.834C90.1855 22.7227 89.708 22.5908 89.2803 22.4385C88.8584 22.2861 88.498 22.1016 88.1992 21.8848C87.9062 21.668 87.6807 21.4131 87.5225 21.1201C87.3643 20.8271 87.2852 20.4844 87.2852 20.0918C87.2852 19.7168 87.3672 19.3623 87.5312 19.0283C87.7012 18.6943 87.9385 18.3984 88.2432 18.1406C88.5537 17.8828 88.9258 17.6807 89.3594 17.5342C89.793 17.3877 90.2764 17.3145 90.8096 17.3145C91.5713 17.3145 92.2217 17.4492 92.7607 17.7188C93.2998 17.9883 93.7129 18.3486 94 18.7998C94.2871 19.2451 94.4307 19.7402 94.4307 20.2852H92.8047C92.8047 20.0215 92.7256 19.7666 92.5674 19.5205C92.415 19.2686 92.1895 19.0605 91.8906 18.8965C91.5977 18.7324 91.2373 18.6504 90.8096 18.6504C90.3584 18.6504 89.9922 18.7207 89.7109 18.8613C89.4355 18.9961 89.2334 19.1689 89.1045 19.3799C88.9814 19.5908 88.9199 19.8135 88.9199 20.0479C88.9199 20.2236 88.9492 20.3818 89.0078 20.5225C89.0723 20.6572 89.1836 20.7832 89.3418 20.9004C89.5 21.0117 89.7227 21.1172 90.0098 21.2168C90.2969 21.3164 90.6631 21.416 91.1084 21.5156C91.8877 21.6914 92.5293 21.9023 93.0332 22.1484C93.5371 22.3945 93.9121 22.6963 94.1582 23.0537C94.4043 23.4111 94.5273 23.8447 94.5273 24.3545C94.5273 24.7705 94.4395 25.1514 94.2637 25.4971C94.0938 25.8428 93.8447 26.1416 93.5166 26.3936C93.1943 26.6396 92.8076 26.833 92.3564 26.9736C91.9111 27.1084 91.4102 27.1758 90.8535 27.1758C90.0156 27.1758 89.3066 27.0264 88.7266 26.7275C88.1465 26.4287 87.707 26.042 87.4082 25.5674C87.1094 25.0928 86.96 24.5918 86.96 24.0645H88.5947C88.6182 24.5098 88.7471 24.8643 88.9814 25.1279C89.2158 25.3857 89.5029 25.5703 89.8428 25.6816C90.1826 25.7871 90.5195 25.8398 90.8535 25.8398C91.2988 25.8398 91.6709 25.7812 91.9697 25.6641C92.2744 25.5469 92.5059 25.3857 92.6641 25.1807C92.8223 24.9756 92.9014 24.7412 92.9014 24.4775ZM100.609 27.1758C99.9473 27.1758 99.3467 27.0645 98.8076 26.8418C98.2744 26.6133 97.8145 26.2939 97.4277 25.8838C97.0469 25.4736 96.7539 24.9873 96.5488 24.4248C96.3438 23.8623 96.2412 23.2471 96.2412 22.5791V22.21C96.2412 21.4365 96.3555 20.748 96.584 20.1445C96.8125 19.5352 97.123 19.0195 97.5156 18.5977C97.9082 18.1758 98.3535 17.8564 98.8516 17.6396C99.3496 17.4229 99.8652 17.3145 100.398 17.3145C101.078 17.3145 101.664 17.4316 102.156 17.666C102.654 17.9004 103.062 18.2285 103.378 18.6504C103.694 19.0664 103.929 19.5586 104.081 20.127C104.233 20.6895 104.31 21.3047 104.31 21.9727V22.7021H97.208V21.375H102.684V21.252C102.66 20.8301 102.572 20.4199 102.42 20.0215C102.273 19.623 102.039 19.2949 101.717 19.0371C101.395 18.7793 100.955 18.6504 100.398 18.6504C100.029 18.6504 99.6895 18.7295 99.3789 18.8877C99.0684 19.04 98.8018 19.2686 98.5791 19.5732C98.3564 19.8779 98.1836 20.25 98.0605 20.6895C97.9375 21.1289 97.876 21.6357 97.876 22.21V22.5791C97.876 23.0303 97.9375 23.4551 98.0605 23.8535C98.1895 24.2461 98.374 24.5918 98.6143 24.8906C98.8604 25.1895 99.1562 25.4238 99.502 25.5938C99.8535 25.7637 100.252 25.8486 100.697 25.8486C101.271 25.8486 101.758 25.7314 102.156 25.4971C102.555 25.2627 102.903 24.9492 103.202 24.5566L104.187 25.3389C103.981 25.6494 103.721 25.9453 103.404 26.2266C103.088 26.5078 102.698 26.7363 102.235 26.9121C101.778 27.0879 101.236 27.1758 100.609 27.1758ZM107.975 13.5V27H106.34V13.5H107.975ZM114.531 27.1758C113.869 27.1758 113.269 27.0645 112.729 26.8418C112.196 26.6133 111.736 26.2939 111.35 25.8838C110.969 25.4736 110.676 24.9873 110.471 24.4248C110.266 23.8623 110.163 23.2471 110.163 22.5791V22.21C110.163 21.4365 110.277 20.748 110.506 20.1445C110.734 19.5352 111.045 19.0195 111.438 18.5977C111.83 18.1758 112.275 17.8564 112.773 17.6396C113.271 17.4229 113.787 17.3145 114.32 17.3145C115 17.3145 115.586 17.4316 116.078 17.666C116.576 17.9004 116.983 18.2285 117.3 18.6504C117.616 19.0664 117.851 19.5586 118.003 20.127C118.155 20.6895 118.231 21.3047 118.231 21.9727V22.7021H111.13V21.375H116.605V21.252C116.582 20.8301 116.494 20.4199 116.342 20.0215C116.195 19.623 115.961 19.2949 115.639 19.0371C115.316 18.7793 114.877 18.6504 114.32 18.6504C113.951 18.6504 113.611 18.7295 113.301 18.8877C112.99 19.04 112.724 19.2686 112.501 19.5732C112.278 19.8779 112.105 20.25 111.982 20.6895C111.859 21.1289 111.798 21.6357 111.798 22.21V22.5791C111.798 23.0303 111.859 23.4551 111.982 23.8535C112.111 24.2461 112.296 24.5918 112.536 24.8906C112.782 25.1895 113.078 25.4238 113.424 25.5938C113.775 25.7637 114.174 25.8486 114.619 25.8486C115.193 25.8486 115.68 25.7314 116.078 25.4971C116.477 25.2627 116.825 24.9492 117.124 24.5566L118.108 25.3389C117.903 25.6494 117.643 25.9453 117.326 26.2266C117.01 26.5078 116.62 26.7363 116.157 26.9121C115.7 27.0879 115.158 27.1758 114.531 27.1758ZM123.936 25.8398C124.322 25.8398 124.68 25.7607 125.008 25.6025C125.336 25.4443 125.605 25.2275 125.816 24.9521C126.027 24.6709 126.147 24.3516 126.177 23.9941H127.724C127.694 24.5566 127.504 25.0811 127.152 25.5674C126.807 26.0479 126.353 26.4375 125.79 26.7363C125.228 27.0293 124.609 27.1758 123.936 27.1758C123.221 27.1758 122.597 27.0498 122.063 26.7979C121.536 26.5459 121.097 26.2002 120.745 25.7607C120.399 25.3213 120.139 24.8174 119.963 24.249C119.793 23.6748 119.708 23.0684 119.708 22.4297V22.0605C119.708 21.4219 119.793 20.8184 119.963 20.25C120.139 19.6758 120.399 19.1689 120.745 18.7295C121.097 18.29 121.536 17.9443 122.063 17.6924C122.597 17.4404 123.221 17.3145 123.936 17.3145C124.68 17.3145 125.33 17.4668 125.887 17.7715C126.443 18.0703 126.88 18.4805 127.196 19.002C127.519 19.5176 127.694 20.1035 127.724 20.7598H126.177C126.147 20.3672 126.036 20.0127 125.843 19.6963C125.655 19.3799 125.397 19.1279 125.069 18.9404C124.747 18.7471 124.369 18.6504 123.936 18.6504C123.438 18.6504 123.019 18.75 122.679 18.9492C122.345 19.1426 122.078 19.4062 121.879 19.7402C121.686 20.0684 121.545 20.4346 121.457 20.8389C121.375 21.2373 121.334 21.6445 121.334 22.0605V22.4297C121.334 22.8457 121.375 23.2559 121.457 23.6602C121.539 24.0645 121.677 24.4307 121.87 24.7588C122.069 25.0869 122.336 25.3506 122.67 25.5498C123.01 25.7432 123.432 25.8398 123.936 25.8398ZM133.533 17.4902V18.7383H128.392V17.4902H133.533ZM130.132 15.1787H131.758V24.6445C131.758 24.9668 131.808 25.21 131.907 25.374C132.007 25.5381 132.136 25.6465 132.294 25.6992C132.452 25.752 132.622 25.7783 132.804 25.7783C132.938 25.7783 133.079 25.7666 133.226 25.7432C133.378 25.7139 133.492 25.6904 133.568 25.6729L133.577 27C133.448 27.041 133.278 27.0791 133.067 27.1143C132.862 27.1553 132.613 27.1758 132.32 27.1758C131.922 27.1758 131.556 27.0967 131.222 26.9385C130.888 26.7803 130.621 26.5166 130.422 26.1475C130.229 25.7725 130.132 25.2686 130.132 24.6357V15.1787ZM139.387 27.1758C138.725 27.1758 138.124 27.0645 137.585 26.8418C137.052 26.6133 136.592 26.2939 136.205 25.8838C135.824 25.4736 135.531 24.9873 135.326 24.4248C135.121 23.8623 135.019 23.2471 135.019 22.5791V22.21C135.019 21.4365 135.133 20.748 135.361 20.1445C135.59 19.5352 135.9 19.0195 136.293 18.5977C136.686 18.1758 137.131 17.8564 137.629 17.6396C138.127 17.4229 138.643 17.3145 139.176 17.3145C139.855 17.3145 140.441 17.4316 140.934 17.666C141.432 17.9004 141.839 18.2285 142.155 18.6504C142.472 19.0664 142.706 19.5586 142.858 20.127C143.011 20.6895 143.087 21.3047 143.087 21.9727V22.7021H135.985V21.375H141.461V21.252C141.438 20.8301 141.35 20.4199 141.197 20.0215C141.051 19.623 140.816 19.2949 140.494 19.0371C140.172 18.7793 139.732 18.6504 139.176 18.6504C138.807 18.6504 138.467 18.7295 138.156 18.8877C137.846 19.04 137.579 19.2686 137.356 19.5732C137.134 19.8779 136.961 20.25 136.838 20.6895C136.715 21.1289 136.653 21.6357 136.653 22.21V22.5791C136.653 23.0303 136.715 23.4551 136.838 23.8535C136.967 24.2461 137.151 24.5918 137.392 24.8906C137.638 25.1895 137.934 25.4238 138.279 25.5938C138.631 25.7637 139.029 25.8486 139.475 25.8486C140.049 25.8486 140.535 25.7314 140.934 25.4971C141.332 25.2627 141.681 24.9492 141.979 24.5566L142.964 25.3389C142.759 25.6494 142.498 25.9453 142.182 26.2266C141.865 26.5078 141.476 26.7363 141.013 26.9121C140.556 27.0879 140.014 27.1758 139.387 27.1758ZM150.979 25.1543V13.5H152.614V27H151.12L150.979 25.1543ZM144.581 22.3506V22.166C144.581 21.4395 144.669 20.7803 144.845 20.1885C145.026 19.5908 145.281 19.0781 145.609 18.6504C145.943 18.2227 146.339 17.8945 146.796 17.666C147.259 17.4316 147.774 17.3145 148.343 17.3145C148.94 17.3145 149.462 17.4199 149.907 17.6309C150.358 17.8359 150.739 18.1377 151.05 18.5361C151.366 18.9287 151.615 19.4033 151.797 19.96C151.979 20.5166 152.104 21.1465 152.175 21.8496V22.6582C152.11 23.3555 151.984 23.9824 151.797 24.5391C151.615 25.0957 151.366 25.5703 151.05 25.9629C150.739 26.3555 150.358 26.6572 149.907 26.8682C149.456 27.0732 148.929 27.1758 148.325 27.1758C147.769 27.1758 147.259 27.0557 146.796 26.8154C146.339 26.5752 145.943 26.2383 145.609 25.8047C145.281 25.3711 145.026 24.8613 144.845 24.2754C144.669 23.6836 144.581 23.042 144.581 22.3506ZM146.216 22.166V22.3506C146.216 22.8252 146.263 23.2705 146.356 23.6865C146.456 24.1025 146.608 24.4688 146.813 24.7852C147.019 25.1016 147.279 25.3506 147.596 25.5322C147.912 25.708 148.29 25.7959 148.729 25.7959C149.269 25.7959 149.711 25.6816 150.057 25.4531C150.408 25.2246 150.689 24.9229 150.9 24.5479C151.111 24.1729 151.275 23.7656 151.393 23.3262V21.208C151.322 20.8857 151.22 20.5752 151.085 20.2764C150.956 19.9717 150.786 19.7021 150.575 19.4678C150.37 19.2275 150.115 19.0371 149.811 18.8965C149.512 18.7559 149.157 18.6855 148.747 18.6855C148.302 18.6855 147.918 18.7793 147.596 18.9668C147.279 19.1484 147.019 19.4004 146.813 19.7227C146.608 20.0391 146.456 20.4082 146.356 20.8301C146.263 21.2461 146.216 21.6914 146.216 22.166Z" fill="#1D1D1B"/>
<path d="M300.293 16.7071C299.902 16.3166 299.902 15.6834 300.293 15.2929C300.683 14.9024 301.317 14.9024 301.707 15.2929L312 25.5858L322.293 15.2929C322.683 14.9024 323.317 14.9024 323.707 15.2929C324.098 15.6834 324.098 16.3166 323.707 16.7071L312.707 27.7071C312.658 27.7559 312.606 27.7986 312.55 27.8352C312.162 28.0915 311.635 28.0488 311.293 27.7071L300.293 16.7071Z" fill="#F0EFEB"/>
</svg>
