<svg width="336" height="40" viewBox="0 0 336 40" fill="none" xmlns="http://www.w3.org/2000/svg">
<rect x="335" y="1" width="38" height="334" rx="5" transform="rotate(90 335 1)" fill="#15304A" stroke="#387DC5" stroke-width="2"/>
<path d="M151.494 21.9814H148.075V20.6016H151.494C152.156 20.6016 152.692 20.4961 153.103 20.2852C153.513 20.0742 153.812 19.7812 153.999 19.4062C154.192 19.0312 154.289 18.6035 154.289 18.123C154.289 17.6836 154.192 17.2705 153.999 16.8838C153.812 16.4971 153.513 16.1865 153.103 15.9521C152.692 15.7119 152.156 15.5918 151.494 15.5918H148.471V27H146.774V14.2031H151.494C152.461 14.2031 153.278 14.3701 153.946 14.7041C154.614 15.0381 155.121 15.501 155.467 16.0928C155.812 16.6787 155.985 17.3496 155.985 18.1055C155.985 18.9258 155.812 19.626 155.467 20.2061C155.121 20.7861 154.614 21.2285 153.946 21.5332C153.278 21.832 152.461 21.9814 151.494 21.9814ZM159.51 18.9844V27H157.884V17.4902H159.466L159.51 18.9844ZM162.48 17.4375L162.472 18.9492C162.337 18.9199 162.208 18.9023 162.085 18.8965C161.968 18.8848 161.833 18.8789 161.681 18.8789C161.306 18.8789 160.975 18.9375 160.688 19.0547C160.4 19.1719 160.157 19.3359 159.958 19.5469C159.759 19.7578 159.601 20.0098 159.483 20.3027C159.372 20.5898 159.299 20.9062 159.264 21.252L158.807 21.5156C158.807 20.9414 158.862 20.4023 158.974 19.8984C159.091 19.3945 159.27 18.9492 159.51 18.5625C159.75 18.1699 160.055 17.8652 160.424 17.6484C160.799 17.4258 161.244 17.3145 161.76 17.3145C161.877 17.3145 162.012 17.3291 162.164 17.3584C162.316 17.3818 162.422 17.4082 162.48 17.4375ZM167.754 27.1758C167.092 27.1758 166.491 27.0645 165.952 26.8418C165.419 26.6133 164.959 26.2939 164.572 25.8838C164.191 25.4736 163.898 24.9873 163.693 24.4248C163.488 23.8623 163.386 23.2471 163.386 22.5791V22.21C163.386 21.4365 163.5 20.748 163.729 20.1445C163.957 19.5352 164.268 19.0195 164.66 18.5977C165.053 18.1758 165.498 17.8564 165.996 17.6396C166.494 17.4229 167.01 17.3145 167.543 17.3145C168.223 17.3145 168.809 17.4316 169.301 17.666C169.799 17.9004 170.206 18.2285 170.522 18.6504C170.839 19.0664 171.073 19.5586 171.226 20.127C171.378 20.6895 171.454 21.3047 171.454 21.9727V22.7021H164.353V21.375H169.828V21.252C169.805 20.8301 169.717 20.4199 169.564 20.0215C169.418 19.623 169.184 19.2949 168.861 19.0371C168.539 18.7793 168.1 18.6504 167.543 18.6504C167.174 18.6504 166.834 18.7295 166.523 18.8877C166.213 19.04 165.946 19.2686 165.724 19.5732C165.501 19.8779 165.328 20.25 165.205 20.6895C165.082 21.1289 165.021 21.6357 165.021 22.21V22.5791C165.021 23.0303 165.082 23.4551 165.205 23.8535C165.334 24.2461 165.519 24.5918 165.759 24.8906C166.005 25.1895 166.301 25.4238 166.646 25.5938C166.998 25.7637 167.396 25.8486 167.842 25.8486C168.416 25.8486 168.902 25.7314 169.301 25.4971C169.699 25.2627 170.048 24.9492 170.347 24.5566L171.331 25.3389C171.126 25.6494 170.865 25.9453 170.549 26.2266C170.232 26.5078 169.843 26.7363 169.38 26.9121C168.923 27.0879 168.381 27.1758 167.754 27.1758ZM178.89 24.4775C178.89 24.2432 178.837 24.0264 178.731 23.8271C178.632 23.6221 178.424 23.4375 178.107 23.2734C177.797 23.1035 177.328 22.957 176.701 22.834C176.174 22.7227 175.696 22.5908 175.269 22.4385C174.847 22.2861 174.486 22.1016 174.188 21.8848C173.895 21.668 173.669 21.4131 173.511 21.1201C173.353 20.8271 173.273 20.4844 173.273 20.0918C173.273 19.7168 173.355 19.3623 173.52 19.0283C173.689 18.6943 173.927 18.3984 174.231 18.1406C174.542 17.8828 174.914 17.6807 175.348 17.5342C175.781 17.3877 176.265 17.3145 176.798 17.3145C177.56 17.3145 178.21 17.4492 178.749 17.7188C179.288 17.9883 179.701 18.3486 179.988 18.7998C180.275 19.2451 180.419 19.7402 180.419 20.2852H178.793C178.793 20.0215 178.714 19.7666 178.556 19.5205C178.403 19.2686 178.178 19.0605 177.879 18.8965C177.586 18.7324 177.226 18.6504 176.798 18.6504C176.347 18.6504 175.98 18.7207 175.699 18.8613C175.424 18.9961 175.222 19.1689 175.093 19.3799C174.97 19.5908 174.908 19.8135 174.908 20.0479C174.908 20.2236 174.938 20.3818 174.996 20.5225C175.061 20.6572 175.172 20.7832 175.33 20.9004C175.488 21.0117 175.711 21.1172 175.998 21.2168C176.285 21.3164 176.651 21.416 177.097 21.5156C177.876 21.6914 178.518 21.9023 179.021 22.1484C179.525 22.3945 179.9 22.6963 180.146 23.0537C180.393 23.4111 180.516 23.8447 180.516 24.3545C180.516 24.7705 180.428 25.1514 180.252 25.4971C180.082 25.8428 179.833 26.1416 179.505 26.3936C179.183 26.6396 178.796 26.833 178.345 26.9736C177.899 27.1084 177.398 27.1758 176.842 27.1758C176.004 27.1758 175.295 27.0264 174.715 26.7275C174.135 26.4287 173.695 26.042 173.396 25.5674C173.098 25.0928 172.948 24.5918 172.948 24.0645H174.583C174.606 24.5098 174.735 24.8643 174.97 25.1279C175.204 25.3857 175.491 25.5703 175.831 25.6816C176.171 25.7871 176.508 25.8398 176.842 25.8398C177.287 25.8398 177.659 25.7812 177.958 25.6641C178.263 25.5469 178.494 25.3857 178.652 25.1807C178.811 24.9756 178.89 24.7412 178.89 24.4775ZM188.188 24.4775C188.188 24.2432 188.136 24.0264 188.03 23.8271C187.931 23.6221 187.723 23.4375 187.406 23.2734C187.096 23.1035 186.627 22.957 186 22.834C185.473 22.7227 184.995 22.5908 184.567 22.4385C184.146 22.2861 183.785 22.1016 183.486 21.8848C183.193 21.668 182.968 21.4131 182.81 21.1201C182.651 20.8271 182.572 20.4844 182.572 20.0918C182.572 19.7168 182.654 19.3623 182.818 19.0283C182.988 18.6943 183.226 18.3984 183.53 18.1406C183.841 17.8828 184.213 17.6807 184.646 17.5342C185.08 17.3877 185.563 17.3145 186.097 17.3145C186.858 17.3145 187.509 17.4492 188.048 17.7188C188.587 17.9883 189 18.3486 189.287 18.7998C189.574 19.2451 189.718 19.7402 189.718 20.2852H188.092C188.092 20.0215 188.013 19.7666 187.854 19.5205C187.702 19.2686 187.477 19.0605 187.178 18.8965C186.885 18.7324 186.524 18.6504 186.097 18.6504C185.646 18.6504 185.279 18.7207 184.998 18.8613C184.723 18.9961 184.521 19.1689 184.392 19.3799C184.269 19.5908 184.207 19.8135 184.207 20.0479C184.207 20.2236 184.236 20.3818 184.295 20.5225C184.359 20.6572 184.471 20.7832 184.629 20.9004C184.787 21.0117 185.01 21.1172 185.297 21.2168C185.584 21.3164 185.95 21.416 186.396 21.5156C187.175 21.6914 187.816 21.9023 188.32 22.1484C188.824 22.3945 189.199 22.6963 189.445 23.0537C189.691 23.4111 189.814 23.8447 189.814 24.3545C189.814 24.7705 189.727 25.1514 189.551 25.4971C189.381 25.8428 189.132 26.1416 188.804 26.3936C188.481 26.6396 188.095 26.833 187.644 26.9736C187.198 27.1084 186.697 27.1758 186.141 27.1758C185.303 27.1758 184.594 27.0264 184.014 26.7275C183.434 26.4287 182.994 26.042 182.695 25.5674C182.396 25.0928 182.247 24.5918 182.247 24.0645H183.882C183.905 24.5098 184.034 24.8643 184.269 25.1279C184.503 25.3857 184.79 25.5703 185.13 25.6816C185.47 25.7871 185.807 25.8398 186.141 25.8398C186.586 25.8398 186.958 25.7812 187.257 25.6641C187.562 25.5469 187.793 25.3857 187.951 25.1807C188.109 24.9756 188.188 24.7412 188.188 24.4775Z" fill="#FAF9F5"/>
</svg>
