<svg width="336" height="40" viewBox="0 0 336 40" fill="none" xmlns="http://www.w3.org/2000/svg">
<path d="M9.59961 1C7.90316 1 6.69051 1.00048 5.74023 1.07812C4.80201 1.15481 4.20761 1.30188 3.73047 1.54492C2.78966 2.02429 2.02429 2.78966 1.54492 3.73047C1.30188 4.20761 1.15481 4.80201 1.07812 5.74023C1.00048 6.69051 1 7.90316 1 9.59961V30.4004C1 32.0968 1.00048 33.3095 1.07812 34.2598C1.15481 35.198 1.30188 35.7924 1.54492 36.2695C2.02429 37.2103 2.78966 37.9757 3.73047 38.4551C4.20761 38.6981 4.80201 38.8452 5.74023 38.9219C6.69051 38.9995 7.90316 39 9.59961 39H79V1H9.59961Z" fill="#BBCEE0"/>
<path d="M9.59961 1C7.90316 1 6.69051 1.00048 5.74023 1.07812C4.80201 1.15481 4.20761 1.30188 3.73047 1.54492C2.78966 2.02429 2.02429 2.78966 1.54492 3.73047C1.30188 4.20761 1.15481 4.80201 1.07812 5.74023C1.00048 6.69051 1 7.90316 1 9.59961V30.4004C1 32.0968 1.00048 33.3095 1.07812 34.2598C1.15481 35.198 1.30188 35.7924 1.54492 36.2695C2.02429 37.2103 2.78966 37.9757 3.73047 38.4551C4.20761 38.6981 4.80201 38.8452 5.74023 38.9219C6.69051 38.9995 7.90316 39 9.59961 39H79V1H9.59961Z" stroke="#387DC5" stroke-width="2"/>
<rect x="32" y="19" width="16" height="2" rx="1" fill="white"/>
<mask id="path-3-inside-1_15790_236210" fill="white">
<path d="M256 0H80V40H256V0Z"/>
</mask>
<path d="M256 0H80V40H256V0Z" fill="#F0EFEB"/>
<path d="M256 0V2H80V0V-2H256V0ZM80 40V38H256V40V42H80V40Z" fill="#387DC5" mask="url(#path-3-inside-1_15790_236210)"/>
<path d="M148.213 26.3672V28H137.976V26.5713L143.1 20.8672C143.73 20.1654 144.217 19.571 144.561 19.084C144.911 18.5898 145.155 18.1494 145.291 17.7627C145.434 17.3688 145.506 16.9678 145.506 16.5596C145.506 16.0439 145.398 15.5785 145.184 15.1631C144.976 14.7406 144.668 14.404 144.26 14.1533C143.852 13.9027 143.357 13.7773 142.777 13.7773C142.083 13.7773 141.503 13.9134 141.037 14.1855C140.579 14.4505 140.235 14.8229 140.006 15.3027C139.777 15.7826 139.662 16.334 139.662 16.957H137.675C137.675 16.0762 137.868 15.2705 138.255 14.54C138.642 13.8096 139.215 13.2295 139.974 12.7998C140.733 12.363 141.667 12.1445 142.777 12.1445C143.766 12.1445 144.611 12.32 145.312 12.6709C146.014 13.0146 146.551 13.5016 146.924 14.1318C147.303 14.7549 147.493 15.4854 147.493 16.3232C147.493 16.7816 147.414 17.2471 147.257 17.7197C147.106 18.1852 146.895 18.6507 146.623 19.1162C146.358 19.5817 146.047 20.04 145.688 20.4912C145.338 20.9424 144.962 21.3864 144.561 21.8232L140.371 26.3672H148.213ZM155.969 12.2734V28H153.981V14.7549L149.975 16.2158V14.4219L155.657 12.2734H155.969ZM160.147 26.9473C160.147 26.6107 160.251 26.3278 160.459 26.0986C160.674 25.8623 160.982 25.7441 161.383 25.7441C161.784 25.7441 162.088 25.8623 162.296 26.0986C162.511 26.3278 162.618 26.6107 162.618 26.9473C162.618 27.2767 162.511 27.556 162.296 27.7852C162.088 28.0143 161.784 28.1289 161.383 28.1289C160.982 28.1289 160.674 28.0143 160.459 27.7852C160.251 27.556 160.147 27.2767 160.147 26.9473ZM168.215 20.5557L166.625 20.1475L167.409 12.3594H175.434V14.1963H169.096L168.623 18.4502C168.91 18.2855 169.271 18.1315 169.708 17.9883C170.152 17.8451 170.66 17.7734 171.233 17.7734C171.957 17.7734 172.605 17.8988 173.178 18.1494C173.751 18.3929 174.238 18.7438 174.639 19.2021C175.047 19.6605 175.358 20.2119 175.573 20.8564C175.788 21.501 175.896 22.2207 175.896 23.0156C175.896 23.7676 175.792 24.4587 175.584 25.0889C175.383 25.7191 175.079 26.2705 174.671 26.7432C174.263 27.2087 173.747 27.5703 173.124 27.8281C172.508 28.0859 171.781 28.2148 170.943 28.2148C170.313 28.2148 169.715 28.1289 169.149 27.957C168.591 27.778 168.09 27.5094 167.646 27.1514C167.209 26.7861 166.851 26.335 166.571 25.7979C166.299 25.2536 166.127 24.6162 166.056 23.8857H167.946C168.032 24.473 168.204 24.9671 168.462 25.3682C168.72 25.7692 169.056 26.0736 169.472 26.2812C169.894 26.4818 170.385 26.582 170.943 26.582C171.416 26.582 171.835 26.4997 172.2 26.335C172.565 26.1702 172.873 25.9339 173.124 25.626C173.375 25.318 173.564 24.9456 173.693 24.5088C173.829 24.0719 173.897 23.5814 173.897 23.0371C173.897 22.543 173.829 22.0846 173.693 21.6621C173.557 21.2396 173.353 20.8708 173.081 20.5557C172.816 20.2406 172.49 19.9971 172.104 19.8252C171.717 19.6462 171.273 19.5566 170.771 19.5566C170.105 19.5566 169.601 19.6462 169.257 19.8252C168.92 20.0042 168.573 20.2477 168.215 20.5557ZM178.184 14.9268C178.184 14.4183 178.309 13.9528 178.56 13.5303C178.81 13.1077 179.143 12.7712 179.559 12.5205C179.974 12.2627 180.429 12.1338 180.923 12.1338C181.417 12.1338 181.868 12.2627 182.276 12.5205C182.685 12.7712 183.01 13.1077 183.254 13.5303C183.497 13.9528 183.619 14.4183 183.619 14.9268C183.619 15.4352 183.497 15.9007 183.254 16.3232C183.01 16.7386 182.685 17.0716 182.276 17.3223C181.868 17.5658 181.417 17.6875 180.923 17.6875C180.429 17.6875 179.974 17.5658 179.559 17.3223C179.143 17.0716 178.81 16.7386 178.56 16.3232C178.309 15.9007 178.184 15.4352 178.184 14.9268ZM179.516 14.9268C179.516 15.3206 179.652 15.6501 179.924 15.915C180.203 16.18 180.536 16.3125 180.923 16.3125C181.31 16.3125 181.632 16.18 181.89 15.915C182.155 15.6501 182.287 15.3206 182.287 14.9268C182.287 14.5257 182.155 14.1891 181.89 13.917C181.632 13.6449 181.31 13.5088 180.923 13.5088C180.536 13.5088 180.203 13.6449 179.924 13.917C179.652 14.1891 179.516 14.5257 179.516 14.9268ZM196.263 23.0264H198.325C198.218 24.0146 197.935 24.8991 197.477 25.6797C197.018 26.4603 196.37 27.0798 195.532 27.5381C194.694 27.9893 193.649 28.2148 192.396 28.2148C191.479 28.2148 190.645 28.043 189.893 27.6992C189.148 27.3555 188.507 26.8685 187.97 26.2383C187.433 25.6009 187.017 24.8382 186.724 23.9502C186.437 23.055 186.294 22.0596 186.294 20.9639V19.4062C186.294 18.3105 186.437 17.3187 186.724 16.4307C187.017 15.5355 187.436 14.7692 187.98 14.1318C188.532 13.4945 189.194 13.0039 189.968 12.6602C190.741 12.3164 191.611 12.1445 192.578 12.1445C193.76 12.1445 194.759 12.3665 195.575 12.8105C196.392 13.2546 197.025 13.8704 197.477 14.6582C197.935 15.4388 198.218 16.3447 198.325 17.376H196.263C196.162 16.6455 195.976 16.0189 195.704 15.4961C195.432 14.9661 195.045 14.5579 194.544 14.2715C194.043 13.985 193.387 13.8418 192.578 13.8418C191.883 13.8418 191.271 13.9743 190.741 14.2393C190.218 14.5042 189.778 14.8802 189.42 15.3672C189.069 15.8542 188.804 16.4378 188.625 17.1182C188.446 17.7985 188.356 18.554 188.356 19.3848V20.9639C188.356 21.7301 188.435 22.4499 188.593 23.123C188.757 23.7962 189.005 24.387 189.334 24.8955C189.663 25.404 190.082 25.805 190.591 26.0986C191.099 26.3851 191.701 26.5283 192.396 26.5283C193.276 26.5283 193.978 26.3887 194.501 26.1094C195.024 25.8301 195.418 25.429 195.683 24.9062C195.955 24.3835 196.148 23.7568 196.263 23.0264Z" fill="#272622"/>
<path d="M326.4 1H257V39H326.4C328.097 39 329.309 38.9995 330.26 38.9219C331.198 38.8452 331.792 38.6981 332.27 38.4551C333.21 37.9757 333.976 37.2103 334.455 36.2695C334.698 35.7924 334.845 35.198 334.922 34.2598C335 33.3095 335 32.0968 335 30.4004V9.59961C335 7.90316 335 6.69051 334.922 5.74023C334.845 4.80201 334.698 4.20761 334.455 3.73047C333.976 2.78966 333.21 2.02429 332.27 1.54492C331.792 1.30188 331.198 1.15481 330.26 1.07812C329.309 1.00048 328.097 1 326.4 1Z" fill="#BBCEE0"/>
<path d="M326.4 1H257V39H326.4C328.097 39 329.309 38.9995 330.26 38.9219C331.198 38.8452 331.792 38.6981 332.27 38.4551C333.21 37.9757 333.976 37.2103 334.455 36.2695C334.698 35.7924 334.845 35.198 334.922 34.2598C335 33.3095 335 32.0968 335 30.4004V9.59961C335 7.90316 335 6.69051 334.922 5.74023C334.845 4.80201 334.698 4.20761 334.455 3.73047C333.976 2.78966 333.21 2.02429 332.27 1.54492C331.792 1.30188 331.198 1.15481 330.26 1.07812C329.309 1.00048 328.097 1 326.4 1Z" stroke="#387DC5" stroke-width="2"/>
<path d="M295 21V27C295 27.5523 295.448 28 296 28C296.552 28 297 27.5523 297 27V21H303C303.552 21 304 20.5523 304 20C304 19.4477 303.552 19 303 19H297V13C297 12.4477 296.552 12 296 12C295.448 12 295 12.4477 295 13V19H289C288.448 19 288 19.4477 288 20C288 20.5523 288.448 21 289 21H295Z" fill="white"/>
</svg>
