<svg width="336" height="40" viewBox="0 0 336 40" fill="none" xmlns="http://www.w3.org/2000/svg">
<rect x="336" width="40" height="336" rx="6" transform="rotate(90 336 0)" fill="#15304A"/>
<rect x="335" y="1" width="38" height="334" rx="5" transform="rotate(90 335 1)" stroke="#387DC5" stroke-width="2"/>
<path d="M24.167 19.1973V20.0059C24.167 20.9668 24.0469 21.8281 23.8066 22.5898C23.5664 23.3516 23.2207 23.999 22.7695 24.5322C22.3184 25.0654 21.7764 25.4727 21.1436 25.7539C20.5166 26.0352 19.8135 26.1758 19.0342 26.1758C18.2783 26.1758 17.584 26.0352 16.9512 25.7539C16.3242 25.4727 15.7793 25.0654 15.3164 24.5322C14.8594 23.999 14.5049 23.3516 14.2529 22.5898C14.001 21.8281 13.875 20.9668 13.875 20.0059V19.1973C13.875 18.2363 13.998 17.3779 14.2441 16.6221C14.4961 15.8604 14.8506 15.2129 15.3076 14.6797C15.7646 14.1406 16.3066 13.7305 16.9336 13.4492C17.5664 13.168 18.2607 13.0273 19.0166 13.0273C19.7959 13.0273 20.499 13.168 21.126 13.4492C21.7588 13.7305 22.3008 14.1406 22.752 14.6797C23.209 15.2129 23.5576 15.8604 23.7979 16.6221C24.0439 17.3779 24.167 18.2363 24.167 19.1973ZM22.4883 20.0059V19.1797C22.4883 18.418 22.4092 17.7441 22.251 17.1582C22.0986 16.5723 21.873 16.0801 21.5742 15.6816C21.2754 15.2832 20.9092 14.9814 20.4756 14.7764C20.0479 14.5713 19.5615 14.4688 19.0166 14.4688C18.4893 14.4688 18.0117 14.5713 17.584 14.7764C17.1621 14.9814 16.7988 15.2832 16.4941 15.6816C16.1953 16.0801 15.9639 16.5723 15.7998 17.1582C15.6357 17.7441 15.5537 18.418 15.5537 19.1797V20.0059C15.5537 20.7734 15.6357 21.4531 15.7998 22.0449C15.9639 22.6309 16.1982 23.126 16.5029 23.5303C16.8135 23.9287 17.1797 24.2305 17.6016 24.4355C18.0293 24.6406 18.5068 24.7432 19.0342 24.7432C19.585 24.7432 20.0742 24.6406 20.502 24.4355C20.9297 24.2305 21.29 23.9287 21.583 23.5303C21.8818 23.126 22.1074 22.6309 22.2598 22.0449C22.4121 21.4531 22.4883 20.7734 22.4883 20.0059ZM28.0869 18.5205V26H26.4609V16.4902H27.999L28.0869 18.5205ZM27.7002 20.8848L27.0234 20.8584C27.0293 20.208 27.126 19.6074 27.3135 19.0566C27.501 18.5 27.7646 18.0166 28.1045 17.6064C28.4443 17.1963 28.8486 16.8799 29.3174 16.6572C29.792 16.4287 30.3164 16.3145 30.8906 16.3145C31.3594 16.3145 31.7812 16.3789 32.1562 16.5078C32.5312 16.6309 32.8506 16.8301 33.1143 17.1055C33.3838 17.3809 33.5889 17.7383 33.7295 18.1777C33.8701 18.6113 33.9404 19.1416 33.9404 19.7686V26H32.3057V19.751C32.3057 19.2529 32.2324 18.8545 32.0859 18.5557C31.9395 18.251 31.7256 18.0312 31.4443 17.8965C31.1631 17.7559 30.8174 17.6855 30.4072 17.6855C30.0029 17.6855 29.6338 17.7705 29.2998 17.9404C28.9717 18.1104 28.6875 18.3447 28.4473 18.6436C28.2129 18.9424 28.0283 19.2852 27.8936 19.6719C27.7646 20.0527 27.7002 20.457 27.7002 20.8848Z" fill="#FAF9F5"/>
<path d="M50 33.125C50 33.6082 49.5523 34 49 34C48.4477 34 48 33.6082 48 33.125L48 6.875C48 6.39175 48.4477 6 49 6C49.5523 6 50 6.39175 50 6.875L50 33.125Z" fill="white" fill-opacity="0.3"/>
<path d="M80.3574 13.1328V26H78.7314V15.1631L75.4531 16.3584V14.8906L80.1025 13.1328H80.3574Z" fill="#FAF9F5"/>
<rect width="57.2" height="40" transform="translate(107.2)" fill="#387DC5"/>
<path d="M140.186 24.6641V26H131.81V24.8311L136.002 20.1641C136.518 19.5898 136.916 19.1035 137.197 18.7051C137.484 18.3008 137.684 17.9404 137.795 17.624C137.912 17.3018 137.971 16.9736 137.971 16.6396C137.971 16.2178 137.883 15.8369 137.707 15.4971C137.537 15.1514 137.285 14.876 136.951 14.6709C136.617 14.4658 136.213 14.3633 135.738 14.3633C135.17 14.3633 134.695 14.4746 134.314 14.6973C133.939 14.9141 133.658 15.2188 133.471 15.6113C133.283 16.0039 133.189 16.4551 133.189 16.9648H131.563C131.563 16.2441 131.722 15.585 132.038 14.9873C132.354 14.3896 132.823 13.915 133.444 13.5635C134.065 13.2061 134.83 13.0273 135.738 13.0273C136.547 13.0273 137.238 13.1709 137.812 13.458C138.387 13.7393 138.826 14.1377 139.131 14.6533C139.441 15.1631 139.597 15.7607 139.597 16.4463C139.597 16.8213 139.532 17.2021 139.403 17.5889C139.28 17.9697 139.107 18.3506 138.885 18.7314C138.668 19.1123 138.413 19.4873 138.12 19.8564C137.833 20.2256 137.525 20.5889 137.197 20.9463L133.77 24.6641H140.186Z" fill="#FAF9F5"/>
<path d="M191.374 18.8018H192.534C193.103 18.8018 193.571 18.708 193.94 18.5205C194.315 18.3271 194.594 18.0664 194.775 17.7383C194.963 17.4043 195.057 17.0293 195.057 16.6133C195.057 16.1211 194.975 15.708 194.811 15.374C194.646 15.04 194.4 14.7881 194.072 14.6182C193.744 14.4482 193.328 14.3633 192.824 14.3633C192.367 14.3633 191.963 14.4541 191.611 14.6357C191.266 14.8115 190.993 15.0635 190.794 15.3916C190.601 15.7197 190.504 16.1064 190.504 16.5518H188.878C188.878 15.9014 189.042 15.3096 189.37 14.7764C189.698 14.2432 190.158 13.8184 190.75 13.502C191.348 13.1855 192.039 13.0273 192.824 13.0273C193.598 13.0273 194.274 13.165 194.854 13.4404C195.435 13.71 195.886 14.1143 196.208 14.6533C196.53 15.1865 196.691 15.8516 196.691 16.6484C196.691 16.9707 196.615 17.3164 196.463 17.6855C196.316 18.0488 196.085 18.3887 195.769 18.7051C195.458 19.0215 195.054 19.2822 194.556 19.4873C194.058 19.6865 193.46 19.7861 192.763 19.7861H191.374V18.8018ZM191.374 20.1377V19.1621H192.763C193.577 19.1621 194.251 19.2588 194.784 19.4521C195.317 19.6455 195.736 19.9033 196.041 20.2256C196.352 20.5479 196.568 20.9023 196.691 21.2891C196.82 21.6699 196.885 22.0508 196.885 22.4316C196.885 23.0293 196.782 23.5596 196.577 24.0225C196.378 24.4854 196.094 24.8779 195.725 25.2002C195.361 25.5225 194.934 25.7656 194.441 25.9297C193.949 26.0938 193.413 26.1758 192.833 26.1758C192.276 26.1758 191.752 26.0967 191.26 25.9385C190.773 25.7803 190.343 25.5518 189.968 25.2529C189.593 24.9482 189.3 24.5762 189.089 24.1367C188.878 23.6914 188.772 23.1846 188.772 22.6162H190.398C190.398 23.0615 190.495 23.4512 190.688 23.7852C190.888 24.1191 191.169 24.3799 191.532 24.5674C191.901 24.749 192.335 24.8398 192.833 24.8398C193.331 24.8398 193.759 24.7549 194.116 24.585C194.479 24.4092 194.758 24.1455 194.951 23.7939C195.15 23.4424 195.25 23 195.25 22.4668C195.25 21.9336 195.139 21.4971 194.916 21.1572C194.693 20.8115 194.377 20.5566 193.967 20.3926C193.562 20.2227 193.085 20.1377 192.534 20.1377H191.374Z" fill="#FAF9F5"/>
<path d="M254.849 21.6934V23.0293H245.603V22.0713L251.333 13.2031H252.66L251.236 15.7695L247.448 21.6934H254.849ZM253.064 13.2031V26H251.438V13.2031H253.064Z" fill="#FAF9F5"/>
<path d="M305.457 19.9092L304.156 19.5752L304.798 13.2031H311.363V14.7061H306.178L305.791 18.1865C306.025 18.0518 306.321 17.9258 306.679 17.8086C307.042 17.6914 307.458 17.6328 307.927 17.6328C308.519 17.6328 309.049 17.7354 309.518 17.9404C309.986 18.1396 310.385 18.4268 310.713 18.8018C311.047 19.1768 311.302 19.6279 311.478 20.1553C311.653 20.6826 311.741 21.2715 311.741 21.9219C311.741 22.5371 311.656 23.1025 311.486 23.6182C311.322 24.1338 311.073 24.585 310.739 24.9717C310.405 25.3525 309.983 25.6484 309.474 25.8594C308.97 26.0703 308.375 26.1758 307.689 26.1758C307.174 26.1758 306.685 26.1055 306.222 25.9648C305.765 25.8184 305.354 25.5986 304.991 25.3057C304.634 25.0068 304.341 24.6377 304.112 24.1982C303.89 23.7529 303.749 23.2314 303.69 22.6338H305.237C305.308 23.1143 305.448 23.5186 305.659 23.8467C305.87 24.1748 306.146 24.4238 306.485 24.5938C306.831 24.7578 307.232 24.8398 307.689 24.8398C308.076 24.8398 308.419 24.7725 308.718 24.6377C309.017 24.5029 309.269 24.3096 309.474 24.0576C309.679 23.8057 309.834 23.501 309.939 23.1436C310.051 22.7861 310.106 22.3848 310.106 21.9395C310.106 21.5352 310.051 21.1602 309.939 20.8145C309.828 20.4688 309.661 20.167 309.438 19.9092C309.222 19.6514 308.955 19.4521 308.639 19.3115C308.322 19.165 307.959 19.0918 307.549 19.0918C307.004 19.0918 306.591 19.165 306.31 19.3115C306.034 19.458 305.75 19.6572 305.457 19.9092Z" fill="#FAF9F5"/>
</svg>
