<svg width="368" height="88" viewBox="0 0 368 88" fill="none" xmlns="http://www.w3.org/2000/svg">
<path d="M24.3057 21.7656C24.3057 21.4668 24.2588 21.2031 24.165 20.9746C24.0771 20.7402 23.9189 20.5293 23.6904 20.3418C23.4678 20.1543 23.1572 19.9756 22.7588 19.8057C22.3662 19.6357 21.8682 19.4629 21.2646 19.2871C20.6318 19.0996 20.0605 18.8916 19.5508 18.6631C19.041 18.4287 18.6045 18.1621 18.2412 17.8633C17.8779 17.5645 17.5996 17.2217 17.4062 16.835C17.2129 16.4482 17.1162 16.0059 17.1162 15.5078C17.1162 15.0098 17.2188 14.5498 17.4238 14.1279C17.6289 13.7061 17.9219 13.3398 18.3027 13.0293C18.6895 12.7129 19.1494 12.4668 19.6826 12.291C20.2158 12.1152 20.8105 12.0273 21.4668 12.0273C22.4277 12.0273 23.2422 12.2119 23.9102 12.5811C24.584 12.9443 25.0967 13.4219 25.4482 14.0137C25.7998 14.5996 25.9756 15.2266 25.9756 15.8945H24.2881C24.2881 15.4141 24.1855 14.9893 23.9805 14.6201C23.7754 14.2451 23.4648 13.9521 23.0488 13.7412C22.6328 13.5244 22.1055 13.416 21.4668 13.416C20.8633 13.416 20.3652 13.5068 19.9727 13.6885C19.5801 13.8701 19.2871 14.1162 19.0938 14.4268C18.9062 14.7373 18.8125 15.0918 18.8125 15.4902C18.8125 15.7598 18.8682 16.0059 18.9795 16.2285C19.0967 16.4453 19.2754 16.6475 19.5156 16.835C19.7617 17.0225 20.0723 17.1953 20.4473 17.3535C20.8281 17.5117 21.2822 17.6641 21.8096 17.8105C22.5361 18.0156 23.1631 18.2441 23.6904 18.4961C24.2178 18.748 24.6514 19.0322 24.9912 19.3486C25.3369 19.6592 25.5918 20.0137 25.7559 20.4121C25.9258 20.8047 26.0107 21.25 26.0107 21.748C26.0107 22.2695 25.9053 22.7412 25.6943 23.1631C25.4834 23.585 25.1816 23.9453 24.7891 24.2441C24.3965 24.543 23.9248 24.7744 23.374 24.9385C22.8291 25.0967 22.2197 25.1758 21.5459 25.1758C20.9541 25.1758 20.3711 25.0938 19.7969 24.9297C19.2285 24.7656 18.71 24.5195 18.2412 24.1914C17.7783 23.8633 17.4062 23.459 17.125 22.9785C16.8496 22.4922 16.7119 21.9297 16.7119 21.291H18.3994C18.3994 21.7305 18.4844 22.1084 18.6543 22.4248C18.8242 22.7354 19.0557 22.9932 19.3486 23.1982C19.6475 23.4033 19.9844 23.5557 20.3594 23.6553C20.7402 23.749 21.1357 23.7959 21.5459 23.7959C22.1377 23.7959 22.6387 23.7139 23.0488 23.5498C23.459 23.3857 23.7695 23.1514 23.9805 22.8467C24.1973 22.542 24.3057 22.1816 24.3057 21.7656ZM27.4961 20.3506V20.1484C27.4961 19.4629 27.5957 18.8271 27.7949 18.2412C27.9941 17.6494 28.2812 17.1367 28.6562 16.7031C29.0312 16.2637 29.4854 15.9238 30.0186 15.6836C30.5518 15.4375 31.1494 15.3145 31.8115 15.3145C32.4795 15.3145 33.0801 15.4375 33.6133 15.6836C34.1523 15.9238 34.6094 16.2637 34.9844 16.7031C35.3652 17.1367 35.6553 17.6494 35.8545 18.2412C36.0537 18.8271 36.1533 19.4629 36.1533 20.1484V20.3506C36.1533 21.0361 36.0537 21.6719 35.8545 22.2578C35.6553 22.8438 35.3652 23.3564 34.9844 23.7959C34.6094 24.2295 34.1553 24.5693 33.6221 24.8154C33.0947 25.0557 32.4971 25.1758 31.8291 25.1758C31.1611 25.1758 30.5605 25.0557 30.0273 24.8154C29.4941 24.5693 29.0371 24.2295 28.6562 23.7959C28.2812 23.3564 27.9941 22.8438 27.7949 22.2578C27.5957 21.6719 27.4961 21.0361 27.4961 20.3506ZM29.1221 20.1484V20.3506C29.1221 20.8252 29.1777 21.2734 29.2891 21.6953C29.4004 22.1113 29.5674 22.4805 29.79 22.8027C30.0186 23.125 30.3027 23.3799 30.6426 23.5674C30.9824 23.749 31.3779 23.8398 31.8291 23.8398C32.2744 23.8398 32.6641 23.749 32.998 23.5674C33.3379 23.3799 33.6191 23.125 33.8418 22.8027C34.0645 22.4805 34.2314 22.1113 34.3428 21.6953C34.46 21.2734 34.5186 20.8252 34.5186 20.3506V20.1484C34.5186 19.6797 34.46 19.2373 34.3428 18.8213C34.2314 18.3994 34.0615 18.0273 33.833 17.7051C33.6104 17.377 33.3291 17.1191 32.9893 16.9316C32.6553 16.7441 32.2627 16.6504 31.8115 16.6504C31.3662 16.6504 30.9736 16.7441 30.6338 16.9316C30.2998 17.1191 30.0186 17.377 29.79 17.7051C29.5674 18.0273 29.4004 18.3994 29.2891 18.8213C29.1777 19.2373 29.1221 19.6797 29.1221 20.1484ZM44.0107 22.8027V15.4902H45.6455V25H44.0898L44.0107 22.8027ZM44.3184 20.7988L44.9951 20.7812C44.9951 21.4141 44.9277 22 44.793 22.5391C44.6641 23.0723 44.4531 23.5352 44.1602 23.9277C43.8672 24.3203 43.4834 24.6279 43.0088 24.8506C42.5342 25.0674 41.957 25.1758 41.2773 25.1758C40.8145 25.1758 40.3896 25.1084 40.0029 24.9736C39.6221 24.8389 39.2939 24.6309 39.0186 24.3496C38.7432 24.0684 38.5293 23.7021 38.377 23.251C38.2305 22.7998 38.1572 22.2578 38.1572 21.625V15.4902H39.7832V21.6426C39.7832 22.0703 39.8301 22.4248 39.9238 22.7061C40.0234 22.9814 40.1553 23.2012 40.3193 23.3652C40.4893 23.5234 40.6768 23.6348 40.8818 23.6992C41.0928 23.7637 41.3096 23.7959 41.5322 23.7959C42.2236 23.7959 42.7715 23.6641 43.1758 23.4004C43.5801 23.1309 43.8701 22.7705 44.0459 22.3193C44.2275 21.8623 44.3184 21.3555 44.3184 20.7988ZM49.75 16.9844V25H48.124V15.4902H49.7061L49.75 16.9844ZM52.7207 15.4375L52.7119 16.9492C52.5771 16.9199 52.4482 16.9023 52.3252 16.8965C52.208 16.8848 52.0732 16.8789 51.9209 16.8789C51.5459 16.8789 51.2148 16.9375 50.9277 17.0547C50.6406 17.1719 50.3975 17.3359 50.1982 17.5469C49.999 17.7578 49.8408 18.0098 49.7236 18.3027C49.6123 18.5898 49.5391 18.9062 49.5039 19.252L49.0469 19.5156C49.0469 18.9414 49.1025 18.4023 49.2139 17.8984C49.3311 17.3945 49.5098 16.9492 49.75 16.5625C49.9902 16.1699 50.2949 15.8652 50.6641 15.6484C51.0391 15.4258 51.4844 15.3145 52 15.3145C52.1172 15.3145 52.252 15.3291 52.4043 15.3584C52.5566 15.3818 52.6621 15.4082 52.7207 15.4375ZM57.8535 23.8398C58.2402 23.8398 58.5977 23.7607 58.9258 23.6025C59.2539 23.4443 59.5234 23.2275 59.7344 22.9521C59.9453 22.6709 60.0654 22.3516 60.0947 21.9941H61.6416C61.6123 22.5566 61.4219 23.0811 61.0703 23.5674C60.7246 24.0479 60.2705 24.4375 59.708 24.7363C59.1455 25.0293 58.5273 25.1758 57.8535 25.1758C57.1387 25.1758 56.5146 25.0498 55.9814 24.7979C55.4541 24.5459 55.0146 24.2002 54.6631 23.7607C54.3174 23.3213 54.0566 22.8174 53.8809 22.249C53.7109 21.6748 53.626 21.0684 53.626 20.4297V20.0605C53.626 19.4219 53.7109 18.8184 53.8809 18.25C54.0566 17.6758 54.3174 17.1689 54.6631 16.7295C55.0146 16.29 55.4541 15.9443 55.9814 15.6924C56.5146 15.4404 57.1387 15.3145 57.8535 15.3145C58.5977 15.3145 59.248 15.4668 59.8047 15.7715C60.3613 16.0703 60.7979 16.4805 61.1143 17.002C61.4365 17.5176 61.6123 18.1035 61.6416 18.7598H60.0947C60.0654 18.3672 59.9541 18.0127 59.7607 17.6963C59.5732 17.3799 59.3154 17.1279 58.9873 16.9404C58.665 16.7471 58.2871 16.6504 57.8535 16.6504C57.3555 16.6504 56.9365 16.75 56.5967 16.9492C56.2627 17.1426 55.9961 17.4062 55.7969 17.7402C55.6035 18.0684 55.4629 18.4346 55.375 18.8389C55.293 19.2373 55.252 19.6445 55.252 20.0605V20.4297C55.252 20.8457 55.293 21.2559 55.375 21.6602C55.457 22.0645 55.5947 22.4307 55.7881 22.7588C55.9873 23.0869 56.2539 23.3506 56.5879 23.5498C56.9277 23.7432 57.3496 23.8398 57.8535 23.8398ZM67.416 25.1758C66.7539 25.1758 66.1533 25.0645 65.6143 24.8418C65.0811 24.6133 64.6211 24.2939 64.2344 23.8838C63.8535 23.4736 63.5605 22.9873 63.3555 22.4248C63.1504 21.8623 63.0479 21.2471 63.0479 20.5791V20.21C63.0479 19.4365 63.1621 18.748 63.3906 18.1445C63.6191 17.5352 63.9297 17.0195 64.3223 16.5977C64.7148 16.1758 65.1602 15.8564 65.6582 15.6396C66.1562 15.4229 66.6719 15.3145 67.2051 15.3145C67.8848 15.3145 68.4707 15.4316 68.9629 15.666C69.4609 15.9004 69.8682 16.2285 70.1846 16.6504C70.501 17.0664 70.7354 17.5586 70.8877 18.127C71.04 18.6895 71.1162 19.3047 71.1162 19.9727V20.7021H64.0146V19.375H69.4902V19.252C69.4668 18.8301 69.3789 18.4199 69.2266 18.0215C69.0801 17.623 68.8457 17.2949 68.5234 17.0371C68.2012 16.7793 67.7617 16.6504 67.2051 16.6504C66.8359 16.6504 66.4961 16.7295 66.1855 16.8877C65.875 17.04 65.6084 17.2686 65.3857 17.5732C65.1631 17.8779 64.9902 18.25 64.8672 18.6895C64.7441 19.1289 64.6826 19.6357 64.6826 20.21V20.5791C64.6826 21.0303 64.7441 21.4551 64.8672 21.8535C64.9961 22.2461 65.1807 22.5918 65.4209 22.8906C65.667 23.1895 65.9629 23.4238 66.3086 23.5938C66.6602 23.7637 67.0586 23.8486 67.5039 23.8486C68.0781 23.8486 68.5645 23.7314 68.9629 23.4971C69.3613 23.2627 69.71 22.9492 70.0088 22.5566L70.9932 23.3389C70.7881 23.6494 70.5273 23.9453 70.2109 24.2266C69.8945 24.5078 69.5049 24.7363 69.042 24.9121C68.585 25.0879 68.043 25.1758 67.416 25.1758ZM85.4863 23.6201V25H79.0879V23.6201H85.4863ZM79.4219 12.2031V25H77.7256V12.2031H79.4219ZM92.79 23.374V18.4785C92.79 18.1035 92.7139 17.7783 92.5615 17.5029C92.415 17.2217 92.1924 17.0049 91.8936 16.8525C91.5947 16.7002 91.2256 16.624 90.7861 16.624C90.376 16.624 90.0156 16.6943 89.7051 16.835C89.4004 16.9756 89.1602 17.1602 88.9844 17.3887C88.8145 17.6172 88.7295 17.8633 88.7295 18.127H87.1035C87.1035 17.7871 87.1914 17.4502 87.3672 17.1162C87.543 16.7822 87.7949 16.4805 88.123 16.2109C88.457 15.9355 88.8555 15.7188 89.3184 15.5605C89.7871 15.3965 90.3086 15.3145 90.8828 15.3145C91.5742 15.3145 92.1836 15.4316 92.7109 15.666C93.2441 15.9004 93.6602 16.2549 93.959 16.7295C94.2637 17.1982 94.416 17.7871 94.416 18.4961V22.9258C94.416 23.2422 94.4424 23.5791 94.4951 23.9365C94.5537 24.2939 94.6387 24.6016 94.75 24.8594V25H93.0537C92.9717 24.8125 92.9072 24.5635 92.8604 24.2529C92.8135 23.9365 92.79 23.6436 92.79 23.374ZM93.0713 19.2344L93.0889 20.377H91.4453C90.9824 20.377 90.5693 20.415 90.2061 20.4912C89.8428 20.5615 89.5381 20.6699 89.292 20.8164C89.0459 20.9629 88.8584 21.1475 88.7295 21.3701C88.6006 21.5869 88.5361 21.8418 88.5361 22.1348C88.5361 22.4336 88.6035 22.7061 88.7383 22.9521C88.873 23.1982 89.0752 23.3945 89.3447 23.541C89.6201 23.6816 89.957 23.752 90.3555 23.752C90.8535 23.752 91.293 23.6465 91.6738 23.4355C92.0547 23.2246 92.3564 22.9668 92.5791 22.6621C92.8076 22.3574 92.9307 22.0615 92.9482 21.7744L93.6426 22.5566C93.6016 22.8027 93.4902 23.0752 93.3086 23.374C93.127 23.6729 92.8838 23.96 92.5791 24.2354C92.2803 24.5049 91.9229 24.7305 91.5068 24.9121C91.0967 25.0879 90.6338 25.1758 90.1182 25.1758C89.4736 25.1758 88.9082 25.0498 88.4219 24.7979C87.9414 24.5459 87.5664 24.209 87.2969 23.7871C87.0332 23.3594 86.9014 22.8818 86.9014 22.3545C86.9014 21.8447 87.001 21.3965 87.2002 21.0098C87.3994 20.6172 87.6865 20.292 88.0615 20.0342C88.4365 19.7705 88.8877 19.5713 89.415 19.4365C89.9424 19.3018 90.5312 19.2344 91.1816 19.2344H93.0713ZM96.9648 11.5H98.5996V23.1543L98.459 25H96.9648V11.5ZM105.024 20.166V20.3506C105.024 21.042 104.942 21.6836 104.778 22.2754C104.614 22.8613 104.374 23.3711 104.058 23.8047C103.741 24.2383 103.354 24.5752 102.897 24.8154C102.44 25.0557 101.916 25.1758 101.324 25.1758C100.721 25.1758 100.19 25.0732 99.7334 24.8682C99.2822 24.6572 98.9014 24.3555 98.5908 23.9629C98.2803 23.5703 98.0312 23.0957 97.8438 22.5391C97.6621 21.9824 97.5361 21.3555 97.4658 20.6582V19.8496C97.5361 19.1465 97.6621 18.5166 97.8438 17.96C98.0312 17.4033 98.2803 16.9287 98.5908 16.5361C98.9014 16.1377 99.2822 15.8359 99.7334 15.6309C100.185 15.4199 100.709 15.3145 101.307 15.3145C101.904 15.3145 102.435 15.4316 102.897 15.666C103.36 15.8945 103.747 16.2227 104.058 16.6504C104.374 17.0781 104.614 17.5908 104.778 18.1885C104.942 18.7803 105.024 19.4395 105.024 20.166ZM103.39 20.3506V20.166C103.39 19.6914 103.346 19.2461 103.258 18.8301C103.17 18.4082 103.029 18.0391 102.836 17.7227C102.643 17.4004 102.388 17.1484 102.071 16.9668C101.755 16.7793 101.365 16.6855 100.902 16.6855C100.492 16.6855 100.135 16.7559 99.8301 16.8965C99.5312 17.0371 99.2764 17.2275 99.0654 17.4678C98.8545 17.7021 98.6816 17.9717 98.5469 18.2764C98.418 18.5752 98.3213 18.8857 98.2568 19.208V21.3262C98.3506 21.7363 98.5029 22.1318 98.7139 22.5127C98.9307 22.8877 99.2178 23.1953 99.5752 23.4355C99.9385 23.6758 100.387 23.7959 100.92 23.7959C101.359 23.7959 101.734 23.708 102.045 23.5322C102.361 23.3506 102.616 23.1016 102.81 22.7852C103.009 22.4688 103.155 22.1025 103.249 21.6865C103.343 21.2705 103.39 20.8252 103.39 20.3506ZM111.027 25.1758C110.365 25.1758 109.765 25.0645 109.226 24.8418C108.692 24.6133 108.232 24.2939 107.846 23.8838C107.465 23.4736 107.172 22.9873 106.967 22.4248C106.762 21.8623 106.659 21.2471 106.659 20.5791V20.21C106.659 19.4365 106.773 18.748 107.002 18.1445C107.23 17.5352 107.541 17.0195 107.934 16.5977C108.326 16.1758 108.771 15.8564 109.27 15.6396C109.768 15.4229 110.283 15.3145 110.816 15.3145C111.496 15.3145 112.082 15.4316 112.574 15.666C113.072 15.9004 113.479 16.2285 113.796 16.6504C114.112 17.0664 114.347 17.5586 114.499 18.127C114.651 18.6895 114.728 19.3047 114.728 19.9727V20.7021H107.626V19.375H113.102V19.252C113.078 18.8301 112.99 18.4199 112.838 18.0215C112.691 17.623 112.457 17.2949 112.135 17.0371C111.812 16.7793 111.373 16.6504 110.816 16.6504C110.447 16.6504 110.107 16.7295 109.797 16.8877C109.486 17.04 109.22 17.2686 108.997 17.5732C108.774 17.8779 108.602 18.25 108.479 18.6895C108.355 19.1289 108.294 19.6357 108.294 20.21V20.5791C108.294 21.0303 108.355 21.4551 108.479 21.8535C108.607 22.2461 108.792 22.5918 109.032 22.8906C109.278 23.1895 109.574 23.4238 109.92 23.5938C110.271 23.7637 110.67 23.8486 111.115 23.8486C111.689 23.8486 112.176 23.7314 112.574 23.4971C112.973 23.2627 113.321 22.9492 113.62 22.5566L114.604 23.3389C114.399 23.6494 114.139 23.9453 113.822 24.2266C113.506 24.5078 113.116 24.7363 112.653 24.9121C112.196 25.0879 111.654 25.1758 111.027 25.1758ZM118.393 11.5V25H116.758V11.5H118.393ZM125.406 19.8848V19.7969C125.406 18.5195 125.55 17.3652 125.837 16.334C126.124 15.2969 126.49 14.3887 126.936 13.6094C127.381 12.8301 127.85 12.1855 128.342 11.6758C128.834 11.1602 129.288 10.7881 129.704 10.5596L130.047 11.6318C129.701 11.8955 129.35 12.2588 128.992 12.7217C128.641 13.1846 128.315 13.7529 128.017 14.4268C127.724 15.1006 127.486 15.8828 127.305 16.7734C127.123 17.6641 127.032 18.666 127.032 19.7793V19.9023C127.032 21.0156 127.123 22.0205 127.305 22.917C127.486 23.8076 127.724 24.5928 128.017 25.2725C128.315 25.9521 128.641 26.5293 128.992 27.0039C129.35 27.4844 129.701 27.8652 130.047 28.1465L129.704 29.1309C129.288 28.9023 128.834 28.5303 128.342 28.0146C127.85 27.5049 127.381 26.8604 126.936 26.0811C126.49 25.3076 126.124 24.4023 125.837 23.3652C125.55 22.3281 125.406 21.168 125.406 19.8848ZM136.612 12.2031V25H134.942V12.2031H136.612ZM140.726 12.2031V13.5918H130.838V12.2031H140.726ZM145.445 25.1758C144.783 25.1758 144.183 25.0645 143.644 24.8418C143.11 24.6133 142.65 24.2939 142.264 23.8838C141.883 23.4736 141.59 22.9873 141.385 22.4248C141.18 21.8623 141.077 21.2471 141.077 20.5791V20.21C141.077 19.4365 141.191 18.748 141.42 18.1445C141.648 17.5352 141.959 17.0195 142.352 16.5977C142.744 16.1758 143.189 15.8564 143.688 15.6396C144.186 15.4229 144.701 15.3145 145.234 15.3145C145.914 15.3145 146.5 15.4316 146.992 15.666C147.49 15.9004 147.897 16.2285 148.214 16.6504C148.53 17.0664 148.765 17.5586 148.917 18.127C149.069 18.6895 149.146 19.3047 149.146 19.9727V20.7021H142.044V19.375H147.52V19.252C147.496 18.8301 147.408 18.4199 147.256 18.0215C147.109 17.623 146.875 17.2949 146.553 17.0371C146.23 16.7793 145.791 16.6504 145.234 16.6504C144.865 16.6504 144.525 16.7295 144.215 16.8877C143.904 17.04 143.638 17.2686 143.415 17.5732C143.192 17.8779 143.02 18.25 142.896 18.6895C142.773 19.1289 142.712 19.6357 142.712 20.21V20.5791C142.712 21.0303 142.773 21.4551 142.896 21.8535C143.025 22.2461 143.21 22.5918 143.45 22.8906C143.696 23.1895 143.992 23.4238 144.338 23.5938C144.689 23.7637 145.088 23.8486 145.533 23.8486C146.107 23.8486 146.594 23.7314 146.992 23.4971C147.391 23.2627 147.739 22.9492 148.038 22.5566L149.022 23.3389C148.817 23.6494 148.557 23.9453 148.24 24.2266C147.924 24.5078 147.534 24.7363 147.071 24.9121C146.614 25.0879 146.072 25.1758 145.445 25.1758ZM152.661 17.3799V25H151.026V15.4902H152.573L152.661 17.3799ZM152.327 19.8848L151.571 19.8584C151.577 19.208 151.662 18.6074 151.826 18.0566C151.99 17.5 152.233 17.0166 152.556 16.6064C152.878 16.1963 153.279 15.8799 153.76 15.6572C154.24 15.4287 154.797 15.3145 155.43 15.3145C155.875 15.3145 156.285 15.3789 156.66 15.5078C157.035 15.6309 157.36 15.8271 157.636 16.0967C157.911 16.3662 158.125 16.7119 158.277 17.1338C158.43 17.5557 158.506 18.0654 158.506 18.6631V25H156.88V18.7422C156.88 18.2441 156.795 17.8457 156.625 17.5469C156.461 17.248 156.227 17.0312 155.922 16.8965C155.617 16.7559 155.26 16.6855 154.85 16.6855C154.369 16.6855 153.968 16.7705 153.646 16.9404C153.323 17.1104 153.065 17.3447 152.872 17.6436C152.679 17.9424 152.538 18.2852 152.45 18.6719C152.368 19.0527 152.327 19.457 152.327 19.8848ZM158.488 18.9883L157.398 19.3223C157.404 18.8008 157.489 18.2998 157.653 17.8193C157.823 17.3389 158.066 16.9111 158.383 16.5361C158.705 16.1611 159.101 15.8652 159.569 15.6484C160.038 15.4258 160.574 15.3145 161.178 15.3145C161.688 15.3145 162.139 15.3818 162.531 15.5166C162.93 15.6514 163.264 15.8594 163.533 16.1406C163.809 16.416 164.017 16.7705 164.157 17.2041C164.298 17.6377 164.368 18.1533 164.368 18.751V25H162.733V18.7334C162.733 18.2002 162.648 17.7871 162.479 17.4941C162.314 17.1953 162.08 16.9873 161.775 16.8701C161.477 16.7471 161.119 16.6855 160.703 16.6855C160.346 16.6855 160.029 16.7471 159.754 16.8701C159.479 16.9932 159.247 17.1631 159.06 17.3799C158.872 17.5908 158.729 17.834 158.629 18.1094C158.535 18.3848 158.488 18.6777 158.488 18.9883ZM168.455 17.3184V28.6562H166.82V15.4902H168.314L168.455 17.3184ZM174.862 20.166V20.3506C174.862 21.042 174.78 21.6836 174.616 22.2754C174.452 22.8613 174.212 23.3711 173.896 23.8047C173.585 24.2383 173.201 24.5752 172.744 24.8154C172.287 25.0557 171.763 25.1758 171.171 25.1758C170.567 25.1758 170.034 25.0762 169.571 24.877C169.108 24.6777 168.716 24.3877 168.394 24.0068C168.071 23.626 167.813 23.1689 167.62 22.6357C167.433 22.1025 167.304 21.502 167.233 20.834V19.8496C167.304 19.1465 167.436 18.5166 167.629 17.96C167.822 17.4033 168.077 16.9287 168.394 16.5361C168.716 16.1377 169.105 15.8359 169.562 15.6309C170.02 15.4199 170.547 15.3145 171.145 15.3145C171.742 15.3145 172.272 15.4316 172.735 15.666C173.198 15.8945 173.588 16.2227 173.904 16.6504C174.221 17.0781 174.458 17.5908 174.616 18.1885C174.78 18.7803 174.862 19.4395 174.862 20.166ZM173.228 20.3506V20.166C173.228 19.6914 173.178 19.2461 173.078 18.8301C172.979 18.4082 172.823 18.0391 172.612 17.7227C172.407 17.4004 172.144 17.1484 171.821 16.9668C171.499 16.7793 171.115 16.6855 170.67 16.6855C170.26 16.6855 169.902 16.7559 169.598 16.8965C169.299 17.0371 169.044 17.2275 168.833 17.4678C168.622 17.7021 168.449 17.9717 168.314 18.2764C168.186 18.5752 168.089 18.8857 168.024 19.208V21.4844C168.142 21.8945 168.306 22.2812 168.517 22.6445C168.728 23.002 169.009 23.292 169.36 23.5146C169.712 23.7314 170.154 23.8398 170.688 23.8398C171.127 23.8398 171.505 23.749 171.821 23.5674C172.144 23.3799 172.407 23.125 172.612 22.8027C172.823 22.4805 172.979 22.1113 173.078 21.6953C173.178 21.2734 173.228 20.8252 173.228 20.3506ZM183.81 23.3125L186.253 15.4902H187.325L187.114 17.0459L184.627 25H183.581L183.81 23.3125ZM182.166 15.4902L184.249 23.4004L184.398 25H183.3L180.54 15.4902H182.166ZM189.663 23.3389L191.649 15.4902H193.267L190.507 25H189.417L189.663 23.3389ZM187.562 15.4902L189.953 23.1807L190.226 25H189.188L186.631 17.0283L186.42 15.4902H187.562ZM196.703 15.4902V25H195.068V15.4902H196.703ZM194.945 12.9678C194.945 12.7041 195.024 12.4814 195.183 12.2998C195.347 12.1182 195.587 12.0273 195.903 12.0273C196.214 12.0273 196.451 12.1182 196.615 12.2998C196.785 12.4814 196.87 12.7041 196.87 12.9678C196.87 13.2197 196.785 13.4365 196.615 13.6182C196.451 13.7939 196.214 13.8818 195.903 13.8818C195.587 13.8818 195.347 13.7939 195.183 13.6182C195.024 13.4365 194.945 13.2197 194.945 12.9678ZM203.295 15.4902V16.7383H198.153V15.4902H203.295ZM199.894 13.1787H201.52V22.6445C201.52 22.9668 201.569 23.21 201.669 23.374C201.769 23.5381 201.897 23.6465 202.056 23.6992C202.214 23.752 202.384 23.7783 202.565 23.7783C202.7 23.7783 202.841 23.7666 202.987 23.7432C203.14 23.7139 203.254 23.6904 203.33 23.6729L203.339 25C203.21 25.041 203.04 25.0791 202.829 25.1143C202.624 25.1553 202.375 25.1758 202.082 25.1758C201.684 25.1758 201.317 25.0967 200.983 24.9385C200.649 24.7803 200.383 24.5166 200.184 24.1475C199.99 23.7725 199.894 23.2686 199.894 22.6357V13.1787ZM206.828 11.5V25H205.202V11.5H206.828ZM206.441 19.8848L205.765 19.8584C205.771 19.208 205.867 18.6074 206.055 18.0566C206.242 17.5 206.506 17.0166 206.846 16.6064C207.186 16.1963 207.59 15.8799 208.059 15.6572C208.533 15.4287 209.058 15.3145 209.632 15.3145C210.101 15.3145 210.522 15.3789 210.897 15.5078C211.272 15.6309 211.592 15.8301 211.855 16.1055C212.125 16.3809 212.33 16.7383 212.471 17.1777C212.611 17.6113 212.682 18.1416 212.682 18.7686V25H211.047V18.751C211.047 18.2529 210.974 17.8545 210.827 17.5557C210.681 17.251 210.467 17.0312 210.186 16.8965C209.904 16.7559 209.559 16.6855 209.148 16.6855C208.744 16.6855 208.375 16.7705 208.041 16.9404C207.713 17.1104 207.429 17.3447 207.188 17.6436C206.954 17.9424 206.77 18.2852 206.635 18.6719C206.506 19.0527 206.441 19.457 206.441 19.8848ZM219.827 12.2031H224.063C225.024 12.2031 225.836 12.3496 226.498 12.6426C227.166 12.9355 227.673 13.3691 228.019 13.9434C228.37 14.5117 228.546 15.2119 228.546 16.0439C228.546 16.6299 228.426 17.166 228.186 17.6523C227.951 18.1328 227.611 18.543 227.166 18.8828C226.727 19.2168 226.199 19.4658 225.584 19.6299L225.109 19.8145H221.128L221.11 18.4346H224.116C224.726 18.4346 225.232 18.3291 225.637 18.1182C226.041 17.9014 226.346 17.6113 226.551 17.248C226.756 16.8848 226.858 16.4834 226.858 16.0439C226.858 15.5518 226.762 15.1211 226.568 14.752C226.375 14.3828 226.07 14.0986 225.654 13.8994C225.244 13.6943 224.714 13.5918 224.063 13.5918H221.523V25H219.827V12.2031ZM227.307 25L224.195 19.1992L225.962 19.1904L229.117 24.8945V25H227.307ZM236.28 23.374V18.4785C236.28 18.1035 236.204 17.7783 236.052 17.5029C235.905 17.2217 235.683 17.0049 235.384 16.8525C235.085 16.7002 234.716 16.624 234.276 16.624C233.866 16.624 233.506 16.6943 233.195 16.835C232.891 16.9756 232.65 17.1602 232.475 17.3887C232.305 17.6172 232.22 17.8633 232.22 18.127H230.594C230.594 17.7871 230.682 17.4502 230.857 17.1162C231.033 16.7822 231.285 16.4805 231.613 16.2109C231.947 15.9355 232.346 15.7188 232.809 15.5605C233.277 15.3965 233.799 15.3145 234.373 15.3145C235.064 15.3145 235.674 15.4316 236.201 15.666C236.734 15.9004 237.15 16.2549 237.449 16.7295C237.754 17.1982 237.906 17.7871 237.906 18.4961V22.9258C237.906 23.2422 237.933 23.5791 237.985 23.9365C238.044 24.2939 238.129 24.6016 238.24 24.8594V25H236.544C236.462 24.8125 236.397 24.5635 236.351 24.2529C236.304 23.9365 236.28 23.6436 236.28 23.374ZM236.562 19.2344L236.579 20.377H234.936C234.473 20.377 234.06 20.415 233.696 20.4912C233.333 20.5615 233.028 20.6699 232.782 20.8164C232.536 20.9629 232.349 21.1475 232.22 21.3701C232.091 21.5869 232.026 21.8418 232.026 22.1348C232.026 22.4336 232.094 22.7061 232.229 22.9521C232.363 23.1982 232.565 23.3945 232.835 23.541C233.11 23.6816 233.447 23.752 233.846 23.752C234.344 23.752 234.783 23.6465 235.164 23.4355C235.545 23.2246 235.847 22.9668 236.069 22.6621C236.298 22.3574 236.421 22.0615 236.438 21.7744L237.133 22.5566C237.092 22.8027 236.98 23.0752 236.799 23.374C236.617 23.6729 236.374 23.96 236.069 24.2354C235.771 24.5049 235.413 24.7305 234.997 24.9121C234.587 25.0879 234.124 25.1758 233.608 25.1758C232.964 25.1758 232.398 25.0498 231.912 24.7979C231.432 24.5459 231.057 24.209 230.787 23.7871C230.523 23.3594 230.392 22.8818 230.392 22.3545C230.392 21.8447 230.491 21.3965 230.69 21.0098C230.89 20.6172 231.177 20.292 231.552 20.0342C231.927 19.7705 232.378 19.5713 232.905 19.4365C233.433 19.3018 234.021 19.2344 234.672 19.2344H236.562ZM242.09 17.5205V25H240.464V15.4902H242.002L242.09 17.5205ZM241.703 19.8848L241.026 19.8584C241.032 19.208 241.129 18.6074 241.316 18.0566C241.504 17.5 241.768 17.0166 242.107 16.6064C242.447 16.1963 242.852 15.8799 243.32 15.6572C243.795 15.4287 244.319 15.3145 244.894 15.3145C245.362 15.3145 245.784 15.3789 246.159 15.5078C246.534 15.6309 246.854 15.8301 247.117 16.1055C247.387 16.3809 247.592 16.7383 247.732 17.1777C247.873 17.6113 247.943 18.1416 247.943 18.7686V25H246.309V18.751C246.309 18.2529 246.235 17.8545 246.089 17.5557C245.942 17.251 245.729 17.0312 245.447 16.8965C245.166 16.7559 244.82 16.6855 244.41 16.6855C244.006 16.6855 243.637 16.7705 243.303 16.9404C242.975 17.1104 242.69 17.3447 242.45 17.6436C242.216 17.9424 242.031 18.2852 241.896 18.6719C241.768 19.0527 241.703 19.457 241.703 19.8848ZM256.574 15.4902H258.051V24.7979C258.051 25.6357 257.881 26.3506 257.541 26.9424C257.201 27.5342 256.727 27.9824 256.117 28.2871C255.514 28.5977 254.816 28.7529 254.025 28.7529C253.697 28.7529 253.311 28.7002 252.865 28.5947C252.426 28.4951 251.992 28.3223 251.564 28.0762C251.143 27.8359 250.788 27.5107 250.501 27.1006L251.354 26.1338C251.752 26.6143 252.168 26.9482 252.602 27.1357C253.041 27.3232 253.475 27.417 253.902 27.417C254.418 27.417 254.863 27.3203 255.238 27.127C255.613 26.9336 255.903 26.6465 256.108 26.2656C256.319 25.8906 256.425 25.4277 256.425 24.877V17.582L256.574 15.4902ZM250.026 20.3506V20.166C250.026 19.4395 250.111 18.7803 250.281 18.1885C250.457 17.5908 250.706 17.0781 251.028 16.6504C251.356 16.2227 251.752 15.8945 252.215 15.666C252.678 15.4316 253.199 15.3145 253.779 15.3145C254.377 15.3145 254.898 15.4199 255.344 15.6309C255.795 15.8359 256.176 16.1377 256.486 16.5361C256.803 16.9287 257.052 17.4033 257.233 17.96C257.415 18.5166 257.541 19.1465 257.611 19.8496V20.6582C257.547 21.3555 257.421 21.9824 257.233 22.5391C257.052 23.0957 256.803 23.5703 256.486 23.9629C256.176 24.3555 255.795 24.6572 255.344 24.8682C254.893 25.0732 254.365 25.1758 253.762 25.1758C253.193 25.1758 252.678 25.0557 252.215 24.8154C251.758 24.5752 251.365 24.2383 251.037 23.8047C250.709 23.3711 250.457 22.8613 250.281 22.2754C250.111 21.6836 250.026 21.042 250.026 20.3506ZM251.652 20.166V20.3506C251.652 20.8252 251.699 21.2705 251.793 21.6865C251.893 22.1025 252.042 22.4688 252.241 22.7852C252.446 23.1016 252.707 23.3506 253.023 23.5322C253.34 23.708 253.718 23.7959 254.157 23.7959C254.696 23.7959 255.142 23.6816 255.493 23.4531C255.845 23.2246 256.123 22.9229 256.328 22.5479C256.539 22.1729 256.703 21.7656 256.82 21.3262V19.208C256.756 18.8857 256.656 18.5752 256.521 18.2764C256.393 17.9717 256.223 17.7021 256.012 17.4678C255.807 17.2275 255.552 17.0371 255.247 16.8965C254.942 16.7559 254.585 16.6855 254.175 16.6855C253.729 16.6855 253.346 16.7793 253.023 16.9668C252.707 17.1484 252.446 17.4004 252.241 17.7227C252.042 18.0391 251.893 18.4082 251.793 18.8301C251.699 19.2461 251.652 19.6914 251.652 20.166ZM264.467 25.1758C263.805 25.1758 263.204 25.0645 262.665 24.8418C262.132 24.6133 261.672 24.2939 261.285 23.8838C260.904 23.4736 260.611 22.9873 260.406 22.4248C260.201 21.8623 260.099 21.2471 260.099 20.5791V20.21C260.099 19.4365 260.213 18.748 260.441 18.1445C260.67 17.5352 260.98 17.0195 261.373 16.5977C261.766 16.1758 262.211 15.8564 262.709 15.6396C263.207 15.4229 263.723 15.3145 264.256 15.3145C264.936 15.3145 265.521 15.4316 266.014 15.666C266.512 15.9004 266.919 16.2285 267.235 16.6504C267.552 17.0664 267.786 17.5586 267.938 18.127C268.091 18.6895 268.167 19.3047 268.167 19.9727V20.7021H261.065V19.375H266.541V19.252C266.518 18.8301 266.43 18.4199 266.277 18.0215C266.131 17.623 265.896 17.2949 265.574 17.0371C265.252 16.7793 264.812 16.6504 264.256 16.6504C263.887 16.6504 263.547 16.7295 263.236 16.8877C262.926 17.04 262.659 17.2686 262.437 17.5732C262.214 17.8779 262.041 18.25 261.918 18.6895C261.795 19.1289 261.733 19.6357 261.733 20.21V20.5791C261.733 21.0303 261.795 21.4551 261.918 21.8535C262.047 22.2461 262.231 22.5918 262.472 22.8906C262.718 23.1895 263.014 23.4238 263.359 23.5938C263.711 23.7637 264.109 23.8486 264.555 23.8486C265.129 23.8486 265.615 23.7314 266.014 23.4971C266.412 23.2627 266.761 22.9492 267.06 22.5566L268.044 23.3389C267.839 23.6494 267.578 23.9453 267.262 24.2266C266.945 24.5078 266.556 24.7363 266.093 24.9121C265.636 25.0879 265.094 25.1758 264.467 25.1758ZM273.81 19.7969V19.8848C273.81 21.168 273.666 22.3281 273.379 23.3652C273.092 24.4023 272.726 25.3076 272.28 26.0811C271.835 26.8604 271.366 27.5049 270.874 28.0146C270.382 28.5303 269.928 28.9023 269.512 29.1309L269.169 28.1465C269.515 27.8828 269.863 27.5137 270.215 27.0391C270.566 26.5703 270.892 25.9902 271.19 25.2988C271.489 24.6133 271.729 23.8223 271.911 22.9258C272.093 22.0234 272.184 21.0156 272.184 19.9023V19.7793C272.184 18.666 272.087 17.6611 271.894 16.7646C271.7 15.8623 271.448 15.0684 271.138 14.3828C270.833 13.6973 270.505 13.1201 270.153 12.6514C269.808 12.1768 269.479 11.8105 269.169 11.5527L269.512 10.5596C269.928 10.7881 270.382 11.1602 270.874 11.6758C271.366 12.1855 271.835 12.8301 272.28 13.6094C272.726 14.3887 273.092 15.2969 273.379 16.334C273.666 17.3652 273.81 18.5195 273.81 19.7969Z" fill="#1D1D1B"/>
<line x1="8" y1="87.5" x2="360" y2="87.5" stroke="#E6E5E1"/>
<rect x="16" y="34" width="336" height="40" rx="6" fill="#F0EFEB"/>
<rect x="28" y="50" width="223" height="8" rx="4" fill="url(#paint0_linear_15254_100713)"/>
<path d="M290.36 52.9336V55.3184C290.36 56.6003 290.246 57.6816 290.017 58.5625C289.787 59.4434 289.458 60.1523 289.028 60.6895C288.599 61.2266 288.079 61.6169 287.471 61.8604C286.869 62.0967 286.189 62.2148 285.43 62.2148C284.828 62.2148 284.273 62.1396 283.765 61.9893C283.256 61.8389 282.798 61.599 282.39 61.2695C281.989 60.9329 281.645 60.4961 281.358 59.959C281.072 59.4219 280.854 58.7702 280.703 58.0039C280.553 57.2376 280.478 56.3424 280.478 55.3184V52.9336C280.478 51.6517 280.592 50.5775 280.821 49.7109C281.058 48.8444 281.391 48.1497 281.82 47.627C282.25 47.097 282.766 46.7174 283.367 46.4883C283.976 46.2591 284.656 46.1445 285.408 46.1445C286.017 46.1445 286.576 46.2197 287.084 46.3701C287.6 46.5133 288.058 46.7461 288.459 47.0684C288.86 47.3835 289.2 47.806 289.479 48.3359C289.766 48.8587 289.984 49.4997 290.135 50.2588C290.285 51.0179 290.36 51.9095 290.36 52.9336ZM288.362 55.6406V52.6006C288.362 51.8988 288.319 51.2829 288.233 50.7529C288.155 50.2158 288.036 49.7575 287.879 49.3779C287.721 48.9984 287.521 48.6904 287.277 48.4541C287.041 48.2178 286.765 48.0459 286.45 47.9385C286.142 47.8239 285.795 47.7666 285.408 47.7666C284.936 47.7666 284.517 47.8561 284.151 48.0352C283.786 48.207 283.478 48.4827 283.228 48.8623C282.984 49.2419 282.798 49.7396 282.669 50.3555C282.54 50.9714 282.476 51.7197 282.476 52.6006V55.6406C282.476 56.3424 282.515 56.9619 282.594 57.499C282.68 58.0361 282.805 58.5016 282.97 58.8955C283.134 59.2822 283.335 59.6009 283.571 59.8516C283.808 60.1022 284.08 60.2884 284.388 60.4102C284.703 60.5247 285.05 60.582 285.43 60.582C285.917 60.582 286.343 60.4889 286.708 60.3027C287.073 60.1165 287.378 59.8265 287.621 59.4326C287.872 59.0316 288.058 58.5195 288.18 57.8965C288.301 57.2663 288.362 56.5143 288.362 55.6406ZM303.165 52.9336V55.3184C303.165 56.6003 303.05 57.6816 302.821 58.5625C302.592 59.4434 302.263 60.1523 301.833 60.6895C301.403 61.2266 300.884 61.6169 300.275 61.8604C299.674 62.0967 298.993 62.2148 298.234 62.2148C297.633 62.2148 297.078 62.1396 296.569 61.9893C296.061 61.8389 295.603 61.599 295.194 61.2695C294.793 60.9329 294.45 60.4961 294.163 59.959C293.877 59.4219 293.658 58.7702 293.508 58.0039C293.357 57.2376 293.282 56.3424 293.282 55.3184V52.9336C293.282 51.6517 293.397 50.5775 293.626 49.7109C293.862 48.8444 294.195 48.1497 294.625 47.627C295.055 47.097 295.57 46.7174 296.172 46.4883C296.781 46.2591 297.461 46.1445 298.213 46.1445C298.822 46.1445 299.38 46.2197 299.889 46.3701C300.404 46.5133 300.863 46.7461 301.264 47.0684C301.665 47.3835 302.005 47.806 302.284 48.3359C302.571 48.8587 302.789 49.4997 302.939 50.2588C303.09 51.0179 303.165 51.9095 303.165 52.9336ZM301.167 55.6406V52.6006C301.167 51.8988 301.124 51.2829 301.038 50.7529C300.959 50.2158 300.841 49.7575 300.684 49.3779C300.526 48.9984 300.326 48.6904 300.082 48.4541C299.846 48.2178 299.57 48.0459 299.255 47.9385C298.947 47.8239 298.6 47.7666 298.213 47.7666C297.74 47.7666 297.321 47.8561 296.956 48.0352C296.591 48.207 296.283 48.4827 296.032 48.8623C295.789 49.2419 295.603 49.7396 295.474 50.3555C295.345 50.9714 295.28 51.7197 295.28 52.6006V55.6406C295.28 56.3424 295.32 56.9619 295.398 57.499C295.484 58.0361 295.61 58.5016 295.774 58.8955C295.939 59.2822 296.14 59.6009 296.376 59.8516C296.612 60.1022 296.884 60.2884 297.192 60.4102C297.507 60.5247 297.855 60.582 298.234 60.582C298.721 60.582 299.147 60.4889 299.513 60.3027C299.878 60.1165 300.182 59.8265 300.426 59.4326C300.676 59.0316 300.863 58.5195 300.984 57.8965C301.106 57.2663 301.167 56.5143 301.167 55.6406ZM315.97 52.9336V55.3184C315.97 56.6003 315.855 57.6816 315.626 58.5625C315.397 59.4434 315.067 60.1523 314.638 60.6895C314.208 61.2266 313.689 61.6169 313.08 61.8604C312.479 62.0967 311.798 62.2148 311.039 62.2148C310.438 62.2148 309.882 62.1396 309.374 61.9893C308.866 61.8389 308.407 61.599 307.999 61.2695C307.598 60.9329 307.254 60.4961 306.968 59.959C306.681 59.4219 306.463 58.7702 306.312 58.0039C306.162 57.2376 306.087 56.3424 306.087 55.3184V52.9336C306.087 51.6517 306.201 50.5775 306.431 49.7109C306.667 48.8444 307 48.1497 307.43 47.627C307.859 47.097 308.375 46.7174 308.977 46.4883C309.585 46.2591 310.266 46.1445 311.018 46.1445C311.626 46.1445 312.185 46.2197 312.693 46.3701C313.209 46.5133 313.667 46.7461 314.068 47.0684C314.469 47.3835 314.81 47.806 315.089 48.3359C315.375 48.8587 315.594 49.4997 315.744 50.2588C315.895 51.0179 315.97 51.9095 315.97 52.9336ZM313.972 55.6406V52.6006C313.972 51.8988 313.929 51.2829 313.843 50.7529C313.764 50.2158 313.646 49.7575 313.488 49.3779C313.331 48.9984 313.13 48.6904 312.887 48.4541C312.65 48.2178 312.375 48.0459 312.06 47.9385C311.752 47.8239 311.404 47.7666 311.018 47.7666C310.545 47.7666 310.126 47.8561 309.761 48.0352C309.396 48.207 309.088 48.4827 308.837 48.8623C308.593 49.2419 308.407 49.7396 308.278 50.3555C308.149 50.9714 308.085 51.7197 308.085 52.6006V55.6406C308.085 56.3424 308.124 56.9619 308.203 57.499C308.289 58.0361 308.414 58.5016 308.579 58.8955C308.744 59.2822 308.944 59.6009 309.181 59.8516C309.417 60.1022 309.689 60.2884 309.997 60.4102C310.312 60.5247 310.66 60.582 311.039 60.582C311.526 60.582 311.952 60.4889 312.317 60.3027C312.683 60.1165 312.987 59.8265 313.23 59.4326C313.481 59.0316 313.667 58.5195 313.789 57.8965C313.911 57.2663 313.972 56.5143 313.972 55.6406Z" fill="#1D1D1B"/>
<path d="M318.849 48.9268C318.849 48.4183 318.974 47.9528 319.225 47.5303C319.475 47.1077 319.808 46.7712 320.224 46.5205C320.639 46.2627 321.094 46.1338 321.588 46.1338C322.082 46.1338 322.533 46.2627 322.941 46.5205C323.35 46.7712 323.675 47.1077 323.919 47.5303C324.162 47.9528 324.284 48.4183 324.284 48.9268C324.284 49.4352 324.162 49.9007 323.919 50.3232C323.675 50.7386 323.35 51.0716 322.941 51.3223C322.533 51.5658 322.082 51.6875 321.588 51.6875C321.094 51.6875 320.639 51.5658 320.224 51.3223C319.808 51.0716 319.475 50.7386 319.225 50.3232C318.974 49.9007 318.849 49.4352 318.849 48.9268ZM320.181 48.9268C320.181 49.3206 320.317 49.6501 320.589 49.915C320.868 50.18 321.201 50.3125 321.588 50.3125C321.975 50.3125 322.297 50.18 322.555 49.915C322.82 49.6501 322.952 49.3206 322.952 48.9268C322.952 48.5257 322.82 48.1891 322.555 47.917C322.297 47.6449 321.975 47.5088 321.588 47.5088C321.201 47.5088 320.868 47.6449 320.589 47.917C320.317 48.1891 320.181 48.5257 320.181 48.9268ZM336.928 57.0264H338.99C338.883 58.0146 338.6 58.8991 338.142 59.6797C337.683 60.4603 337.035 61.0798 336.197 61.5381C335.359 61.9893 334.314 62.2148 333.061 62.2148C332.144 62.2148 331.31 62.043 330.558 61.6992C329.813 61.3555 329.172 60.8685 328.635 60.2383C328.098 59.6009 327.682 58.8382 327.389 57.9502C327.102 57.055 326.959 56.0596 326.959 54.9639V53.4062C326.959 52.3105 327.102 51.3187 327.389 50.4307C327.682 49.5355 328.101 48.7692 328.646 48.1318C329.197 47.4945 329.859 47.0039 330.633 46.6602C331.406 46.3164 332.276 46.1445 333.243 46.1445C334.425 46.1445 335.424 46.3665 336.24 46.8105C337.057 47.2546 337.69 47.8704 338.142 48.6582C338.6 49.4388 338.883 50.3447 338.99 51.376H336.928C336.827 50.6455 336.641 50.0189 336.369 49.4961C336.097 48.9661 335.71 48.5579 335.209 48.2715C334.708 47.985 334.052 47.8418 333.243 47.8418C332.549 47.8418 331.936 47.9743 331.406 48.2393C330.883 48.5042 330.443 48.8802 330.085 49.3672C329.734 49.8542 329.469 50.4378 329.29 51.1182C329.111 51.7985 329.021 52.554 329.021 53.3848V54.9639C329.021 55.7301 329.1 56.4499 329.258 57.123C329.423 57.7962 329.67 58.387 329.999 58.8955C330.328 59.404 330.747 59.805 331.256 60.0986C331.764 60.3851 332.366 60.5283 333.061 60.5283C333.941 60.5283 334.643 60.3887 335.166 60.1094C335.689 59.8301 336.083 59.429 336.348 58.9062C336.62 58.3835 336.813 57.7568 336.928 57.0264Z" fill="#64635F"/>
<path d="M202.863 49L209.045 49L209.045 59L202.863 59L202.863 49Z" fill="#1D1D1B" stroke="#F0EFEB" stroke-width="2"/>
<defs>
<linearGradient id="paint0_linear_15254_100713" x1="251" y1="54" x2="28" y2="54" gradientUnits="userSpaceOnUse">
<stop stop-color="#D66A67"/>
<stop offset="0.473958" stop-color="#7E6EB7"/>
<stop offset="1" stop-color="#5991CE"/>
</linearGradient>
</defs>
</svg>
