<svg width="336" height="40" viewBox="0 0 336 40" fill="none" xmlns="http://www.w3.org/2000/svg">
<rect x="1" y="1" width="334" height="38" rx="5" fill="url(#paint0_linear_15790_236195)"/>
<rect x="1" y="1" width="334" height="38" rx="5" stroke="url(#paint1_linear_15790_236195)" stroke-width="2"/>
<path d="M10.501 13.2031H12.1445L16.3369 23.6357L20.5205 13.2031H22.1729L16.9697 26H15.6865L10.501 13.2031ZM9.96484 13.2031H11.415L11.6523 21.0078V26H9.96484V13.2031ZM21.25 13.2031H22.7002V26H21.0127V21.0078L21.25 13.2031ZM27.2002 16.4902V26H25.5654V16.4902H27.2002ZM25.4424 13.9678C25.4424 13.7041 25.5215 13.4814 25.6797 13.2998C25.8438 13.1182 26.084 13.0273 26.4004 13.0273C26.7109 13.0273 26.9482 13.1182 27.1123 13.2998C27.2822 13.4814 27.3672 13.7041 27.3672 13.9678C27.3672 14.2197 27.2822 14.4365 27.1123 14.6182C26.9482 14.7939 26.7109 14.8818 26.4004 14.8818C26.084 14.8818 25.8438 14.7939 25.6797 14.6182C25.5215 14.4365 25.4424 14.2197 25.4424 13.9678ZM31.4365 18.5205V26H29.8105V16.4902H31.3486L31.4365 18.5205ZM31.0498 20.8848L30.373 20.8584C30.3789 20.208 30.4756 19.6074 30.6631 19.0566C30.8506 18.5 31.1143 18.0166 31.4541 17.6064C31.7939 17.1963 32.1982 16.8799 32.667 16.6572C33.1416 16.4287 33.666 16.3145 34.2402 16.3145C34.709 16.3145 35.1309 16.3789 35.5059 16.5078C35.8809 16.6309 36.2002 16.8301 36.4639 17.1055C36.7334 17.3809 36.9385 17.7383 37.0791 18.1777C37.2197 18.6113 37.29 19.1416 37.29 19.7686V26H35.6553V19.751C35.6553 19.2529 35.582 18.8545 35.4355 18.5557C35.2891 18.251 35.0752 18.0312 34.7939 17.8965C34.5127 17.7559 34.167 17.6855 33.7568 17.6855C33.3525 17.6855 32.9834 17.7705 32.6494 17.9404C32.3213 18.1104 32.0371 18.3447 31.7969 18.6436C31.5625 18.9424 31.3779 19.2852 31.2432 19.6719C31.1143 20.0527 31.0498 20.457 31.0498 20.8848Z" fill="#1D1D1B"/>
<rect x="55" y="18" width="4" height="4" rx="2" fill="white"/>
<rect x="82.25" y="18" width="4" height="4" rx="2" fill="white"/>
<rect x="109.5" y="18" width="4" height="4" rx="2" fill="white"/>
<rect x="136.75" y="18" width="4" height="4" rx="2" fill="white"/>
<rect x="164" y="18" width="4" height="4" rx="2" fill="white"/>
<rect x="191.25" y="6" width="4" height="28" rx="2" fill="white"/>
<rect x="218.5" y="18" width="4" height="4" rx="2" fill="white"/>
<rect x="245.75" y="18" width="4" height="4" rx="2" fill="white"/>
<rect x="273" y="18" width="4" height="4" rx="2" fill="white"/>
<path d="M295.304 13.2031H296.947L301.14 23.6357L305.323 13.2031H306.976L301.772 26H300.489L295.304 13.2031ZM294.768 13.2031H296.218L296.455 21.0078V26H294.768V13.2031ZM306.053 13.2031H307.503V26H305.815V21.0078L306.053 13.2031ZM315.844 24.374V19.4785C315.844 19.1035 315.768 18.7783 315.615 18.5029C315.469 18.2217 315.246 18.0049 314.947 17.8525C314.648 17.7002 314.279 17.624 313.84 17.624C313.43 17.624 313.069 17.6943 312.759 17.835C312.454 17.9756 312.214 18.1602 312.038 18.3887C311.868 18.6172 311.783 18.8633 311.783 19.127H310.157C310.157 18.7871 310.245 18.4502 310.421 18.1162C310.597 17.7822 310.849 17.4805 311.177 17.2109C311.511 16.9355 311.909 16.7188 312.372 16.5605C312.841 16.3965 313.362 16.3145 313.937 16.3145C314.628 16.3145 315.237 16.4316 315.765 16.666C316.298 16.9004 316.714 17.2549 317.013 17.7295C317.317 18.1982 317.47 18.7871 317.47 19.4961V23.9258C317.47 24.2422 317.496 24.5791 317.549 24.9365C317.607 25.2939 317.692 25.6016 317.804 25.8594V26H316.107C316.025 25.8125 315.961 25.5635 315.914 25.2529C315.867 24.9365 315.844 24.6436 315.844 24.374ZM316.125 20.2344L316.143 21.377H314.499C314.036 21.377 313.623 21.415 313.26 21.4912C312.896 21.5615 312.592 21.6699 312.346 21.8164C312.1 21.9629 311.912 22.1475 311.783 22.3701C311.654 22.5869 311.59 22.8418 311.59 23.1348C311.59 23.4336 311.657 23.7061 311.792 23.9521C311.927 24.1982 312.129 24.3945 312.398 24.541C312.674 24.6816 313.011 24.752 313.409 24.752C313.907 24.752 314.347 24.6465 314.728 24.4355C315.108 24.2246 315.41 23.9668 315.633 23.6621C315.861 23.3574 315.984 23.0615 316.002 22.7744L316.696 23.5566C316.655 23.8027 316.544 24.0752 316.362 24.374C316.181 24.6729 315.938 24.96 315.633 25.2354C315.334 25.5049 314.977 25.7305 314.561 25.9121C314.15 26.0879 313.688 26.1758 313.172 26.1758C312.527 26.1758 311.962 26.0498 311.476 25.7979C310.995 25.5459 310.62 25.209 310.351 24.7871C310.087 24.3594 309.955 23.8818 309.955 23.3545C309.955 22.8447 310.055 22.3965 310.254 22.0098C310.453 21.6172 310.74 21.292 311.115 21.0342C311.49 20.7705 311.941 20.5713 312.469 20.4365C312.996 20.3018 313.585 20.2344 314.235 20.2344H316.125ZM321.126 16.4902L323.209 19.9531L325.318 16.4902H327.226L324.114 21.1836L327.322 26H325.441L323.244 22.4316L321.047 26H319.157L322.356 21.1836L319.254 16.4902H321.126Z" fill="#1D1D1B"/>
<defs>
<linearGradient id="paint0_linear_15790_236195" x1="336" y1="20" x2="0" y2="20" gradientUnits="userSpaceOnUse">
<stop stop-color="#D66A67"/>
<stop offset="0.473958" stop-color="#7E6EB7"/>
<stop offset="1" stop-color="#5991CE"/>
</linearGradient>
<linearGradient id="paint1_linear_15790_236195" x1="-0.000445297" y1="19.9985" x2="305.357" y2="-76.7326" gradientUnits="userSpaceOnUse">
<stop stop-color="#387DC5"/>
<stop offset="1" stop-color="#F35C58"/>
</linearGradient>
</defs>
</svg>
