<svg width="336" height="40" viewBox="0 0 336 40" fill="none" xmlns="http://www.w3.org/2000/svg">
<rect x="203" y="1" width="38" height="202" rx="5" transform="rotate(90 203 1)" fill="#15304A" stroke="#387DC5" stroke-width="2"/>
<path d="M102 40L102 1.52588e-05L194.34 2.98284e-05C197.757 3.03675e-05 199.465 3.06371e-05 200.766 0.675549C201.862 1.2448 202.755 2.13833 203.324 3.23418C204 4.53462 204 6.24309 204 9.66003L204 30.34C204 33.757 204 35.4654 203.324 36.7659C202.755 37.8617 201.862 38.7552 200.766 39.3245C199.465 40 197.757 40 194.34 40L102 40Z" fill="#387DC5"/>
<path d="M152.988 20.1973V21.0059C152.988 21.9668 152.868 22.8281 152.628 23.5898C152.388 24.3516 152.042 24.999 151.591 25.5322C151.14 26.0654 150.598 26.4727 149.965 26.7539C149.338 27.0352 148.635 27.1758 147.855 27.1758C147.1 27.1758 146.405 27.0352 145.772 26.7539C145.146 26.4727 144.601 26.0654 144.138 25.5322C143.681 24.999 143.326 24.3516 143.074 23.5898C142.822 22.8281 142.696 21.9668 142.696 21.0059V20.1973C142.696 19.2363 142.819 18.3779 143.065 17.6221C143.317 16.8604 143.672 16.2129 144.129 15.6797C144.586 15.1406 145.128 14.7305 145.755 14.4492C146.388 14.168 147.082 14.0273 147.838 14.0273C148.617 14.0273 149.32 14.168 149.947 14.4492C150.58 14.7305 151.122 15.1406 151.573 15.6797C152.03 16.2129 152.379 16.8604 152.619 17.6221C152.865 18.3779 152.988 19.2363 152.988 20.1973ZM151.31 21.0059V20.1797C151.31 19.418 151.23 18.7441 151.072 18.1582C150.92 17.5723 150.694 17.0801 150.396 16.6816C150.097 16.2832 149.73 15.9814 149.297 15.7764C148.869 15.5713 148.383 15.4688 147.838 15.4688C147.311 15.4688 146.833 15.5713 146.405 15.7764C145.983 15.9814 145.62 16.2832 145.315 16.6816C145.017 17.0801 144.785 17.5723 144.621 18.1582C144.457 18.7441 144.375 19.418 144.375 20.1797V21.0059C144.375 21.7734 144.457 22.4531 144.621 23.0449C144.785 23.6309 145.02 24.126 145.324 24.5303C145.635 24.9287 146.001 25.2305 146.423 25.4355C146.851 25.6406 147.328 25.7432 147.855 25.7432C148.406 25.7432 148.896 25.6406 149.323 25.4355C149.751 25.2305 150.111 24.9287 150.404 24.5303C150.703 24.126 150.929 23.6309 151.081 23.0449C151.233 22.4531 151.31 21.7734 151.31 21.0059ZM156.908 19.5205V27H155.282V17.4902H156.82L156.908 19.5205ZM156.521 21.8848L155.845 21.8584C155.851 21.208 155.947 20.6074 156.135 20.0566C156.322 19.5 156.586 19.0166 156.926 18.6064C157.266 18.1963 157.67 17.8799 158.139 17.6572C158.613 17.4287 159.138 17.3145 159.712 17.3145C160.181 17.3145 160.603 17.3789 160.978 17.5078C161.353 17.6309 161.672 17.8301 161.936 18.1055C162.205 18.3809 162.41 18.7383 162.551 19.1777C162.691 19.6113 162.762 20.1416 162.762 20.7686V27H161.127V20.751C161.127 20.2529 161.054 19.8545 160.907 19.5557C160.761 19.251 160.547 19.0312 160.266 18.8965C159.984 18.7559 159.639 18.6855 159.229 18.6855C158.824 18.6855 158.455 18.7705 158.121 18.9404C157.793 19.1104 157.509 19.3447 157.269 19.6436C157.034 19.9424 156.85 20.2852 156.715 20.6719C156.586 21.0527 156.521 21.457 156.521 21.8848Z" fill="#FAF9F5"/>
<path d="M49.4912 20.1973V21.0059C49.4912 21.9668 49.3711 22.8281 49.1309 23.5898C48.8906 24.3516 48.5449 24.999 48.0938 25.5322C47.6426 26.0654 47.1006 26.4727 46.4678 26.7539C45.8408 27.0352 45.1377 27.1758 44.3584 27.1758C43.6025 27.1758 42.9082 27.0352 42.2754 26.7539C41.6484 26.4727 41.1035 26.0654 40.6406 25.5322C40.1836 24.999 39.8291 24.3516 39.5771 23.5898C39.3252 22.8281 39.1992 21.9668 39.1992 21.0059V20.1973C39.1992 19.2363 39.3223 18.3779 39.5684 17.6221C39.8203 16.8604 40.1748 16.2129 40.6318 15.6797C41.0889 15.1406 41.6309 14.7305 42.2578 14.4492C42.8906 14.168 43.585 14.0273 44.3408 14.0273C45.1201 14.0273 45.8232 14.168 46.4502 14.4492C47.083 14.7305 47.625 15.1406 48.0762 15.6797C48.5332 16.2129 48.8818 16.8604 49.1221 17.6221C49.3682 18.3779 49.4912 19.2363 49.4912 20.1973ZM47.8125 21.0059V20.1797C47.8125 19.418 47.7334 18.7441 47.5752 18.1582C47.4229 17.5723 47.1973 17.0801 46.8984 16.6816C46.5996 16.2832 46.2334 15.9814 45.7998 15.7764C45.3721 15.5713 44.8857 15.4688 44.3408 15.4688C43.8135 15.4688 43.3359 15.5713 42.9082 15.7764C42.4863 15.9814 42.123 16.2832 41.8184 16.6816C41.5195 17.0801 41.2881 17.5723 41.124 18.1582C40.96 18.7441 40.8779 19.418 40.8779 20.1797V21.0059C40.8779 21.7734 40.96 22.4531 41.124 23.0449C41.2881 23.6309 41.5225 24.126 41.8271 24.5303C42.1377 24.9287 42.5039 25.2305 42.9258 25.4355C43.3535 25.6406 43.8311 25.7432 44.3584 25.7432C44.9092 25.7432 45.3984 25.6406 45.8262 25.4355C46.2539 25.2305 46.6143 24.9287 46.9072 24.5303C47.2061 24.126 47.4316 23.6309 47.584 23.0449C47.7363 22.4531 47.8125 21.7734 47.8125 21.0059ZM54.2109 27H52.585V16.4883C52.585 15.8027 52.708 15.2256 52.9541 14.7568C53.2061 14.2822 53.5664 13.9248 54.0352 13.6846C54.5039 13.4385 55.0605 13.3154 55.7051 13.3154C55.8926 13.3154 56.0801 13.3271 56.2676 13.3506C56.4609 13.374 56.6484 13.4092 56.8301 13.4561L56.7422 14.7832C56.6191 14.7539 56.4785 14.7334 56.3203 14.7217C56.168 14.71 56.0156 14.7041 55.8633 14.7041C55.5176 14.7041 55.2188 14.7744 54.9668 14.915C54.7207 15.0498 54.5332 15.249 54.4043 15.5127C54.2754 15.7764 54.2109 16.1016 54.2109 16.4883V27ZM56.2324 17.4902V18.7383H51.082V17.4902H56.2324ZM60.4688 27H58.8428V16.4883C58.8428 15.8027 58.9658 15.2256 59.2119 14.7568C59.4639 14.2822 59.8242 13.9248 60.293 13.6846C60.7617 13.4385 61.3184 13.3154 61.9629 13.3154C62.1504 13.3154 62.3379 13.3271 62.5254 13.3506C62.7188 13.374 62.9062 13.4092 63.0879 13.4561L63 14.7832C62.877 14.7539 62.7363 14.7334 62.5781 14.7217C62.4258 14.71 62.2734 14.7041 62.1211 14.7041C61.7754 14.7041 61.4766 14.7744 61.2246 14.915C60.9785 15.0498 60.791 15.249 60.6621 15.5127C60.5332 15.7764 60.4688 16.1016 60.4688 16.4883V27ZM62.4902 17.4902V18.7383H57.3398V17.4902H62.4902Z" fill="#FAF9F5"/>
<rect x="335" y="1" width="38" height="114" rx="5" transform="rotate(90 335 1)" fill="#15304A" stroke="#387DC5" stroke-width="2"/>
<path d="M265.449 15.3369L261.213 27H259.481L264.359 14.2031H265.476L265.449 15.3369ZM269 27L264.755 15.3369L264.729 14.2031H265.845L270.74 27H269ZM268.78 22.2627V23.6514H261.591V22.2627H268.78ZM277.921 24.8027V17.4902H279.556V27H278L277.921 24.8027ZM278.229 22.7988L278.905 22.7812C278.905 23.4141 278.838 24 278.703 24.5391C278.574 25.0723 278.363 25.5352 278.07 25.9277C277.777 26.3203 277.394 26.6279 276.919 26.8506C276.444 27.0674 275.867 27.1758 275.188 27.1758C274.725 27.1758 274.3 27.1084 273.913 26.9736C273.532 26.8389 273.204 26.6309 272.929 26.3496C272.653 26.0684 272.439 25.7021 272.287 25.251C272.141 24.7998 272.067 24.2578 272.067 23.625V17.4902H273.693V23.6426C273.693 24.0703 273.74 24.4248 273.834 24.7061C273.934 24.9814 274.065 25.2012 274.229 25.3652C274.399 25.5234 274.587 25.6348 274.792 25.6992C275.003 25.7637 275.22 25.7959 275.442 25.7959C276.134 25.7959 276.682 25.6641 277.086 25.4004C277.49 25.1309 277.78 24.7705 277.956 24.3193C278.138 23.8623 278.229 23.3555 278.229 22.7988ZM286.016 17.4902V18.7383H280.874V17.4902H286.016ZM282.614 15.1787H284.24V24.6445C284.24 24.9668 284.29 25.21 284.39 25.374C284.489 25.5381 284.618 25.6465 284.776 25.6992C284.935 25.752 285.104 25.7783 285.286 25.7783C285.421 25.7783 285.562 25.7666 285.708 25.7432C285.86 25.7139 285.975 25.6904 286.051 25.6729L286.06 27C285.931 27.041 285.761 27.0791 285.55 27.1143C285.345 27.1553 285.096 27.1758 284.803 27.1758C284.404 27.1758 284.038 27.0967 283.704 26.9385C283.37 26.7803 283.104 26.5166 282.904 26.1475C282.711 25.7725 282.614 25.2686 282.614 24.6357V15.1787ZM287.316 22.3506V22.1484C287.316 21.4629 287.416 20.8271 287.615 20.2412C287.814 19.6494 288.102 19.1367 288.477 18.7031C288.852 18.2637 289.306 17.9238 289.839 17.6836C290.372 17.4375 290.97 17.3145 291.632 17.3145C292.3 17.3145 292.9 17.4375 293.434 17.6836C293.973 17.9238 294.43 18.2637 294.805 18.7031C295.186 19.1367 295.476 19.6494 295.675 20.2412C295.874 20.8271 295.974 21.4629 295.974 22.1484V22.3506C295.974 23.0361 295.874 23.6719 295.675 24.2578C295.476 24.8438 295.186 25.3564 294.805 25.7959C294.43 26.2295 293.976 26.5693 293.442 26.8154C292.915 27.0557 292.317 27.1758 291.649 27.1758C290.981 27.1758 290.381 27.0557 289.848 26.8154C289.314 26.5693 288.857 26.2295 288.477 25.7959C288.102 25.3564 287.814 24.8438 287.615 24.2578C287.416 23.6719 287.316 23.0361 287.316 22.3506ZM288.942 22.1484V22.3506C288.942 22.8252 288.998 23.2734 289.109 23.6953C289.221 24.1113 289.388 24.4805 289.61 24.8027C289.839 25.125 290.123 25.3799 290.463 25.5674C290.803 25.749 291.198 25.8398 291.649 25.8398C292.095 25.8398 292.484 25.749 292.818 25.5674C293.158 25.3799 293.439 25.125 293.662 24.8027C293.885 24.4805 294.052 24.1113 294.163 23.6953C294.28 23.2734 294.339 22.8252 294.339 22.3506V22.1484C294.339 21.6797 294.28 21.2373 294.163 20.8213C294.052 20.3994 293.882 20.0273 293.653 19.7051C293.431 19.377 293.149 19.1191 292.81 18.9316C292.476 18.7441 292.083 18.6504 291.632 18.6504C291.187 18.6504 290.794 18.7441 290.454 18.9316C290.12 19.1191 289.839 19.377 289.61 19.7051C289.388 20.0273 289.221 20.3994 289.109 20.8213C288.998 21.2373 288.942 21.6797 288.942 22.1484Z" fill="#FAF9F5"/>
</svg>
