<svg width="336" height="40" viewBox="0 0 336 40" fill="none" xmlns="http://www.w3.org/2000/svg">
<rect x="335" y="1" width="38" height="334" rx="5" transform="rotate(90 335 1)" fill="#15304A" stroke="#387DC5" stroke-width="2"/>
<path d="M168 40L168 1.52588e-05L326.34 3.57635e-05C329.757 3.6206e-05 331.465 3.64273e-05 332.766 0.675555C333.862 1.24481 334.755 2.13833 335.324 3.23419C336 4.53462 336 6.24309 336 9.66004L336 30.34C336 33.757 336 35.4654 335.324 36.7659C334.755 37.8617 333.862 38.7552 332.766 39.3245C331.465 40 329.757 40 326.34 40L168 40Z" fill="#387DC5"/>
<path d="M252.667 20.1973V21.0059C252.667 21.9668 252.547 22.8281 252.307 23.5898C252.066 24.3516 251.721 24.999 251.27 25.5322C250.818 26.0654 250.276 26.4727 249.644 26.7539C249.017 27.0352 248.313 27.1758 247.534 27.1758C246.778 27.1758 246.084 27.0352 245.451 26.7539C244.824 26.4727 244.279 26.0654 243.816 25.5322C243.359 24.999 243.005 24.3516 242.753 23.5898C242.501 22.8281 242.375 21.9668 242.375 21.0059V20.1973C242.375 19.2363 242.498 18.3779 242.744 17.6221C242.996 16.8604 243.351 16.2129 243.808 15.6797C244.265 15.1406 244.807 14.7305 245.434 14.4492C246.066 14.168 246.761 14.0273 247.517 14.0273C248.296 14.0273 248.999 14.168 249.626 14.4492C250.259 14.7305 250.801 15.1406 251.252 15.6797C251.709 16.2129 252.058 16.8604 252.298 17.6221C252.544 18.3779 252.667 19.2363 252.667 20.1973ZM250.988 21.0059V20.1797C250.988 19.418 250.909 18.7441 250.751 18.1582C250.599 17.5723 250.373 17.0801 250.074 16.6816C249.775 16.2832 249.409 15.9814 248.976 15.7764C248.548 15.5713 248.062 15.4688 247.517 15.4688C246.989 15.4688 246.512 15.5713 246.084 15.7764C245.662 15.9814 245.299 16.2832 244.994 16.6816C244.695 17.0801 244.464 17.5723 244.3 18.1582C244.136 18.7441 244.054 19.418 244.054 20.1797V21.0059C244.054 21.7734 244.136 22.4531 244.3 23.0449C244.464 23.6309 244.698 24.126 245.003 24.5303C245.313 24.9287 245.68 25.2305 246.102 25.4355C246.529 25.6406 247.007 25.7432 247.534 25.7432C248.085 25.7432 248.574 25.6406 249.002 25.4355C249.43 25.2305 249.79 24.9287 250.083 24.5303C250.382 24.126 250.607 23.6309 250.76 23.0449C250.912 22.4531 250.988 21.7734 250.988 21.0059ZM256.587 19.5205V27H254.961V17.4902H256.499L256.587 19.5205ZM256.2 21.8848L255.523 21.8584C255.529 21.208 255.626 20.6074 255.813 20.0566C256.001 19.5 256.265 19.0166 256.604 18.6064C256.944 18.1963 257.349 17.8799 257.817 17.6572C258.292 17.4287 258.816 17.3145 259.391 17.3145C259.859 17.3145 260.281 17.3789 260.656 17.5078C261.031 17.6309 261.351 17.8301 261.614 18.1055C261.884 18.3809 262.089 18.7383 262.229 19.1777C262.37 19.6113 262.44 20.1416 262.44 20.7686V27H260.806V20.751C260.806 20.2529 260.732 19.8545 260.586 19.5557C260.439 19.251 260.226 19.0312 259.944 18.8965C259.663 18.7559 259.317 18.6855 258.907 18.6855C258.503 18.6855 258.134 18.7705 257.8 18.9404C257.472 19.1104 257.188 19.3447 256.947 19.6436C256.713 19.9424 256.528 20.2852 256.394 20.6719C256.265 21.0527 256.2 21.457 256.2 21.8848Z" fill="#FAF9F5"/>
<path d="M82.3838 20.1973V21.0059C82.3838 21.9668 82.2637 22.8281 82.0234 23.5898C81.7832 24.3516 81.4375 24.999 80.9863 25.5322C80.5352 26.0654 79.9932 26.4727 79.3604 26.7539C78.7334 27.0352 78.0303 27.1758 77.251 27.1758C76.4951 27.1758 75.8008 27.0352 75.168 26.7539C74.541 26.4727 73.9961 26.0654 73.5332 25.5322C73.0762 24.999 72.7217 24.3516 72.4697 23.5898C72.2178 22.8281 72.0918 21.9668 72.0918 21.0059V20.1973C72.0918 19.2363 72.2148 18.3779 72.4609 17.6221C72.7129 16.8604 73.0674 16.2129 73.5244 15.6797C73.9814 15.1406 74.5234 14.7305 75.1504 14.4492C75.7832 14.168 76.4775 14.0273 77.2334 14.0273C78.0127 14.0273 78.7158 14.168 79.3428 14.4492C79.9756 14.7305 80.5176 15.1406 80.9688 15.6797C81.4258 16.2129 81.7744 16.8604 82.0146 17.6221C82.2607 18.3779 82.3838 19.2363 82.3838 20.1973ZM80.7051 21.0059V20.1797C80.7051 19.418 80.626 18.7441 80.4678 18.1582C80.3154 17.5723 80.0898 17.0801 79.791 16.6816C79.4922 16.2832 79.126 15.9814 78.6924 15.7764C78.2646 15.5713 77.7783 15.4688 77.2334 15.4688C76.7061 15.4688 76.2285 15.5713 75.8008 15.7764C75.3789 15.9814 75.0156 16.2832 74.7109 16.6816C74.4121 17.0801 74.1807 17.5723 74.0166 18.1582C73.8525 18.7441 73.7705 19.418 73.7705 20.1797V21.0059C73.7705 21.7734 73.8525 22.4531 74.0166 23.0449C74.1807 23.6309 74.415 24.126 74.7197 24.5303C75.0303 24.9287 75.3965 25.2305 75.8184 25.4355C76.2461 25.6406 76.7236 25.7432 77.251 25.7432C77.8018 25.7432 78.291 25.6406 78.7188 25.4355C79.1465 25.2305 79.5068 24.9287 79.7998 24.5303C80.0986 24.126 80.3242 23.6309 80.4766 23.0449C80.6289 22.4531 80.7051 21.7734 80.7051 21.0059ZM87.1035 27H85.4775V16.4883C85.4775 15.8027 85.6006 15.2256 85.8467 14.7568C86.0986 14.2822 86.459 13.9248 86.9277 13.6846C87.3965 13.4385 87.9531 13.3154 88.5977 13.3154C88.7852 13.3154 88.9727 13.3271 89.1602 13.3506C89.3535 13.374 89.541 13.4092 89.7227 13.4561L89.6348 14.7832C89.5117 14.7539 89.3711 14.7334 89.2129 14.7217C89.0605 14.71 88.9082 14.7041 88.7559 14.7041C88.4102 14.7041 88.1113 14.7744 87.8594 14.915C87.6133 15.0498 87.4258 15.249 87.2969 15.5127C87.168 15.7764 87.1035 16.1016 87.1035 16.4883V27ZM89.125 17.4902V18.7383H83.9746V17.4902H89.125ZM93.3613 27H91.7354V16.4883C91.7354 15.8027 91.8584 15.2256 92.1045 14.7568C92.3564 14.2822 92.7168 13.9248 93.1855 13.6846C93.6543 13.4385 94.2109 13.3154 94.8555 13.3154C95.043 13.3154 95.2305 13.3271 95.418 13.3506C95.6113 13.374 95.7988 13.4092 95.9805 13.4561L95.8926 14.7832C95.7695 14.7539 95.6289 14.7334 95.4707 14.7217C95.3184 14.71 95.166 14.7041 95.0137 14.7041C94.668 14.7041 94.3691 14.7744 94.1172 14.915C93.8711 15.0498 93.6836 15.249 93.5547 15.5127C93.4258 15.7764 93.3613 16.1016 93.3613 16.4883V27ZM95.3828 17.4902V18.7383H90.2324V17.4902H95.3828Z" fill="#FAF9F5"/>
</svg>
