<svg width="368" height="90" viewBox="0 0 368 90" fill="none" xmlns="http://www.w3.org/2000/svg">
<path d="M24.3057 21.7656C24.3057 21.4668 24.2588 21.2031 24.165 20.9746C24.0771 20.7402 23.9189 20.5293 23.6904 20.3418C23.4678 20.1543 23.1572 19.9756 22.7588 19.8057C22.3662 19.6357 21.8682 19.4629 21.2646 19.2871C20.6318 19.0996 20.0605 18.8916 19.5508 18.6631C19.041 18.4287 18.6045 18.1621 18.2412 17.8633C17.8779 17.5645 17.5996 17.2217 17.4062 16.835C17.2129 16.4482 17.1162 16.0059 17.1162 15.5078C17.1162 15.0098 17.2188 14.5498 17.4238 14.1279C17.6289 13.7061 17.9219 13.3398 18.3027 13.0293C18.6895 12.7129 19.1494 12.4668 19.6826 12.291C20.2158 12.1152 20.8105 12.0273 21.4668 12.0273C22.4277 12.0273 23.2422 12.2119 23.9102 12.5811C24.584 12.9443 25.0967 13.4219 25.4482 14.0137C25.7998 14.5996 25.9756 15.2266 25.9756 15.8945H24.2881C24.2881 15.4141 24.1855 14.9893 23.9805 14.6201C23.7754 14.2451 23.4648 13.9521 23.0488 13.7412C22.6328 13.5244 22.1055 13.416 21.4668 13.416C20.8633 13.416 20.3652 13.5068 19.9727 13.6885C19.5801 13.8701 19.2871 14.1162 19.0938 14.4268C18.9062 14.7373 18.8125 15.0918 18.8125 15.4902C18.8125 15.7598 18.8682 16.0059 18.9795 16.2285C19.0967 16.4453 19.2754 16.6475 19.5156 16.835C19.7617 17.0225 20.0723 17.1953 20.4473 17.3535C20.8281 17.5117 21.2822 17.6641 21.8096 17.8105C22.5361 18.0156 23.1631 18.2441 23.6904 18.4961C24.2178 18.748 24.6514 19.0322 24.9912 19.3486C25.3369 19.6592 25.5918 20.0137 25.7559 20.4121C25.9258 20.8047 26.0107 21.25 26.0107 21.748C26.0107 22.2695 25.9053 22.7412 25.6943 23.1631C25.4834 23.585 25.1816 23.9453 24.7891 24.2441C24.3965 24.543 23.9248 24.7744 23.374 24.9385C22.8291 25.0967 22.2197 25.1758 21.5459 25.1758C20.9541 25.1758 20.3711 25.0938 19.7969 24.9297C19.2285 24.7656 18.71 24.5195 18.2412 24.1914C17.7783 23.8633 17.4062 23.459 17.125 22.9785C16.8496 22.4922 16.7119 21.9297 16.7119 21.291H18.3994C18.3994 21.7305 18.4844 22.1084 18.6543 22.4248C18.8242 22.7354 19.0557 22.9932 19.3486 23.1982C19.6475 23.4033 19.9844 23.5557 20.3594 23.6553C20.7402 23.749 21.1357 23.7959 21.5459 23.7959C22.1377 23.7959 22.6387 23.7139 23.0488 23.5498C23.459 23.3857 23.7695 23.1514 23.9805 22.8467C24.1973 22.542 24.3057 22.1816 24.3057 21.7656ZM27.4961 20.3506V20.1484C27.4961 19.4629 27.5957 18.8271 27.7949 18.2412C27.9941 17.6494 28.2812 17.1367 28.6562 16.7031C29.0312 16.2637 29.4854 15.9238 30.0186 15.6836C30.5518 15.4375 31.1494 15.3145 31.8115 15.3145C32.4795 15.3145 33.0801 15.4375 33.6133 15.6836C34.1523 15.9238 34.6094 16.2637 34.9844 16.7031C35.3652 17.1367 35.6553 17.6494 35.8545 18.2412C36.0537 18.8271 36.1533 19.4629 36.1533 20.1484V20.3506C36.1533 21.0361 36.0537 21.6719 35.8545 22.2578C35.6553 22.8438 35.3652 23.3564 34.9844 23.7959C34.6094 24.2295 34.1553 24.5693 33.6221 24.8154C33.0947 25.0557 32.4971 25.1758 31.8291 25.1758C31.1611 25.1758 30.5605 25.0557 30.0273 24.8154C29.4941 24.5693 29.0371 24.2295 28.6562 23.7959C28.2812 23.3564 27.9941 22.8438 27.7949 22.2578C27.5957 21.6719 27.4961 21.0361 27.4961 20.3506ZM29.1221 20.1484V20.3506C29.1221 20.8252 29.1777 21.2734 29.2891 21.6953C29.4004 22.1113 29.5674 22.4805 29.79 22.8027C30.0186 23.125 30.3027 23.3799 30.6426 23.5674C30.9824 23.749 31.3779 23.8398 31.8291 23.8398C32.2744 23.8398 32.6641 23.749 32.998 23.5674C33.3379 23.3799 33.6191 23.125 33.8418 22.8027C34.0645 22.4805 34.2314 22.1113 34.3428 21.6953C34.46 21.2734 34.5186 20.8252 34.5186 20.3506V20.1484C34.5186 19.6797 34.46 19.2373 34.3428 18.8213C34.2314 18.3994 34.0615 18.0273 33.833 17.7051C33.6104 17.377 33.3291 17.1191 32.9893 16.9316C32.6553 16.7441 32.2627 16.6504 31.8115 16.6504C31.3662 16.6504 30.9736 16.7441 30.6338 16.9316C30.2998 17.1191 30.0186 17.377 29.79 17.7051C29.5674 18.0273 29.4004 18.3994 29.2891 18.8213C29.1777 19.2373 29.1221 19.6797 29.1221 20.1484ZM44.0107 22.8027V15.4902H45.6455V25H44.0898L44.0107 22.8027ZM44.3184 20.7988L44.9951 20.7812C44.9951 21.4141 44.9277 22 44.793 22.5391C44.6641 23.0723 44.4531 23.5352 44.1602 23.9277C43.8672 24.3203 43.4834 24.6279 43.0088 24.8506C42.5342 25.0674 41.957 25.1758 41.2773 25.1758C40.8145 25.1758 40.3896 25.1084 40.0029 24.9736C39.6221 24.8389 39.2939 24.6309 39.0186 24.3496C38.7432 24.0684 38.5293 23.7021 38.377 23.251C38.2305 22.7998 38.1572 22.2578 38.1572 21.625V15.4902H39.7832V21.6426C39.7832 22.0703 39.8301 22.4248 39.9238 22.7061C40.0234 22.9814 40.1553 23.2012 40.3193 23.3652C40.4893 23.5234 40.6768 23.6348 40.8818 23.6992C41.0928 23.7637 41.3096 23.7959 41.5322 23.7959C42.2236 23.7959 42.7715 23.6641 43.1758 23.4004C43.5801 23.1309 43.8701 22.7705 44.0459 22.3193C44.2275 21.8623 44.3184 21.3555 44.3184 20.7988ZM49.75 16.9844V25H48.124V15.4902H49.7061L49.75 16.9844ZM52.7207 15.4375L52.7119 16.9492C52.5771 16.9199 52.4482 16.9023 52.3252 16.8965C52.208 16.8848 52.0732 16.8789 51.9209 16.8789C51.5459 16.8789 51.2148 16.9375 50.9277 17.0547C50.6406 17.1719 50.3975 17.3359 50.1982 17.5469C49.999 17.7578 49.8408 18.0098 49.7236 18.3027C49.6123 18.5898 49.5391 18.9062 49.5039 19.252L49.0469 19.5156C49.0469 18.9414 49.1025 18.4023 49.2139 17.8984C49.3311 17.3945 49.5098 16.9492 49.75 16.5625C49.9902 16.1699 50.2949 15.8652 50.6641 15.6484C51.0391 15.4258 51.4844 15.3145 52 15.3145C52.1172 15.3145 52.252 15.3291 52.4043 15.3584C52.5566 15.3818 52.6621 15.4082 52.7207 15.4375ZM57.8535 23.8398C58.2402 23.8398 58.5977 23.7607 58.9258 23.6025C59.2539 23.4443 59.5234 23.2275 59.7344 22.9521C59.9453 22.6709 60.0654 22.3516 60.0947 21.9941H61.6416C61.6123 22.5566 61.4219 23.0811 61.0703 23.5674C60.7246 24.0479 60.2705 24.4375 59.708 24.7363C59.1455 25.0293 58.5273 25.1758 57.8535 25.1758C57.1387 25.1758 56.5146 25.0498 55.9814 24.7979C55.4541 24.5459 55.0146 24.2002 54.6631 23.7607C54.3174 23.3213 54.0566 22.8174 53.8809 22.249C53.7109 21.6748 53.626 21.0684 53.626 20.4297V20.0605C53.626 19.4219 53.7109 18.8184 53.8809 18.25C54.0566 17.6758 54.3174 17.1689 54.6631 16.7295C55.0146 16.29 55.4541 15.9443 55.9814 15.6924C56.5146 15.4404 57.1387 15.3145 57.8535 15.3145C58.5977 15.3145 59.248 15.4668 59.8047 15.7715C60.3613 16.0703 60.7979 16.4805 61.1143 17.002C61.4365 17.5176 61.6123 18.1035 61.6416 18.7598H60.0947C60.0654 18.3672 59.9541 18.0127 59.7607 17.6963C59.5732 17.3799 59.3154 17.1279 58.9873 16.9404C58.665 16.7471 58.2871 16.6504 57.8535 16.6504C57.3555 16.6504 56.9365 16.75 56.5967 16.9492C56.2627 17.1426 55.9961 17.4062 55.7969 17.7402C55.6035 18.0684 55.4629 18.4346 55.375 18.8389C55.293 19.2373 55.252 19.6445 55.252 20.0605V20.4297C55.252 20.8457 55.293 21.2559 55.375 21.6602C55.457 22.0645 55.5947 22.4307 55.7881 22.7588C55.9873 23.0869 56.2539 23.3506 56.5879 23.5498C56.9277 23.7432 57.3496 23.8398 57.8535 23.8398ZM67.416 25.1758C66.7539 25.1758 66.1533 25.0645 65.6143 24.8418C65.0811 24.6133 64.6211 24.2939 64.2344 23.8838C63.8535 23.4736 63.5605 22.9873 63.3555 22.4248C63.1504 21.8623 63.0479 21.2471 63.0479 20.5791V20.21C63.0479 19.4365 63.1621 18.748 63.3906 18.1445C63.6191 17.5352 63.9297 17.0195 64.3223 16.5977C64.7148 16.1758 65.1602 15.8564 65.6582 15.6396C66.1562 15.4229 66.6719 15.3145 67.2051 15.3145C67.8848 15.3145 68.4707 15.4316 68.9629 15.666C69.4609 15.9004 69.8682 16.2285 70.1846 16.6504C70.501 17.0664 70.7354 17.5586 70.8877 18.127C71.04 18.6895 71.1162 19.3047 71.1162 19.9727V20.7021H64.0146V19.375H69.4902V19.252C69.4668 18.8301 69.3789 18.4199 69.2266 18.0215C69.0801 17.623 68.8457 17.2949 68.5234 17.0371C68.2012 16.7793 67.7617 16.6504 67.2051 16.6504C66.8359 16.6504 66.4961 16.7295 66.1855 16.8877C65.875 17.04 65.6084 17.2686 65.3857 17.5732C65.1631 17.8779 64.9902 18.25 64.8672 18.6895C64.7441 19.1289 64.6826 19.6357 64.6826 20.21V20.5791C64.6826 21.0303 64.7441 21.4551 64.8672 21.8535C64.9961 22.2461 65.1807 22.5918 65.4209 22.8906C65.667 23.1895 65.9629 23.4238 66.3086 23.5938C66.6602 23.7637 67.0586 23.8486 67.5039 23.8486C68.0781 23.8486 68.5645 23.7314 68.9629 23.4971C69.3613 23.2627 69.71 22.9492 70.0088 22.5566L70.9932 23.3389C70.7881 23.6494 70.5273 23.9453 70.2109 24.2266C69.8945 24.5078 69.5049 24.7363 69.042 24.9121C68.585 25.0879 68.043 25.1758 67.416 25.1758ZM78.6748 12.2031L73.3398 26.0986H71.9424L77.2861 12.2031H78.6748ZM84.8271 23.0576L88.5977 12.2031H90.4346L85.6973 25H84.3877L84.8271 23.0576ZM81.3027 12.2031L85.0381 23.0576L85.5039 25H84.1943L79.4658 12.2031H81.3027ZM97.1143 23.374V18.4785C97.1143 18.1035 97.0381 17.7783 96.8857 17.5029C96.7393 17.2217 96.5166 17.0049 96.2178 16.8525C95.9189 16.7002 95.5498 16.624 95.1104 16.624C94.7002 16.624 94.3398 16.6943 94.0293 16.835C93.7246 16.9756 93.4844 17.1602 93.3086 17.3887C93.1387 17.6172 93.0537 17.8633 93.0537 18.127H91.4277C91.4277 17.7871 91.5156 17.4502 91.6914 17.1162C91.8672 16.7822 92.1191 16.4805 92.4473 16.2109C92.7812 15.9355 93.1797 15.7188 93.6426 15.5605C94.1113 15.3965 94.6328 15.3145 95.207 15.3145C95.8984 15.3145 96.5078 15.4316 97.0352 15.666C97.5684 15.9004 97.9844 16.2549 98.2832 16.7295C98.5879 17.1982 98.7402 17.7871 98.7402 18.4961V22.9258C98.7402 23.2422 98.7666 23.5791 98.8193 23.9365C98.8779 24.2939 98.9629 24.6016 99.0742 24.8594V25H97.3779C97.2959 24.8125 97.2314 24.5635 97.1846 24.2529C97.1377 23.9365 97.1143 23.6436 97.1143 23.374ZM97.3955 19.2344L97.4131 20.377H95.7695C95.3066 20.377 94.8936 20.415 94.5303 20.4912C94.167 20.5615 93.8623 20.6699 93.6162 20.8164C93.3701 20.9629 93.1826 21.1475 93.0537 21.3701C92.9248 21.5869 92.8604 21.8418 92.8604 22.1348C92.8604 22.4336 92.9277 22.7061 93.0625 22.9521C93.1973 23.1982 93.3994 23.3945 93.6689 23.541C93.9443 23.6816 94.2812 23.752 94.6797 23.752C95.1777 23.752 95.6172 23.6465 95.998 23.4355C96.3789 23.2246 96.6807 22.9668 96.9033 22.6621C97.1318 22.3574 97.2549 22.0615 97.2725 21.7744L97.9668 22.5566C97.9258 22.8027 97.8145 23.0752 97.6328 23.374C97.4512 23.6729 97.208 23.96 96.9033 24.2354C96.6045 24.5049 96.2471 24.7305 95.8311 24.9121C95.4209 25.0879 94.958 25.1758 94.4424 25.1758C93.7979 25.1758 93.2324 25.0498 92.7461 24.7979C92.2656 24.5459 91.8906 24.209 91.6211 23.7871C91.3574 23.3594 91.2256 22.8818 91.2256 22.3545C91.2256 21.8447 91.3252 21.3965 91.5244 21.0098C91.7236 20.6172 92.0107 20.292 92.3857 20.0342C92.7607 19.7705 93.2119 19.5713 93.7393 19.4365C94.2666 19.3018 94.8555 19.2344 95.5059 19.2344H97.3955ZM103.064 11.5V25H101.43V11.5H103.064ZM111.493 22.8027V15.4902H113.128V25H111.572L111.493 22.8027ZM111.801 20.7988L112.478 20.7812C112.478 21.4141 112.41 22 112.275 22.5391C112.146 23.0723 111.936 23.5352 111.643 23.9277C111.35 24.3203 110.966 24.6279 110.491 24.8506C110.017 25.0674 109.439 25.1758 108.76 25.1758C108.297 25.1758 107.872 25.1084 107.485 24.9736C107.104 24.8389 106.776 24.6309 106.501 24.3496C106.226 24.0684 106.012 23.7021 105.859 23.251C105.713 22.7998 105.64 22.2578 105.64 21.625V15.4902H107.266V21.6426C107.266 22.0703 107.312 22.4248 107.406 22.7061C107.506 22.9814 107.638 23.2012 107.802 23.3652C107.972 23.5234 108.159 23.6348 108.364 23.6992C108.575 23.7637 108.792 23.7959 109.015 23.7959C109.706 23.7959 110.254 23.6641 110.658 23.4004C111.062 23.1309 111.353 22.7705 111.528 22.3193C111.71 21.8623 111.801 21.3555 111.801 20.7988ZM119.553 25.1758C118.891 25.1758 118.29 25.0645 117.751 24.8418C117.218 24.6133 116.758 24.2939 116.371 23.8838C115.99 23.4736 115.697 22.9873 115.492 22.4248C115.287 21.8623 115.185 21.2471 115.185 20.5791V20.21C115.185 19.4365 115.299 18.748 115.527 18.1445C115.756 17.5352 116.066 17.0195 116.459 16.5977C116.852 16.1758 117.297 15.8564 117.795 15.6396C118.293 15.4229 118.809 15.3145 119.342 15.3145C120.021 15.3145 120.607 15.4316 121.1 15.666C121.598 15.9004 122.005 16.2285 122.321 16.6504C122.638 17.0664 122.872 17.5586 123.024 18.127C123.177 18.6895 123.253 19.3047 123.253 19.9727V20.7021H116.151V19.375H121.627V19.252C121.604 18.8301 121.516 18.4199 121.363 18.0215C121.217 17.623 120.982 17.2949 120.66 17.0371C120.338 16.7793 119.898 16.6504 119.342 16.6504C118.973 16.6504 118.633 16.7295 118.322 16.8877C118.012 17.04 117.745 17.2686 117.522 17.5732C117.3 17.8779 117.127 18.25 117.004 18.6895C116.881 19.1289 116.819 19.6357 116.819 20.21V20.5791C116.819 21.0303 116.881 21.4551 117.004 21.8535C117.133 22.2461 117.317 22.5918 117.558 22.8906C117.804 23.1895 118.1 23.4238 118.445 23.5938C118.797 23.7637 119.195 23.8486 119.641 23.8486C120.215 23.8486 120.701 23.7314 121.1 23.4971C121.498 23.2627 121.847 22.9492 122.146 22.5566L123.13 23.3389C122.925 23.6494 122.664 23.9453 122.348 24.2266C122.031 24.5078 121.642 24.7363 121.179 24.9121C120.722 25.0879 120.18 25.1758 119.553 25.1758ZM137.623 23.6201V25H131.225V23.6201H137.623ZM131.559 12.2031V25H129.862V12.2031H131.559ZM144.927 23.374V18.4785C144.927 18.1035 144.851 17.7783 144.698 17.5029C144.552 17.2217 144.329 17.0049 144.03 16.8525C143.731 16.7002 143.362 16.624 142.923 16.624C142.513 16.624 142.152 16.6943 141.842 16.835C141.537 16.9756 141.297 17.1602 141.121 17.3887C140.951 17.6172 140.866 17.8633 140.866 18.127H139.24C139.24 17.7871 139.328 17.4502 139.504 17.1162C139.68 16.7822 139.932 16.4805 140.26 16.2109C140.594 15.9355 140.992 15.7188 141.455 15.5605C141.924 15.3965 142.445 15.3145 143.02 15.3145C143.711 15.3145 144.32 15.4316 144.848 15.666C145.381 15.9004 145.797 16.2549 146.096 16.7295C146.4 17.1982 146.553 17.7871 146.553 18.4961V22.9258C146.553 23.2422 146.579 23.5791 146.632 23.9365C146.69 24.2939 146.775 24.6016 146.887 24.8594V25H145.19C145.108 24.8125 145.044 24.5635 144.997 24.2529C144.95 23.9365 144.927 23.6436 144.927 23.374ZM145.208 19.2344L145.226 20.377H143.582C143.119 20.377 142.706 20.415 142.343 20.4912C141.979 20.5615 141.675 20.6699 141.429 20.8164C141.183 20.9629 140.995 21.1475 140.866 21.3701C140.737 21.5869 140.673 21.8418 140.673 22.1348C140.673 22.4336 140.74 22.7061 140.875 22.9521C141.01 23.1982 141.212 23.3945 141.481 23.541C141.757 23.6816 142.094 23.752 142.492 23.752C142.99 23.752 143.43 23.6465 143.811 23.4355C144.191 23.2246 144.493 22.9668 144.716 22.6621C144.944 22.3574 145.067 22.0615 145.085 21.7744L145.779 22.5566C145.738 22.8027 145.627 23.0752 145.445 23.374C145.264 23.6729 145.021 23.96 144.716 24.2354C144.417 24.5049 144.06 24.7305 143.644 24.9121C143.233 25.0879 142.771 25.1758 142.255 25.1758C141.61 25.1758 141.045 25.0498 140.559 24.7979C140.078 24.5459 139.703 24.209 139.434 23.7871C139.17 23.3594 139.038 22.8818 139.038 22.3545C139.038 21.8447 139.138 21.3965 139.337 21.0098C139.536 20.6172 139.823 20.292 140.198 20.0342C140.573 19.7705 141.024 19.5713 141.552 19.4365C142.079 19.3018 142.668 19.2344 143.318 19.2344H145.208ZM149.102 11.5H150.736V23.1543L150.596 25H149.102V11.5ZM157.161 20.166V20.3506C157.161 21.042 157.079 21.6836 156.915 22.2754C156.751 22.8613 156.511 23.3711 156.194 23.8047C155.878 24.2383 155.491 24.5752 155.034 24.8154C154.577 25.0557 154.053 25.1758 153.461 25.1758C152.857 25.1758 152.327 25.0732 151.87 24.8682C151.419 24.6572 151.038 24.3555 150.728 23.9629C150.417 23.5703 150.168 23.0957 149.98 22.5391C149.799 21.9824 149.673 21.3555 149.603 20.6582V19.8496C149.673 19.1465 149.799 18.5166 149.98 17.96C150.168 17.4033 150.417 16.9287 150.728 16.5361C151.038 16.1377 151.419 15.8359 151.87 15.6309C152.321 15.4199 152.846 15.3145 153.443 15.3145C154.041 15.3145 154.571 15.4316 155.034 15.666C155.497 15.8945 155.884 16.2227 156.194 16.6504C156.511 17.0781 156.751 17.5908 156.915 18.1885C157.079 18.7803 157.161 19.4395 157.161 20.166ZM155.526 20.3506V20.166C155.526 19.6914 155.482 19.2461 155.395 18.8301C155.307 18.4082 155.166 18.0391 154.973 17.7227C154.779 17.4004 154.524 17.1484 154.208 16.9668C153.892 16.7793 153.502 16.6855 153.039 16.6855C152.629 16.6855 152.271 16.7559 151.967 16.8965C151.668 17.0371 151.413 17.2275 151.202 17.4678C150.991 17.7021 150.818 17.9717 150.684 18.2764C150.555 18.5752 150.458 18.8857 150.394 19.208V21.3262C150.487 21.7363 150.64 22.1318 150.851 22.5127C151.067 22.8877 151.354 23.1953 151.712 23.4355C152.075 23.6758 152.523 23.7959 153.057 23.7959C153.496 23.7959 153.871 23.708 154.182 23.5322C154.498 23.3506 154.753 23.1016 154.946 22.7852C155.146 22.4688 155.292 22.1025 155.386 21.6865C155.479 21.2705 155.526 20.8252 155.526 20.3506ZM163.164 25.1758C162.502 25.1758 161.901 25.0645 161.362 24.8418C160.829 24.6133 160.369 24.2939 159.982 23.8838C159.602 23.4736 159.309 22.9873 159.104 22.4248C158.898 21.8623 158.796 21.2471 158.796 20.5791V20.21C158.796 19.4365 158.91 18.748 159.139 18.1445C159.367 17.5352 159.678 17.0195 160.07 16.5977C160.463 16.1758 160.908 15.8564 161.406 15.6396C161.904 15.4229 162.42 15.3145 162.953 15.3145C163.633 15.3145 164.219 15.4316 164.711 15.666C165.209 15.9004 165.616 16.2285 165.933 16.6504C166.249 17.0664 166.483 17.5586 166.636 18.127C166.788 18.6895 166.864 19.3047 166.864 19.9727V20.7021H159.763V19.375H165.238V19.252C165.215 18.8301 165.127 18.4199 164.975 18.0215C164.828 17.623 164.594 17.2949 164.271 17.0371C163.949 16.7793 163.51 16.6504 162.953 16.6504C162.584 16.6504 162.244 16.7295 161.934 16.8877C161.623 17.04 161.356 17.2686 161.134 17.5732C160.911 17.8779 160.738 18.25 160.615 18.6895C160.492 19.1289 160.431 19.6357 160.431 20.21V20.5791C160.431 21.0303 160.492 21.4551 160.615 21.8535C160.744 22.2461 160.929 22.5918 161.169 22.8906C161.415 23.1895 161.711 23.4238 162.057 23.5938C162.408 23.7637 162.807 23.8486 163.252 23.8486C163.826 23.8486 164.312 23.7314 164.711 23.4971C165.109 23.2627 165.458 22.9492 165.757 22.5566L166.741 23.3389C166.536 23.6494 166.275 23.9453 165.959 24.2266C165.643 24.5078 165.253 24.7363 164.79 24.9121C164.333 25.0879 163.791 25.1758 163.164 25.1758ZM170.529 11.5V25H168.895V11.5H170.529ZM177.543 19.8848V19.7969C177.543 18.5195 177.687 17.3652 177.974 16.334C178.261 15.2969 178.627 14.3887 179.072 13.6094C179.518 12.8301 179.986 12.1855 180.479 11.6758C180.971 11.1602 181.425 10.7881 181.841 10.5596L182.184 11.6318C181.838 11.8955 181.486 12.2588 181.129 12.7217C180.777 13.1846 180.452 13.7529 180.153 14.4268C179.86 15.1006 179.623 15.8828 179.441 16.7734C179.26 17.6641 179.169 18.666 179.169 19.7793V19.9023C179.169 21.0156 179.26 22.0205 179.441 22.917C179.623 23.8076 179.86 24.5928 180.153 25.2725C180.452 25.9521 180.777 26.5293 181.129 27.0039C181.486 27.4844 181.838 27.8652 182.184 28.1465L181.841 29.1309C181.425 28.9023 180.971 28.5303 180.479 28.0146C179.986 27.5049 179.518 26.8604 179.072 26.0811C178.627 25.3076 178.261 24.4023 177.974 23.3652C177.687 22.3281 177.543 21.168 177.543 19.8848ZM186.183 23.3125L188.626 15.4902H189.698L189.487 17.0459L187 25H185.954L186.183 23.3125ZM184.539 15.4902L186.622 23.4004L186.771 25H185.673L182.913 15.4902H184.539ZM192.036 23.3389L194.022 15.4902H195.64L192.88 25H191.79L192.036 23.3389ZM189.936 15.4902L192.326 23.1807L192.599 25H191.562L189.004 17.0283L188.793 15.4902H189.936ZM199.076 15.4902V25H197.441V15.4902H199.076ZM197.318 12.9678C197.318 12.7041 197.397 12.4814 197.556 12.2998C197.72 12.1182 197.96 12.0273 198.276 12.0273C198.587 12.0273 198.824 12.1182 198.988 12.2998C199.158 12.4814 199.243 12.7041 199.243 12.9678C199.243 13.2197 199.158 13.4365 198.988 13.6182C198.824 13.7939 198.587 13.8818 198.276 13.8818C197.96 13.8818 197.72 13.7939 197.556 13.6182C197.397 13.4365 197.318 13.2197 197.318 12.9678ZM205.668 15.4902V16.7383H200.526V15.4902H205.668ZM202.267 13.1787H203.893V22.6445C203.893 22.9668 203.942 23.21 204.042 23.374C204.142 23.5381 204.271 23.6465 204.429 23.6992C204.587 23.752 204.757 23.7783 204.938 23.7783C205.073 23.7783 205.214 23.7666 205.36 23.7432C205.513 23.7139 205.627 23.6904 205.703 23.6729L205.712 25C205.583 25.041 205.413 25.0791 205.202 25.1143C204.997 25.1553 204.748 25.1758 204.455 25.1758C204.057 25.1758 203.69 25.0967 203.356 24.9385C203.022 24.7803 202.756 24.5166 202.557 24.1475C202.363 23.7725 202.267 23.2686 202.267 22.6357V13.1787ZM209.201 11.5V25H207.575V11.5H209.201ZM208.814 19.8848L208.138 19.8584C208.144 19.208 208.24 18.6074 208.428 18.0566C208.615 17.5 208.879 17.0166 209.219 16.6064C209.559 16.1963 209.963 15.8799 210.432 15.6572C210.906 15.4287 211.431 15.3145 212.005 15.3145C212.474 15.3145 212.896 15.3789 213.271 15.5078C213.646 15.6309 213.965 15.8301 214.229 16.1055C214.498 16.3809 214.703 16.7383 214.844 17.1777C214.984 17.6113 215.055 18.1416 215.055 18.7686V25H213.42V18.751C213.42 18.2529 213.347 17.8545 213.2 17.5557C213.054 17.251 212.84 17.0312 212.559 16.8965C212.277 16.7559 211.932 16.6855 211.521 16.6855C211.117 16.6855 210.748 16.7705 210.414 16.9404C210.086 17.1104 209.802 17.3447 209.562 17.6436C209.327 17.9424 209.143 18.2852 209.008 18.6719C208.879 19.0527 208.814 19.457 208.814 19.8848ZM222.2 12.2031H226.437C227.397 12.2031 228.209 12.3496 228.871 12.6426C229.539 12.9355 230.046 13.3691 230.392 13.9434C230.743 14.5117 230.919 15.2119 230.919 16.0439C230.919 16.6299 230.799 17.166 230.559 17.6523C230.324 18.1328 229.984 18.543 229.539 18.8828C229.1 19.2168 228.572 19.4658 227.957 19.6299L227.482 19.8145H223.501L223.483 18.4346H226.489C227.099 18.4346 227.605 18.3291 228.01 18.1182C228.414 17.9014 228.719 17.6113 228.924 17.248C229.129 16.8848 229.231 16.4834 229.231 16.0439C229.231 15.5518 229.135 15.1211 228.941 14.752C228.748 14.3828 228.443 14.0986 228.027 13.8994C227.617 13.6943 227.087 13.5918 226.437 13.5918H223.896V25H222.2V12.2031ZM229.68 25L226.568 19.1992L228.335 19.1904L231.49 24.8945V25H229.68ZM238.653 23.374V18.4785C238.653 18.1035 238.577 17.7783 238.425 17.5029C238.278 17.2217 238.056 17.0049 237.757 16.8525C237.458 16.7002 237.089 16.624 236.649 16.624C236.239 16.624 235.879 16.6943 235.568 16.835C235.264 16.9756 235.023 17.1602 234.848 17.3887C234.678 17.6172 234.593 17.8633 234.593 18.127H232.967C232.967 17.7871 233.055 17.4502 233.23 17.1162C233.406 16.7822 233.658 16.4805 233.986 16.2109C234.32 15.9355 234.719 15.7188 235.182 15.5605C235.65 15.3965 236.172 15.3145 236.746 15.3145C237.438 15.3145 238.047 15.4316 238.574 15.666C239.107 15.9004 239.523 16.2549 239.822 16.7295C240.127 17.1982 240.279 17.7871 240.279 18.4961V22.9258C240.279 23.2422 240.306 23.5791 240.358 23.9365C240.417 24.2939 240.502 24.6016 240.613 24.8594V25H238.917C238.835 24.8125 238.771 24.5635 238.724 24.2529C238.677 23.9365 238.653 23.6436 238.653 23.374ZM238.935 19.2344L238.952 20.377H237.309C236.846 20.377 236.433 20.415 236.069 20.4912C235.706 20.5615 235.401 20.6699 235.155 20.8164C234.909 20.9629 234.722 21.1475 234.593 21.3701C234.464 21.5869 234.399 21.8418 234.399 22.1348C234.399 22.4336 234.467 22.7061 234.602 22.9521C234.736 23.1982 234.938 23.3945 235.208 23.541C235.483 23.6816 235.82 23.752 236.219 23.752C236.717 23.752 237.156 23.6465 237.537 23.4355C237.918 23.2246 238.22 22.9668 238.442 22.6621C238.671 22.3574 238.794 22.0615 238.812 21.7744L239.506 22.5566C239.465 22.8027 239.354 23.0752 239.172 23.374C238.99 23.6729 238.747 23.96 238.442 24.2354C238.144 24.5049 237.786 24.7305 237.37 24.9121C236.96 25.0879 236.497 25.1758 235.981 25.1758C235.337 25.1758 234.771 25.0498 234.285 24.7979C233.805 24.5459 233.43 24.209 233.16 23.7871C232.896 23.3594 232.765 22.8818 232.765 22.3545C232.765 21.8447 232.864 21.3965 233.063 21.0098C233.263 20.6172 233.55 20.292 233.925 20.0342C234.3 19.7705 234.751 19.5713 235.278 19.4365C235.806 19.3018 236.395 19.2344 237.045 19.2344H238.935ZM244.463 17.5205V25H242.837V15.4902H244.375L244.463 17.5205ZM244.076 19.8848L243.399 19.8584C243.405 19.208 243.502 18.6074 243.689 18.0566C243.877 17.5 244.141 17.0166 244.48 16.6064C244.82 16.1963 245.225 15.8799 245.693 15.6572C246.168 15.4287 246.692 15.3145 247.267 15.3145C247.735 15.3145 248.157 15.3789 248.532 15.5078C248.907 15.6309 249.227 15.8301 249.49 16.1055C249.76 16.3809 249.965 16.7383 250.105 17.1777C250.246 17.6113 250.316 18.1416 250.316 18.7686V25H248.682V18.751C248.682 18.2529 248.608 17.8545 248.462 17.5557C248.315 17.251 248.102 17.0312 247.82 16.8965C247.539 16.7559 247.193 16.6855 246.783 16.6855C246.379 16.6855 246.01 16.7705 245.676 16.9404C245.348 17.1104 245.063 17.3447 244.823 17.6436C244.589 17.9424 244.404 18.2852 244.27 18.6719C244.141 19.0527 244.076 19.457 244.076 19.8848ZM258.947 15.4902H260.424V24.7979C260.424 25.6357 260.254 26.3506 259.914 26.9424C259.574 27.5342 259.1 27.9824 258.49 28.2871C257.887 28.5977 257.189 28.7529 256.398 28.7529C256.07 28.7529 255.684 28.7002 255.238 28.5947C254.799 28.4951 254.365 28.3223 253.938 28.0762C253.516 27.8359 253.161 27.5107 252.874 27.1006L253.727 26.1338C254.125 26.6143 254.541 26.9482 254.975 27.1357C255.414 27.3232 255.848 27.417 256.275 27.417C256.791 27.417 257.236 27.3203 257.611 27.127C257.986 26.9336 258.276 26.6465 258.481 26.2656C258.692 25.8906 258.798 25.4277 258.798 24.877V17.582L258.947 15.4902ZM252.399 20.3506V20.166C252.399 19.4395 252.484 18.7803 252.654 18.1885C252.83 17.5908 253.079 17.0781 253.401 16.6504C253.729 16.2227 254.125 15.8945 254.588 15.666C255.051 15.4316 255.572 15.3145 256.152 15.3145C256.75 15.3145 257.271 15.4199 257.717 15.6309C258.168 15.8359 258.549 16.1377 258.859 16.5361C259.176 16.9287 259.425 17.4033 259.606 17.96C259.788 18.5166 259.914 19.1465 259.984 19.8496V20.6582C259.92 21.3555 259.794 21.9824 259.606 22.5391C259.425 23.0957 259.176 23.5703 258.859 23.9629C258.549 24.3555 258.168 24.6572 257.717 24.8682C257.266 25.0732 256.738 25.1758 256.135 25.1758C255.566 25.1758 255.051 25.0557 254.588 24.8154C254.131 24.5752 253.738 24.2383 253.41 23.8047C253.082 23.3711 252.83 22.8613 252.654 22.2754C252.484 21.6836 252.399 21.042 252.399 20.3506ZM254.025 20.166V20.3506C254.025 20.8252 254.072 21.2705 254.166 21.6865C254.266 22.1025 254.415 22.4688 254.614 22.7852C254.819 23.1016 255.08 23.3506 255.396 23.5322C255.713 23.708 256.091 23.7959 256.53 23.7959C257.069 23.7959 257.515 23.6816 257.866 23.4531C258.218 23.2246 258.496 22.9229 258.701 22.5479C258.912 22.1729 259.076 21.7656 259.193 21.3262V19.208C259.129 18.8857 259.029 18.5752 258.895 18.2764C258.766 17.9717 258.596 17.7021 258.385 17.4678C258.18 17.2275 257.925 17.0371 257.62 16.8965C257.315 16.7559 256.958 16.6855 256.548 16.6855C256.103 16.6855 255.719 16.7793 255.396 16.9668C255.08 17.1484 254.819 17.4004 254.614 17.7227C254.415 18.0391 254.266 18.4082 254.166 18.8301C254.072 19.2461 254.025 19.6914 254.025 20.166ZM266.84 25.1758C266.178 25.1758 265.577 25.0645 265.038 24.8418C264.505 24.6133 264.045 24.2939 263.658 23.8838C263.277 23.4736 262.984 22.9873 262.779 22.4248C262.574 21.8623 262.472 21.2471 262.472 20.5791V20.21C262.472 19.4365 262.586 18.748 262.814 18.1445C263.043 17.5352 263.354 17.0195 263.746 16.5977C264.139 16.1758 264.584 15.8564 265.082 15.6396C265.58 15.4229 266.096 15.3145 266.629 15.3145C267.309 15.3145 267.895 15.4316 268.387 15.666C268.885 15.9004 269.292 16.2285 269.608 16.6504C269.925 17.0664 270.159 17.5586 270.312 18.127C270.464 18.6895 270.54 19.3047 270.54 19.9727V20.7021H263.438V19.375H268.914V19.252C268.891 18.8301 268.803 18.4199 268.65 18.0215C268.504 17.623 268.27 17.2949 267.947 17.0371C267.625 16.7793 267.186 16.6504 266.629 16.6504C266.26 16.6504 265.92 16.7295 265.609 16.8877C265.299 17.04 265.032 17.2686 264.81 17.5732C264.587 17.8779 264.414 18.25 264.291 18.6895C264.168 19.1289 264.106 19.6357 264.106 20.21V20.5791C264.106 21.0303 264.168 21.4551 264.291 21.8535C264.42 22.2461 264.604 22.5918 264.845 22.8906C265.091 23.1895 265.387 23.4238 265.732 23.5938C266.084 23.7637 266.482 23.8486 266.928 23.8486C267.502 23.8486 267.988 23.7314 268.387 23.4971C268.785 23.2627 269.134 22.9492 269.433 22.5566L270.417 23.3389C270.212 23.6494 269.951 23.9453 269.635 24.2266C269.318 24.5078 268.929 24.7363 268.466 24.9121C268.009 25.0879 267.467 25.1758 266.84 25.1758ZM276.183 19.7969V19.8848C276.183 21.168 276.039 22.3281 275.752 23.3652C275.465 24.4023 275.099 25.3076 274.653 26.0811C274.208 26.8604 273.739 27.5049 273.247 28.0146C272.755 28.5303 272.301 28.9023 271.885 29.1309L271.542 28.1465C271.888 27.8828 272.236 27.5137 272.588 27.0391C272.939 26.5703 273.265 25.9902 273.563 25.2988C273.862 24.6133 274.103 23.8223 274.284 22.9258C274.466 22.0234 274.557 21.0156 274.557 19.9023V19.7793C274.557 18.666 274.46 17.6611 274.267 16.7646C274.073 15.8623 273.821 15.0684 273.511 14.3828C273.206 13.6973 272.878 13.1201 272.526 12.6514C272.181 12.1768 271.853 11.8105 271.542 11.5527L271.885 10.5596C272.301 10.7881 272.755 11.1602 273.247 11.6758C273.739 12.1855 274.208 12.8301 274.653 13.6094C275.099 14.3887 275.465 15.2969 275.752 16.334C276.039 17.3652 276.183 18.5195 276.183 19.7969Z" fill="#1D1D1B"/>
<line x1="8" y1="89.5" x2="360" y2="89.5" stroke="#E6E5E1"/>
<rect x="16" y="36" width="336" height="40" rx="6" fill="#F0EFEB"/>
<g clip-path="url(#clip0_15254_100714)">
<rect x="251" y="52" width="8" height="223" transform="rotate(90 251 52)" fill="#BBCEE0"/>
<path d="M152 52L152 60L28 60L28 52L152 52Z" fill="#387DC5"/>
</g>
<path d="M286.321 54.9336V57.3184C286.321 58.6003 286.207 59.6816 285.978 60.5625C285.748 61.4434 285.419 62.1523 284.989 62.6895C284.56 63.2266 284.04 63.6169 283.432 63.8604C282.83 64.0967 282.15 64.2148 281.391 64.2148C280.789 64.2148 280.234 64.1396 279.726 63.9893C279.217 63.8389 278.759 63.599 278.351 63.2695C277.95 62.9329 277.606 62.4961 277.319 61.959C277.033 61.4219 276.814 60.7702 276.664 60.0039C276.514 59.2376 276.438 58.3424 276.438 57.3184V54.9336C276.438 53.6517 276.553 52.5775 276.782 51.7109C277.019 50.8444 277.352 50.1497 277.781 49.627C278.211 49.097 278.727 48.7174 279.328 48.4883C279.937 48.2591 280.617 48.1445 281.369 48.1445C281.978 48.1445 282.536 48.2197 283.045 48.3701C283.561 48.5133 284.019 48.7461 284.42 49.0684C284.821 49.3835 285.161 49.806 285.44 50.3359C285.727 50.8587 285.945 51.4997 286.096 52.2588C286.246 53.0179 286.321 53.9095 286.321 54.9336ZM284.323 57.6406V54.6006C284.323 53.8988 284.28 53.2829 284.194 52.7529C284.116 52.2158 283.997 51.7575 283.84 51.3779C283.682 50.9984 283.482 50.6904 283.238 50.4541C283.002 50.2178 282.726 50.0459 282.411 49.9385C282.103 49.8239 281.756 49.7666 281.369 49.7666C280.896 49.7666 280.478 49.8561 280.112 50.0352C279.747 50.207 279.439 50.4827 279.188 50.8623C278.945 51.2419 278.759 51.7396 278.63 52.3555C278.501 52.9714 278.437 53.7197 278.437 54.6006V57.6406C278.437 58.3424 278.476 58.9619 278.555 59.499C278.641 60.0361 278.766 60.5016 278.931 60.8955C279.095 61.2822 279.296 61.6009 279.532 61.8516C279.769 62.1022 280.041 62.2884 280.349 62.4102C280.664 62.5247 281.011 62.582 281.391 62.582C281.878 62.582 282.304 62.4889 282.669 62.3027C283.034 62.1165 283.339 61.8265 283.582 61.4326C283.833 61.0316 284.019 60.5195 284.141 59.8965C284.262 59.2663 284.323 58.5143 284.323 57.6406ZM299.126 54.9336V57.3184C299.126 58.6003 299.011 59.6816 298.782 60.5625C298.553 61.4434 298.224 62.1523 297.794 62.6895C297.364 63.2266 296.845 63.6169 296.236 63.8604C295.635 64.0967 294.954 64.2148 294.195 64.2148C293.594 64.2148 293.039 64.1396 292.53 63.9893C292.022 63.8389 291.563 63.599 291.155 63.2695C290.754 62.9329 290.41 62.4961 290.124 61.959C289.838 61.4219 289.619 60.7702 289.469 60.0039C289.318 59.2376 289.243 58.3424 289.243 57.3184V54.9336C289.243 53.6517 289.358 52.5775 289.587 51.7109C289.823 50.8444 290.156 50.1497 290.586 49.627C291.016 49.097 291.531 48.7174 292.133 48.4883C292.742 48.2591 293.422 48.1445 294.174 48.1445C294.783 48.1445 295.341 48.2197 295.85 48.3701C296.365 48.5133 296.824 48.7461 297.225 49.0684C297.626 49.3835 297.966 49.806 298.245 50.3359C298.532 50.8587 298.75 51.4997 298.9 52.2588C299.051 53.0179 299.126 53.9095 299.126 54.9336ZM297.128 57.6406V54.6006C297.128 53.8988 297.085 53.2829 296.999 52.7529C296.92 52.2158 296.802 51.7575 296.645 51.3779C296.487 50.9984 296.286 50.6904 296.043 50.4541C295.807 50.2178 295.531 50.0459 295.216 49.9385C294.908 49.8239 294.561 49.7666 294.174 49.7666C293.701 49.7666 293.282 49.8561 292.917 50.0352C292.552 50.207 292.244 50.4827 291.993 50.8623C291.75 51.2419 291.563 51.7396 291.435 52.3555C291.306 52.9714 291.241 53.7197 291.241 54.6006V57.6406C291.241 58.3424 291.281 58.9619 291.359 59.499C291.445 60.0361 291.571 60.5016 291.735 60.8955C291.9 61.2822 292.101 61.6009 292.337 61.8516C292.573 62.1022 292.845 62.2884 293.153 62.4102C293.468 62.5247 293.816 62.582 294.195 62.582C294.682 62.582 295.108 62.4889 295.474 62.3027C295.839 62.1165 296.143 61.8265 296.387 61.4326C296.637 61.0316 296.824 60.5195 296.945 59.8965C297.067 59.2663 297.128 58.5143 297.128 57.6406ZM311.931 54.9336V57.3184C311.931 58.6003 311.816 59.6816 311.587 60.5625C311.358 61.4434 311.028 62.1523 310.599 62.6895C310.169 63.2266 309.65 63.6169 309.041 63.8604C308.439 64.0967 307.759 64.2148 307 64.2148C306.398 64.2148 305.843 64.1396 305.335 63.9893C304.826 63.8389 304.368 63.599 303.96 63.2695C303.559 62.9329 303.215 62.4961 302.929 61.959C302.642 61.4219 302.424 60.7702 302.273 60.0039C302.123 59.2376 302.048 58.3424 302.048 57.3184V54.9336C302.048 53.6517 302.162 52.5775 302.392 51.7109C302.628 50.8444 302.961 50.1497 303.391 49.627C303.82 49.097 304.336 48.7174 304.938 48.4883C305.546 48.2591 306.227 48.1445 306.979 48.1445C307.587 48.1445 308.146 48.2197 308.654 48.3701C309.17 48.5133 309.628 48.7461 310.029 49.0684C310.43 49.3835 310.771 49.806 311.05 50.3359C311.336 50.8587 311.555 51.4997 311.705 52.2588C311.855 53.0179 311.931 53.9095 311.931 54.9336ZM309.933 57.6406V54.6006C309.933 53.8988 309.89 53.2829 309.804 52.7529C309.725 52.2158 309.607 51.7575 309.449 51.3779C309.292 50.9984 309.091 50.6904 308.848 50.4541C308.611 50.2178 308.336 50.0459 308.021 49.9385C307.713 49.8239 307.365 49.7666 306.979 49.7666C306.506 49.7666 306.087 49.8561 305.722 50.0352C305.356 50.207 305.049 50.4827 304.798 50.8623C304.554 51.2419 304.368 51.7396 304.239 52.3555C304.11 52.9714 304.046 53.7197 304.046 54.6006V57.6406C304.046 58.3424 304.085 58.9619 304.164 59.499C304.25 60.0361 304.375 60.5016 304.54 60.8955C304.705 61.2822 304.905 61.6009 305.142 61.8516C305.378 62.1022 305.65 62.2884 305.958 62.4102C306.273 62.5247 306.62 62.582 307 62.582C307.487 62.582 307.913 62.4889 308.278 62.3027C308.644 62.1165 308.948 61.8265 309.191 61.4326C309.442 61.0316 309.628 60.5195 309.75 59.8965C309.872 59.2663 309.933 58.5143 309.933 57.6406ZM324.735 54.9336V57.3184C324.735 58.6003 324.621 59.6816 324.392 60.5625C324.162 61.4434 323.833 62.1523 323.403 62.6895C322.974 63.2266 322.454 63.6169 321.846 63.8604C321.244 64.0967 320.564 64.2148 319.805 64.2148C319.203 64.2148 318.648 64.1396 318.14 63.9893C317.631 63.8389 317.173 63.599 316.765 63.2695C316.364 62.9329 316.02 62.4961 315.733 61.959C315.447 61.4219 315.229 60.7702 315.078 60.0039C314.928 59.2376 314.853 58.3424 314.853 57.3184V54.9336C314.853 53.6517 314.967 52.5775 315.196 51.7109C315.433 50.8444 315.766 50.1497 316.195 49.627C316.625 49.097 317.141 48.7174 317.742 48.4883C318.351 48.2591 319.031 48.1445 319.783 48.1445C320.392 48.1445 320.951 48.2197 321.459 48.3701C321.975 48.5133 322.433 48.7461 322.834 49.0684C323.235 49.3835 323.575 49.806 323.854 50.3359C324.141 50.8587 324.359 51.4997 324.51 52.2588C324.66 53.0179 324.735 53.9095 324.735 54.9336ZM322.737 57.6406V54.6006C322.737 53.8988 322.694 53.2829 322.608 52.7529C322.53 52.2158 322.411 51.7575 322.254 51.3779C322.096 50.9984 321.896 50.6904 321.652 50.4541C321.416 50.2178 321.14 50.0459 320.825 49.9385C320.517 49.8239 320.17 49.7666 319.783 49.7666C319.311 49.7666 318.892 49.8561 318.526 50.0352C318.161 50.207 317.853 50.4827 317.603 50.8623C317.359 51.2419 317.173 51.7396 317.044 52.3555C316.915 52.9714 316.851 53.7197 316.851 54.6006V57.6406C316.851 58.3424 316.89 58.9619 316.969 59.499C317.055 60.0361 317.18 60.5016 317.345 60.8955C317.509 61.2822 317.71 61.6009 317.946 61.8516C318.183 62.1022 318.455 62.2884 318.763 62.4102C319.078 62.5247 319.425 62.582 319.805 62.582C320.292 62.582 320.718 62.4889 321.083 62.3027C321.448 62.1165 321.753 61.8265 321.996 61.4326C322.247 61.0316 322.433 60.5195 322.555 59.8965C322.676 59.2663 322.737 58.5143 322.737 57.6406Z" fill="#1D1D1B"/>
<path d="M329.365 48.3594L333.125 54.3535L336.885 48.3594H339.302L334.36 56.1045L339.42 64H336.981L333.125 57.8877L329.269 64H326.83L331.89 56.1045L326.948 48.3594H329.365Z" fill="#64635F"/>
<defs>
<clipPath id="clip0_15254_100714">
<rect x="251" y="52" width="8.00001" height="223" rx="4" transform="rotate(90 251 52)" fill="white"/>
</clipPath>
</defs>
</svg>
