<svg width="368" height="88" viewBox="0 0 368 88" fill="none" xmlns="http://www.w3.org/2000/svg">
<path d="M24.3057 21.7656C24.3057 21.4668 24.2588 21.2031 24.165 20.9746C24.0771 20.7402 23.9189 20.5293 23.6904 20.3418C23.4678 20.1543 23.1572 19.9756 22.7588 19.8057C22.3662 19.6357 21.8682 19.4629 21.2646 19.2871C20.6318 19.0996 20.0605 18.8916 19.5508 18.6631C19.041 18.4287 18.6045 18.1621 18.2412 17.8633C17.8779 17.5645 17.5996 17.2217 17.4062 16.835C17.2129 16.4482 17.1162 16.0059 17.1162 15.5078C17.1162 15.0098 17.2188 14.5498 17.4238 14.1279C17.6289 13.7061 17.9219 13.3398 18.3027 13.0293C18.6895 12.7129 19.1494 12.4668 19.6826 12.291C20.2158 12.1152 20.8105 12.0273 21.4668 12.0273C22.4277 12.0273 23.2422 12.2119 23.9102 12.5811C24.584 12.9443 25.0967 13.4219 25.4482 14.0137C25.7998 14.5996 25.9756 15.2266 25.9756 15.8945H24.2881C24.2881 15.4141 24.1855 14.9893 23.9805 14.6201C23.7754 14.2451 23.4648 13.9521 23.0488 13.7412C22.6328 13.5244 22.1055 13.416 21.4668 13.416C20.8633 13.416 20.3652 13.5068 19.9727 13.6885C19.5801 13.8701 19.2871 14.1162 19.0938 14.4268C18.9062 14.7373 18.8125 15.0918 18.8125 15.4902C18.8125 15.7598 18.8682 16.0059 18.9795 16.2285C19.0967 16.4453 19.2754 16.6475 19.5156 16.835C19.7617 17.0225 20.0723 17.1953 20.4473 17.3535C20.8281 17.5117 21.2822 17.6641 21.8096 17.8105C22.5361 18.0156 23.1631 18.2441 23.6904 18.4961C24.2178 18.748 24.6514 19.0322 24.9912 19.3486C25.3369 19.6592 25.5918 20.0137 25.7559 20.4121C25.9258 20.8047 26.0107 21.25 26.0107 21.748C26.0107 22.2695 25.9053 22.7412 25.6943 23.1631C25.4834 23.585 25.1816 23.9453 24.7891 24.2441C24.3965 24.543 23.9248 24.7744 23.374 24.9385C22.8291 25.0967 22.2197 25.1758 21.5459 25.1758C20.9541 25.1758 20.3711 25.0938 19.7969 24.9297C19.2285 24.7656 18.71 24.5195 18.2412 24.1914C17.7783 23.8633 17.4062 23.459 17.125 22.9785C16.8496 22.4922 16.7119 21.9297 16.7119 21.291H18.3994C18.3994 21.7305 18.4844 22.1084 18.6543 22.4248C18.8242 22.7354 19.0557 22.9932 19.3486 23.1982C19.6475 23.4033 19.9844 23.5557 20.3594 23.6553C20.7402 23.749 21.1357 23.7959 21.5459 23.7959C22.1377 23.7959 22.6387 23.7139 23.0488 23.5498C23.459 23.3857 23.7695 23.1514 23.9805 22.8467C24.1973 22.542 24.3057 22.1816 24.3057 21.7656ZM27.4961 20.3506V20.1484C27.4961 19.4629 27.5957 18.8271 27.7949 18.2412C27.9941 17.6494 28.2812 17.1367 28.6562 16.7031C29.0312 16.2637 29.4854 15.9238 30.0186 15.6836C30.5518 15.4375 31.1494 15.3145 31.8115 15.3145C32.4795 15.3145 33.0801 15.4375 33.6133 15.6836C34.1523 15.9238 34.6094 16.2637 34.9844 16.7031C35.3652 17.1367 35.6553 17.6494 35.8545 18.2412C36.0537 18.8271 36.1533 19.4629 36.1533 20.1484V20.3506C36.1533 21.0361 36.0537 21.6719 35.8545 22.2578C35.6553 22.8438 35.3652 23.3564 34.9844 23.7959C34.6094 24.2295 34.1553 24.5693 33.6221 24.8154C33.0947 25.0557 32.4971 25.1758 31.8291 25.1758C31.1611 25.1758 30.5605 25.0557 30.0273 24.8154C29.4941 24.5693 29.0371 24.2295 28.6562 23.7959C28.2812 23.3564 27.9941 22.8438 27.7949 22.2578C27.5957 21.6719 27.4961 21.0361 27.4961 20.3506ZM29.1221 20.1484V20.3506C29.1221 20.8252 29.1777 21.2734 29.2891 21.6953C29.4004 22.1113 29.5674 22.4805 29.79 22.8027C30.0186 23.125 30.3027 23.3799 30.6426 23.5674C30.9824 23.749 31.3779 23.8398 31.8291 23.8398C32.2744 23.8398 32.6641 23.749 32.998 23.5674C33.3379 23.3799 33.6191 23.125 33.8418 22.8027C34.0645 22.4805 34.2314 22.1113 34.3428 21.6953C34.46 21.2734 34.5186 20.8252 34.5186 20.3506V20.1484C34.5186 19.6797 34.46 19.2373 34.3428 18.8213C34.2314 18.3994 34.0615 18.0273 33.833 17.7051C33.6104 17.377 33.3291 17.1191 32.9893 16.9316C32.6553 16.7441 32.2627 16.6504 31.8115 16.6504C31.3662 16.6504 30.9736 16.7441 30.6338 16.9316C30.2998 17.1191 30.0186 17.377 29.79 17.7051C29.5674 18.0273 29.4004 18.3994 29.2891 18.8213C29.1777 19.2373 29.1221 19.6797 29.1221 20.1484ZM44.0107 22.8027V15.4902H45.6455V25H44.0898L44.0107 22.8027ZM44.3184 20.7988L44.9951 20.7812C44.9951 21.4141 44.9277 22 44.793 22.5391C44.6641 23.0723 44.4531 23.5352 44.1602 23.9277C43.8672 24.3203 43.4834 24.6279 43.0088 24.8506C42.5342 25.0674 41.957 25.1758 41.2773 25.1758C40.8145 25.1758 40.3896 25.1084 40.0029 24.9736C39.6221 24.8389 39.2939 24.6309 39.0186 24.3496C38.7432 24.0684 38.5293 23.7021 38.377 23.251C38.2305 22.7998 38.1572 22.2578 38.1572 21.625V15.4902H39.7832V21.6426C39.7832 22.0703 39.8301 22.4248 39.9238 22.7061C40.0234 22.9814 40.1553 23.2012 40.3193 23.3652C40.4893 23.5234 40.6768 23.6348 40.8818 23.6992C41.0928 23.7637 41.3096 23.7959 41.5322 23.7959C42.2236 23.7959 42.7715 23.6641 43.1758 23.4004C43.5801 23.1309 43.8701 22.7705 44.0459 22.3193C44.2275 21.8623 44.3184 21.3555 44.3184 20.7988ZM49.75 16.9844V25H48.124V15.4902H49.7061L49.75 16.9844ZM52.7207 15.4375L52.7119 16.9492C52.5771 16.9199 52.4482 16.9023 52.3252 16.8965C52.208 16.8848 52.0732 16.8789 51.9209 16.8789C51.5459 16.8789 51.2148 16.9375 50.9277 17.0547C50.6406 17.1719 50.3975 17.3359 50.1982 17.5469C49.999 17.7578 49.8408 18.0098 49.7236 18.3027C49.6123 18.5898 49.5391 18.9062 49.5039 19.252L49.0469 19.5156C49.0469 18.9414 49.1025 18.4023 49.2139 17.8984C49.3311 17.3945 49.5098 16.9492 49.75 16.5625C49.9902 16.1699 50.2949 15.8652 50.6641 15.6484C51.0391 15.4258 51.4844 15.3145 52 15.3145C52.1172 15.3145 52.252 15.3291 52.4043 15.3584C52.5566 15.3818 52.6621 15.4082 52.7207 15.4375ZM57.8535 23.8398C58.2402 23.8398 58.5977 23.7607 58.9258 23.6025C59.2539 23.4443 59.5234 23.2275 59.7344 22.9521C59.9453 22.6709 60.0654 22.3516 60.0947 21.9941H61.6416C61.6123 22.5566 61.4219 23.0811 61.0703 23.5674C60.7246 24.0479 60.2705 24.4375 59.708 24.7363C59.1455 25.0293 58.5273 25.1758 57.8535 25.1758C57.1387 25.1758 56.5146 25.0498 55.9814 24.7979C55.4541 24.5459 55.0146 24.2002 54.6631 23.7607C54.3174 23.3213 54.0566 22.8174 53.8809 22.249C53.7109 21.6748 53.626 21.0684 53.626 20.4297V20.0605C53.626 19.4219 53.7109 18.8184 53.8809 18.25C54.0566 17.6758 54.3174 17.1689 54.6631 16.7295C55.0146 16.29 55.4541 15.9443 55.9814 15.6924C56.5146 15.4404 57.1387 15.3145 57.8535 15.3145C58.5977 15.3145 59.248 15.4668 59.8047 15.7715C60.3613 16.0703 60.7979 16.4805 61.1143 17.002C61.4365 17.5176 61.6123 18.1035 61.6416 18.7598H60.0947C60.0654 18.3672 59.9541 18.0127 59.7607 17.6963C59.5732 17.3799 59.3154 17.1279 58.9873 16.9404C58.665 16.7471 58.2871 16.6504 57.8535 16.6504C57.3555 16.6504 56.9365 16.75 56.5967 16.9492C56.2627 17.1426 55.9961 17.4062 55.7969 17.7402C55.6035 18.0684 55.4629 18.4346 55.375 18.8389C55.293 19.2373 55.252 19.6445 55.252 20.0605V20.4297C55.252 20.8457 55.293 21.2559 55.375 21.6602C55.457 22.0645 55.5947 22.4307 55.7881 22.7588C55.9873 23.0869 56.2539 23.3506 56.5879 23.5498C56.9277 23.7432 57.3496 23.8398 57.8535 23.8398ZM67.416 25.1758C66.7539 25.1758 66.1533 25.0645 65.6143 24.8418C65.0811 24.6133 64.6211 24.2939 64.2344 23.8838C63.8535 23.4736 63.5605 22.9873 63.3555 22.4248C63.1504 21.8623 63.0479 21.2471 63.0479 20.5791V20.21C63.0479 19.4365 63.1621 18.748 63.3906 18.1445C63.6191 17.5352 63.9297 17.0195 64.3223 16.5977C64.7148 16.1758 65.1602 15.8564 65.6582 15.6396C66.1562 15.4229 66.6719 15.3145 67.2051 15.3145C67.8848 15.3145 68.4707 15.4316 68.9629 15.666C69.4609 15.9004 69.8682 16.2285 70.1846 16.6504C70.501 17.0664 70.7354 17.5586 70.8877 18.127C71.04 18.6895 71.1162 19.3047 71.1162 19.9727V20.7021H64.0146V19.375H69.4902V19.252C69.4668 18.8301 69.3789 18.4199 69.2266 18.0215C69.0801 17.623 68.8457 17.2949 68.5234 17.0371C68.2012 16.7793 67.7617 16.6504 67.2051 16.6504C66.8359 16.6504 66.4961 16.7295 66.1855 16.8877C65.875 17.04 65.6084 17.2686 65.3857 17.5732C65.1631 17.8779 64.9902 18.25 64.8672 18.6895C64.7441 19.1289 64.6826 19.6357 64.6826 20.21V20.5791C64.6826 21.0303 64.7441 21.4551 64.8672 21.8535C64.9961 22.2461 65.1807 22.5918 65.4209 22.8906C65.667 23.1895 65.9629 23.4238 66.3086 23.5938C66.6602 23.7637 67.0586 23.8486 67.5039 23.8486C68.0781 23.8486 68.5645 23.7314 68.9629 23.4971C69.3613 23.2627 69.71 22.9492 70.0088 22.5566L70.9932 23.3389C70.7881 23.6494 70.5273 23.9453 70.2109 24.2266C69.8945 24.5078 69.5049 24.7363 69.042 24.9121C68.585 25.0879 68.043 25.1758 67.416 25.1758ZM85.4863 23.6201V25H79.0879V23.6201H85.4863ZM79.4219 12.2031V25H77.7256V12.2031H79.4219ZM92.79 23.374V18.4785C92.79 18.1035 92.7139 17.7783 92.5615 17.5029C92.415 17.2217 92.1924 17.0049 91.8936 16.8525C91.5947 16.7002 91.2256 16.624 90.7861 16.624C90.376 16.624 90.0156 16.6943 89.7051 16.835C89.4004 16.9756 89.1602 17.1602 88.9844 17.3887C88.8145 17.6172 88.7295 17.8633 88.7295 18.127H87.1035C87.1035 17.7871 87.1914 17.4502 87.3672 17.1162C87.543 16.7822 87.7949 16.4805 88.123 16.2109C88.457 15.9355 88.8555 15.7188 89.3184 15.5605C89.7871 15.3965 90.3086 15.3145 90.8828 15.3145C91.5742 15.3145 92.1836 15.4316 92.7109 15.666C93.2441 15.9004 93.6602 16.2549 93.959 16.7295C94.2637 17.1982 94.416 17.7871 94.416 18.4961V22.9258C94.416 23.2422 94.4424 23.5791 94.4951 23.9365C94.5537 24.2939 94.6387 24.6016 94.75 24.8594V25H93.0537C92.9717 24.8125 92.9072 24.5635 92.8604 24.2529C92.8135 23.9365 92.79 23.6436 92.79 23.374ZM93.0713 19.2344L93.0889 20.377H91.4453C90.9824 20.377 90.5693 20.415 90.2061 20.4912C89.8428 20.5615 89.5381 20.6699 89.292 20.8164C89.0459 20.9629 88.8584 21.1475 88.7295 21.3701C88.6006 21.5869 88.5361 21.8418 88.5361 22.1348C88.5361 22.4336 88.6035 22.7061 88.7383 22.9521C88.873 23.1982 89.0752 23.3945 89.3447 23.541C89.6201 23.6816 89.957 23.752 90.3555 23.752C90.8535 23.752 91.293 23.6465 91.6738 23.4355C92.0547 23.2246 92.3564 22.9668 92.5791 22.6621C92.8076 22.3574 92.9307 22.0615 92.9482 21.7744L93.6426 22.5566C93.6016 22.8027 93.4902 23.0752 93.3086 23.374C93.127 23.6729 92.8838 23.96 92.5791 24.2354C92.2803 24.5049 91.9229 24.7305 91.5068 24.9121C91.0967 25.0879 90.6338 25.1758 90.1182 25.1758C89.4736 25.1758 88.9082 25.0498 88.4219 24.7979C87.9414 24.5459 87.5664 24.209 87.2969 23.7871C87.0332 23.3594 86.9014 22.8818 86.9014 22.3545C86.9014 21.8447 87.001 21.3965 87.2002 21.0098C87.3994 20.6172 87.6865 20.292 88.0615 20.0342C88.4365 19.7705 88.8877 19.5713 89.415 19.4365C89.9424 19.3018 90.5312 19.2344 91.1816 19.2344H93.0713ZM96.9648 11.5H98.5996V23.1543L98.459 25H96.9648V11.5ZM105.024 20.166V20.3506C105.024 21.042 104.942 21.6836 104.778 22.2754C104.614 22.8613 104.374 23.3711 104.058 23.8047C103.741 24.2383 103.354 24.5752 102.897 24.8154C102.44 25.0557 101.916 25.1758 101.324 25.1758C100.721 25.1758 100.19 25.0732 99.7334 24.8682C99.2822 24.6572 98.9014 24.3555 98.5908 23.9629C98.2803 23.5703 98.0312 23.0957 97.8438 22.5391C97.6621 21.9824 97.5361 21.3555 97.4658 20.6582V19.8496C97.5361 19.1465 97.6621 18.5166 97.8438 17.96C98.0312 17.4033 98.2803 16.9287 98.5908 16.5361C98.9014 16.1377 99.2822 15.8359 99.7334 15.6309C100.185 15.4199 100.709 15.3145 101.307 15.3145C101.904 15.3145 102.435 15.4316 102.897 15.666C103.36 15.8945 103.747 16.2227 104.058 16.6504C104.374 17.0781 104.614 17.5908 104.778 18.1885C104.942 18.7803 105.024 19.4395 105.024 20.166ZM103.39 20.3506V20.166C103.39 19.6914 103.346 19.2461 103.258 18.8301C103.17 18.4082 103.029 18.0391 102.836 17.7227C102.643 17.4004 102.388 17.1484 102.071 16.9668C101.755 16.7793 101.365 16.6855 100.902 16.6855C100.492 16.6855 100.135 16.7559 99.8301 16.8965C99.5312 17.0371 99.2764 17.2275 99.0654 17.4678C98.8545 17.7021 98.6816 17.9717 98.5469 18.2764C98.418 18.5752 98.3213 18.8857 98.2568 19.208V21.3262C98.3506 21.7363 98.5029 22.1318 98.7139 22.5127C98.9307 22.8877 99.2178 23.1953 99.5752 23.4355C99.9385 23.6758 100.387 23.7959 100.92 23.7959C101.359 23.7959 101.734 23.708 102.045 23.5322C102.361 23.3506 102.616 23.1016 102.81 22.7852C103.009 22.4688 103.155 22.1025 103.249 21.6865C103.343 21.2705 103.39 20.8252 103.39 20.3506ZM111.027 25.1758C110.365 25.1758 109.765 25.0645 109.226 24.8418C108.692 24.6133 108.232 24.2939 107.846 23.8838C107.465 23.4736 107.172 22.9873 106.967 22.4248C106.762 21.8623 106.659 21.2471 106.659 20.5791V20.21C106.659 19.4365 106.773 18.748 107.002 18.1445C107.23 17.5352 107.541 17.0195 107.934 16.5977C108.326 16.1758 108.771 15.8564 109.27 15.6396C109.768 15.4229 110.283 15.3145 110.816 15.3145C111.496 15.3145 112.082 15.4316 112.574 15.666C113.072 15.9004 113.479 16.2285 113.796 16.6504C114.112 17.0664 114.347 17.5586 114.499 18.127C114.651 18.6895 114.728 19.3047 114.728 19.9727V20.7021H107.626V19.375H113.102V19.252C113.078 18.8301 112.99 18.4199 112.838 18.0215C112.691 17.623 112.457 17.2949 112.135 17.0371C111.812 16.7793 111.373 16.6504 110.816 16.6504C110.447 16.6504 110.107 16.7295 109.797 16.8877C109.486 17.04 109.22 17.2686 108.997 17.5732C108.774 17.8779 108.602 18.25 108.479 18.6895C108.355 19.1289 108.294 19.6357 108.294 20.21V20.5791C108.294 21.0303 108.355 21.4551 108.479 21.8535C108.607 22.2461 108.792 22.5918 109.032 22.8906C109.278 23.1895 109.574 23.4238 109.92 23.5938C110.271 23.7637 110.67 23.8486 111.115 23.8486C111.689 23.8486 112.176 23.7314 112.574 23.4971C112.973 23.2627 113.321 22.9492 113.62 22.5566L114.604 23.3389C114.399 23.6494 114.139 23.9453 113.822 24.2266C113.506 24.5078 113.116 24.7363 112.653 24.9121C112.196 25.0879 111.654 25.1758 111.027 25.1758ZM118.393 11.5V25H116.758V11.5H118.393ZM125.406 19.8848V19.7969C125.406 18.5195 125.55 17.3652 125.837 16.334C126.124 15.2969 126.49 14.3887 126.936 13.6094C127.381 12.8301 127.85 12.1855 128.342 11.6758C128.834 11.1602 129.288 10.7881 129.704 10.5596L130.047 11.6318C129.701 11.8955 129.35 12.2588 128.992 12.7217C128.641 13.1846 128.315 13.7529 128.017 14.4268C127.724 15.1006 127.486 15.8828 127.305 16.7734C127.123 17.6641 127.032 18.666 127.032 19.7793V19.9023C127.032 21.0156 127.123 22.0205 127.305 22.917C127.486 23.8076 127.724 24.5928 128.017 25.2725C128.315 25.9521 128.641 26.5293 128.992 27.0039C129.35 27.4844 129.701 27.8652 130.047 28.1465L129.704 29.1309C129.288 28.9023 128.834 28.5303 128.342 28.0146C127.85 27.5049 127.381 26.8604 126.936 26.0811C126.49 25.3076 126.124 24.4023 125.837 23.3652C125.55 22.3281 125.406 21.168 125.406 19.8848ZM136.612 12.2031V25H134.942V12.2031H136.612ZM140.726 12.2031V13.5918H130.838V12.2031H140.726ZM145.445 25.1758C144.783 25.1758 144.183 25.0645 143.644 24.8418C143.11 24.6133 142.65 24.2939 142.264 23.8838C141.883 23.4736 141.59 22.9873 141.385 22.4248C141.18 21.8623 141.077 21.2471 141.077 20.5791V20.21C141.077 19.4365 141.191 18.748 141.42 18.1445C141.648 17.5352 141.959 17.0195 142.352 16.5977C142.744 16.1758 143.189 15.8564 143.688 15.6396C144.186 15.4229 144.701 15.3145 145.234 15.3145C145.914 15.3145 146.5 15.4316 146.992 15.666C147.49 15.9004 147.897 16.2285 148.214 16.6504C148.53 17.0664 148.765 17.5586 148.917 18.127C149.069 18.6895 149.146 19.3047 149.146 19.9727V20.7021H142.044V19.375H147.52V19.252C147.496 18.8301 147.408 18.4199 147.256 18.0215C147.109 17.623 146.875 17.2949 146.553 17.0371C146.23 16.7793 145.791 16.6504 145.234 16.6504C144.865 16.6504 144.525 16.7295 144.215 16.8877C143.904 17.04 143.638 17.2686 143.415 17.5732C143.192 17.8779 143.02 18.25 142.896 18.6895C142.773 19.1289 142.712 19.6357 142.712 20.21V20.5791C142.712 21.0303 142.773 21.4551 142.896 21.8535C143.025 22.2461 143.21 22.5918 143.45 22.8906C143.696 23.1895 143.992 23.4238 144.338 23.5938C144.689 23.7637 145.088 23.8486 145.533 23.8486C146.107 23.8486 146.594 23.7314 146.992 23.4971C147.391 23.2627 147.739 22.9492 148.038 22.5566L149.022 23.3389C148.817 23.6494 148.557 23.9453 148.24 24.2266C147.924 24.5078 147.534 24.7363 147.071 24.9121C146.614 25.0879 146.072 25.1758 145.445 25.1758ZM152.661 17.3799V25H151.026V15.4902H152.573L152.661 17.3799ZM152.327 19.8848L151.571 19.8584C151.577 19.208 151.662 18.6074 151.826 18.0566C151.99 17.5 152.233 17.0166 152.556 16.6064C152.878 16.1963 153.279 15.8799 153.76 15.6572C154.24 15.4287 154.797 15.3145 155.43 15.3145C155.875 15.3145 156.285 15.3789 156.66 15.5078C157.035 15.6309 157.36 15.8271 157.636 16.0967C157.911 16.3662 158.125 16.7119 158.277 17.1338C158.43 17.5557 158.506 18.0654 158.506 18.6631V25H156.88V18.7422C156.88 18.2441 156.795 17.8457 156.625 17.5469C156.461 17.248 156.227 17.0312 155.922 16.8965C155.617 16.7559 155.26 16.6855 154.85 16.6855C154.369 16.6855 153.968 16.7705 153.646 16.9404C153.323 17.1104 153.065 17.3447 152.872 17.6436C152.679 17.9424 152.538 18.2852 152.45 18.6719C152.368 19.0527 152.327 19.457 152.327 19.8848ZM158.488 18.9883L157.398 19.3223C157.404 18.8008 157.489 18.2998 157.653 17.8193C157.823 17.3389 158.066 16.9111 158.383 16.5361C158.705 16.1611 159.101 15.8652 159.569 15.6484C160.038 15.4258 160.574 15.3145 161.178 15.3145C161.688 15.3145 162.139 15.3818 162.531 15.5166C162.93 15.6514 163.264 15.8594 163.533 16.1406C163.809 16.416 164.017 16.7705 164.157 17.2041C164.298 17.6377 164.368 18.1533 164.368 18.751V25H162.733V18.7334C162.733 18.2002 162.648 17.7871 162.479 17.4941C162.314 17.1953 162.08 16.9873 161.775 16.8701C161.477 16.7471 161.119 16.6855 160.703 16.6855C160.346 16.6855 160.029 16.7471 159.754 16.8701C159.479 16.9932 159.247 17.1631 159.06 17.3799C158.872 17.5908 158.729 17.834 158.629 18.1094C158.535 18.3848 158.488 18.6777 158.488 18.9883ZM168.455 17.3184V28.6562H166.82V15.4902H168.314L168.455 17.3184ZM174.862 20.166V20.3506C174.862 21.042 174.78 21.6836 174.616 22.2754C174.452 22.8613 174.212 23.3711 173.896 23.8047C173.585 24.2383 173.201 24.5752 172.744 24.8154C172.287 25.0557 171.763 25.1758 171.171 25.1758C170.567 25.1758 170.034 25.0762 169.571 24.877C169.108 24.6777 168.716 24.3877 168.394 24.0068C168.071 23.626 167.813 23.1689 167.62 22.6357C167.433 22.1025 167.304 21.502 167.233 20.834V19.8496C167.304 19.1465 167.436 18.5166 167.629 17.96C167.822 17.4033 168.077 16.9287 168.394 16.5361C168.716 16.1377 169.105 15.8359 169.562 15.6309C170.02 15.4199 170.547 15.3145 171.145 15.3145C171.742 15.3145 172.272 15.4316 172.735 15.666C173.198 15.8945 173.588 16.2227 173.904 16.6504C174.221 17.0781 174.458 17.5908 174.616 18.1885C174.78 18.7803 174.862 19.4395 174.862 20.166ZM173.228 20.3506V20.166C173.228 19.6914 173.178 19.2461 173.078 18.8301C172.979 18.4082 172.823 18.0391 172.612 17.7227C172.407 17.4004 172.144 17.1484 171.821 16.9668C171.499 16.7793 171.115 16.6855 170.67 16.6855C170.26 16.6855 169.902 16.7559 169.598 16.8965C169.299 17.0371 169.044 17.2275 168.833 17.4678C168.622 17.7021 168.449 17.9717 168.314 18.2764C168.186 18.5752 168.089 18.8857 168.024 19.208V21.4844C168.142 21.8945 168.306 22.2812 168.517 22.6445C168.728 23.002 169.009 23.292 169.36 23.5146C169.712 23.7314 170.154 23.8398 170.688 23.8398C171.127 23.8398 171.505 23.749 171.821 23.5674C172.144 23.3799 172.407 23.125 172.612 22.8027C172.823 22.4805 172.979 22.1113 173.078 21.6953C173.178 21.2734 173.228 20.8252 173.228 20.3506ZM183.027 17.5205V25H181.401V15.4902H182.939L183.027 17.5205ZM182.641 19.8848L181.964 19.8584C181.97 19.208 182.066 18.6074 182.254 18.0566C182.441 17.5 182.705 17.0166 183.045 16.6064C183.385 16.1963 183.789 15.8799 184.258 15.6572C184.732 15.4287 185.257 15.3145 185.831 15.3145C186.3 15.3145 186.722 15.3789 187.097 15.5078C187.472 15.6309 187.791 15.8301 188.055 16.1055C188.324 16.3809 188.529 16.7383 188.67 17.1777C188.811 17.6113 188.881 18.1416 188.881 18.7686V25H187.246V18.751C187.246 18.2529 187.173 17.8545 187.026 17.5557C186.88 17.251 186.666 17.0312 186.385 16.8965C186.104 16.7559 185.758 16.6855 185.348 16.6855C184.943 16.6855 184.574 16.7705 184.24 16.9404C183.912 17.1104 183.628 17.3447 183.388 17.6436C183.153 17.9424 182.969 18.2852 182.834 18.6719C182.705 19.0527 182.641 19.457 182.641 19.8848ZM190.92 20.3506V20.1484C190.92 19.4629 191.02 18.8271 191.219 18.2412C191.418 17.6494 191.705 17.1367 192.08 16.7031C192.455 16.2637 192.909 15.9238 193.442 15.6836C193.976 15.4375 194.573 15.3145 195.235 15.3145C195.903 15.3145 196.504 15.4375 197.037 15.6836C197.576 15.9238 198.033 16.2637 198.408 16.7031C198.789 17.1367 199.079 17.6494 199.278 18.2412C199.478 18.8271 199.577 19.4629 199.577 20.1484V20.3506C199.577 21.0361 199.478 21.6719 199.278 22.2578C199.079 22.8438 198.789 23.3564 198.408 23.7959C198.033 24.2295 197.579 24.5693 197.046 24.8154C196.519 25.0557 195.921 25.1758 195.253 25.1758C194.585 25.1758 193.984 25.0557 193.451 24.8154C192.918 24.5693 192.461 24.2295 192.08 23.7959C191.705 23.3564 191.418 22.8438 191.219 22.2578C191.02 21.6719 190.92 21.0361 190.92 20.3506ZM192.546 20.1484V20.3506C192.546 20.8252 192.602 21.2734 192.713 21.6953C192.824 22.1113 192.991 22.4805 193.214 22.8027C193.442 23.125 193.727 23.3799 194.066 23.5674C194.406 23.749 194.802 23.8398 195.253 23.8398C195.698 23.8398 196.088 23.749 196.422 23.5674C196.762 23.3799 197.043 23.125 197.266 22.8027C197.488 22.4805 197.655 22.1113 197.767 21.6953C197.884 21.2734 197.942 20.8252 197.942 20.3506V20.1484C197.942 19.6797 197.884 19.2373 197.767 18.8213C197.655 18.3994 197.485 18.0273 197.257 17.7051C197.034 17.377 196.753 17.1191 196.413 16.9316C196.079 16.7441 195.687 16.6504 195.235 16.6504C194.79 16.6504 194.397 16.7441 194.058 16.9316C193.724 17.1191 193.442 17.377 193.214 17.7051C192.991 18.0273 192.824 18.3994 192.713 18.8213C192.602 19.2373 192.546 19.6797 192.546 20.1484ZM206.327 12.2031H210.563C211.524 12.2031 212.336 12.3496 212.998 12.6426C213.666 12.9355 214.173 13.3691 214.519 13.9434C214.87 14.5117 215.046 15.2119 215.046 16.0439C215.046 16.6299 214.926 17.166 214.686 17.6523C214.451 18.1328 214.111 18.543 213.666 18.8828C213.227 19.2168 212.699 19.4658 212.084 19.6299L211.609 19.8145H207.628L207.61 18.4346H210.616C211.226 18.4346 211.732 18.3291 212.137 18.1182C212.541 17.9014 212.846 17.6113 213.051 17.248C213.256 16.8848 213.358 16.4834 213.358 16.0439C213.358 15.5518 213.262 15.1211 213.068 14.752C212.875 14.3828 212.57 14.0986 212.154 13.8994C211.744 13.6943 211.214 13.5918 210.563 13.5918H208.023V25H206.327V12.2031ZM213.807 25L210.695 19.1992L212.462 19.1904L215.617 24.8945V25H213.807ZM222.78 23.374V18.4785C222.78 18.1035 222.704 17.7783 222.552 17.5029C222.405 17.2217 222.183 17.0049 221.884 16.8525C221.585 16.7002 221.216 16.624 220.776 16.624C220.366 16.624 220.006 16.6943 219.695 16.835C219.391 16.9756 219.15 17.1602 218.975 17.3887C218.805 17.6172 218.72 17.8633 218.72 18.127H217.094C217.094 17.7871 217.182 17.4502 217.357 17.1162C217.533 16.7822 217.785 16.4805 218.113 16.2109C218.447 15.9355 218.846 15.7188 219.309 15.5605C219.777 15.3965 220.299 15.3145 220.873 15.3145C221.564 15.3145 222.174 15.4316 222.701 15.666C223.234 15.9004 223.65 16.2549 223.949 16.7295C224.254 17.1982 224.406 17.7871 224.406 18.4961V22.9258C224.406 23.2422 224.433 23.5791 224.485 23.9365C224.544 24.2939 224.629 24.6016 224.74 24.8594V25H223.044C222.962 24.8125 222.897 24.5635 222.851 24.2529C222.804 23.9365 222.78 23.6436 222.78 23.374ZM223.062 19.2344L223.079 20.377H221.436C220.973 20.377 220.56 20.415 220.196 20.4912C219.833 20.5615 219.528 20.6699 219.282 20.8164C219.036 20.9629 218.849 21.1475 218.72 21.3701C218.591 21.5869 218.526 21.8418 218.526 22.1348C218.526 22.4336 218.594 22.7061 218.729 22.9521C218.863 23.1982 219.065 23.3945 219.335 23.541C219.61 23.6816 219.947 23.752 220.346 23.752C220.844 23.752 221.283 23.6465 221.664 23.4355C222.045 23.2246 222.347 22.9668 222.569 22.6621C222.798 22.3574 222.921 22.0615 222.938 21.7744L223.633 22.5566C223.592 22.8027 223.48 23.0752 223.299 23.374C223.117 23.6729 222.874 23.96 222.569 24.2354C222.271 24.5049 221.913 24.7305 221.497 24.9121C221.087 25.0879 220.624 25.1758 220.108 25.1758C219.464 25.1758 218.898 25.0498 218.412 24.7979C217.932 24.5459 217.557 24.209 217.287 23.7871C217.023 23.3594 216.892 22.8818 216.892 22.3545C216.892 21.8447 216.991 21.3965 217.19 21.0098C217.39 20.6172 217.677 20.292 218.052 20.0342C218.427 19.7705 218.878 19.5713 219.405 19.4365C219.933 19.3018 220.521 19.2344 221.172 19.2344H223.062ZM228.59 17.5205V25H226.964V15.4902H228.502L228.59 17.5205ZM228.203 19.8848L227.526 19.8584C227.532 19.208 227.629 18.6074 227.816 18.0566C228.004 17.5 228.268 17.0166 228.607 16.6064C228.947 16.1963 229.352 15.8799 229.82 15.6572C230.295 15.4287 230.819 15.3145 231.394 15.3145C231.862 15.3145 232.284 15.3789 232.659 15.5078C233.034 15.6309 233.354 15.8301 233.617 16.1055C233.887 16.3809 234.092 16.7383 234.232 17.1777C234.373 17.6113 234.443 18.1416 234.443 18.7686V25H232.809V18.751C232.809 18.2529 232.735 17.8545 232.589 17.5557C232.442 17.251 232.229 17.0312 231.947 16.8965C231.666 16.7559 231.32 16.6855 230.91 16.6855C230.506 16.6855 230.137 16.7705 229.803 16.9404C229.475 17.1104 229.19 17.3447 228.95 17.6436C228.716 17.9424 228.531 18.2852 228.396 18.6719C228.268 19.0527 228.203 19.457 228.203 19.8848ZM243.074 15.4902H244.551V24.7979C244.551 25.6357 244.381 26.3506 244.041 26.9424C243.701 27.5342 243.227 27.9824 242.617 28.2871C242.014 28.5977 241.316 28.7529 240.525 28.7529C240.197 28.7529 239.811 28.7002 239.365 28.5947C238.926 28.4951 238.492 28.3223 238.064 28.0762C237.643 27.8359 237.288 27.5107 237.001 27.1006L237.854 26.1338C238.252 26.6143 238.668 26.9482 239.102 27.1357C239.541 27.3232 239.975 27.417 240.402 27.417C240.918 27.417 241.363 27.3203 241.738 27.127C242.113 26.9336 242.403 26.6465 242.608 26.2656C242.819 25.8906 242.925 25.4277 242.925 24.877V17.582L243.074 15.4902ZM236.526 20.3506V20.166C236.526 19.4395 236.611 18.7803 236.781 18.1885C236.957 17.5908 237.206 17.0781 237.528 16.6504C237.856 16.2227 238.252 15.8945 238.715 15.666C239.178 15.4316 239.699 15.3145 240.279 15.3145C240.877 15.3145 241.398 15.4199 241.844 15.6309C242.295 15.8359 242.676 16.1377 242.986 16.5361C243.303 16.9287 243.552 17.4033 243.733 17.96C243.915 18.5166 244.041 19.1465 244.111 19.8496V20.6582C244.047 21.3555 243.921 21.9824 243.733 22.5391C243.552 23.0957 243.303 23.5703 242.986 23.9629C242.676 24.3555 242.295 24.6572 241.844 24.8682C241.393 25.0732 240.865 25.1758 240.262 25.1758C239.693 25.1758 239.178 25.0557 238.715 24.8154C238.258 24.5752 237.865 24.2383 237.537 23.8047C237.209 23.3711 236.957 22.8613 236.781 22.2754C236.611 21.6836 236.526 21.042 236.526 20.3506ZM238.152 20.166V20.3506C238.152 20.8252 238.199 21.2705 238.293 21.6865C238.393 22.1025 238.542 22.4688 238.741 22.7852C238.946 23.1016 239.207 23.3506 239.523 23.5322C239.84 23.708 240.218 23.7959 240.657 23.7959C241.196 23.7959 241.642 23.6816 241.993 23.4531C242.345 23.2246 242.623 22.9229 242.828 22.5479C243.039 22.1729 243.203 21.7656 243.32 21.3262V19.208C243.256 18.8857 243.156 18.5752 243.021 18.2764C242.893 17.9717 242.723 17.7021 242.512 17.4678C242.307 17.2275 242.052 17.0371 241.747 16.8965C241.442 16.7559 241.085 16.6855 240.675 16.6855C240.229 16.6855 239.846 16.7793 239.523 16.9668C239.207 17.1484 238.946 17.4004 238.741 17.7227C238.542 18.0391 238.393 18.4082 238.293 18.8301C238.199 19.2461 238.152 19.6914 238.152 20.166ZM250.967 25.1758C250.305 25.1758 249.704 25.0645 249.165 24.8418C248.632 24.6133 248.172 24.2939 247.785 23.8838C247.404 23.4736 247.111 22.9873 246.906 22.4248C246.701 21.8623 246.599 21.2471 246.599 20.5791V20.21C246.599 19.4365 246.713 18.748 246.941 18.1445C247.17 17.5352 247.48 17.0195 247.873 16.5977C248.266 16.1758 248.711 15.8564 249.209 15.6396C249.707 15.4229 250.223 15.3145 250.756 15.3145C251.436 15.3145 252.021 15.4316 252.514 15.666C253.012 15.9004 253.419 16.2285 253.735 16.6504C254.052 17.0664 254.286 17.5586 254.438 18.127C254.591 18.6895 254.667 19.3047 254.667 19.9727V20.7021H247.565V19.375H253.041V19.252C253.018 18.8301 252.93 18.4199 252.777 18.0215C252.631 17.623 252.396 17.2949 252.074 17.0371C251.752 16.7793 251.312 16.6504 250.756 16.6504C250.387 16.6504 250.047 16.7295 249.736 16.8877C249.426 17.04 249.159 17.2686 248.937 17.5732C248.714 17.8779 248.541 18.25 248.418 18.6895C248.295 19.1289 248.233 19.6357 248.233 20.21V20.5791C248.233 21.0303 248.295 21.4551 248.418 21.8535C248.547 22.2461 248.731 22.5918 248.972 22.8906C249.218 23.1895 249.514 23.4238 249.859 23.5938C250.211 23.7637 250.609 23.8486 251.055 23.8486C251.629 23.8486 252.115 23.7314 252.514 23.4971C252.912 23.2627 253.261 22.9492 253.56 22.5566L254.544 23.3389C254.339 23.6494 254.078 23.9453 253.762 24.2266C253.445 24.5078 253.056 24.7363 252.593 24.9121C252.136 25.0879 251.594 25.1758 250.967 25.1758ZM260.31 19.7969V19.8848C260.31 21.168 260.166 22.3281 259.879 23.3652C259.592 24.4023 259.226 25.3076 258.78 26.0811C258.335 26.8604 257.866 27.5049 257.374 28.0146C256.882 28.5303 256.428 28.9023 256.012 29.1309L255.669 28.1465C256.015 27.8828 256.363 27.5137 256.715 27.0391C257.066 26.5703 257.392 25.9902 257.69 25.2988C257.989 24.6133 258.229 23.8223 258.411 22.9258C258.593 22.0234 258.684 21.0156 258.684 19.9023V19.7793C258.684 18.666 258.587 17.6611 258.394 16.7646C258.2 15.8623 257.948 15.0684 257.638 14.3828C257.333 13.6973 257.005 13.1201 256.653 12.6514C256.308 12.1768 255.979 11.8105 255.669 11.5527L256.012 10.5596C256.428 10.7881 256.882 11.1602 257.374 11.6758C257.866 12.1855 258.335 12.8301 258.78 13.6094C259.226 14.3887 259.592 15.2969 259.879 16.334C260.166 17.3652 260.31 18.5195 260.31 19.7969Z" fill="#1D1D1B"/>
<line x1="8" y1="87.5" x2="360" y2="87.5" stroke="#E6E5E1"/>
<rect x="16" y="34" width="336" height="40" rx="6" fill="#F0EFEB"/>
<path d="M36.2295 46.3594V62H34.1885V46.3594H36.2295ZM41.2568 46.3594V48.0566H29.1719V46.3594H41.2568ZM47.0254 62.2148C46.2161 62.2148 45.4821 62.0788 44.8232 61.8066C44.1715 61.5273 43.6094 61.137 43.1367 60.6357C42.6712 60.1344 42.3132 59.54 42.0625 58.8525C41.8118 58.165 41.6865 57.4131 41.6865 56.5967V56.1455C41.6865 55.2002 41.8262 54.3587 42.1055 53.6211C42.3848 52.8763 42.7643 52.2461 43.2441 51.7305C43.724 51.2148 44.2682 50.8245 44.877 50.5596C45.4857 50.2946 46.1159 50.1621 46.7676 50.1621C47.5983 50.1621 48.3145 50.3053 48.916 50.5918C49.5247 50.8783 50.0225 51.2793 50.4092 51.7949C50.7959 52.3034 51.0824 52.9049 51.2686 53.5996C51.4548 54.2871 51.5479 55.0391 51.5479 55.8555V56.7471H42.8682V55.125H49.5605V54.9746C49.5319 54.459 49.4245 53.9577 49.2383 53.4707C49.0592 52.9837 48.7728 52.5827 48.3789 52.2676C47.985 51.9525 47.4479 51.7949 46.7676 51.7949C46.3164 51.7949 45.901 51.8916 45.5215 52.085C45.1419 52.2712 44.8161 52.5505 44.5439 52.9229C44.2718 53.2952 44.0605 53.75 43.9102 54.2871C43.7598 54.8242 43.6846 55.4437 43.6846 56.1455V56.5967C43.6846 57.1481 43.7598 57.6673 43.9102 58.1543C44.0677 58.6341 44.2933 59.0566 44.5869 59.4219C44.8877 59.7871 45.2493 60.0736 45.6719 60.2812C46.1016 60.4889 46.5885 60.5928 47.1328 60.5928C47.8346 60.5928 48.429 60.4495 48.916 60.1631C49.403 59.8766 49.8291 59.4935 50.1943 59.0137L51.3975 59.9697C51.1468 60.3493 50.8281 60.7109 50.4414 61.0547C50.0547 61.3984 49.5785 61.6777 49.0127 61.8926C48.4541 62.1074 47.7917 62.2148 47.0254 62.2148ZM55.8447 52.6865V62H53.8467V50.377H55.7373L55.8447 52.6865ZM55.4365 55.748L54.5127 55.7158C54.5199 54.9209 54.6237 54.1868 54.8242 53.5137C55.0247 52.8333 55.3219 52.2425 55.7158 51.7412C56.1097 51.2399 56.6003 50.8532 57.1875 50.5811C57.7747 50.3018 58.4551 50.1621 59.2285 50.1621C59.7728 50.1621 60.2741 50.2409 60.7324 50.3984C61.1908 50.5488 61.5882 50.7887 61.9248 51.1182C62.2614 51.4476 62.5228 51.8701 62.709 52.3857C62.8952 52.9014 62.9883 53.5244 62.9883 54.2549V62H61.001V54.3516C61.001 53.7428 60.8971 53.2559 60.6895 52.8906C60.4889 52.5254 60.2025 52.2604 59.8301 52.0957C59.4577 51.9238 59.0208 51.8379 58.5195 51.8379C57.9323 51.8379 57.4417 51.9417 57.0479 52.1494C56.654 52.3571 56.3389 52.6436 56.1025 53.0088C55.8662 53.374 55.6943 53.793 55.5869 54.2656C55.4867 54.7311 55.4365 55.2253 55.4365 55.748ZM62.9668 54.6523L61.6348 55.0605C61.6419 54.4232 61.7458 53.8109 61.9463 53.2236C62.154 52.6364 62.4512 52.1136 62.8379 51.6553C63.2318 51.1969 63.7152 50.8353 64.2881 50.5703C64.861 50.2982 65.5163 50.1621 66.2539 50.1621C66.877 50.1621 67.4284 50.2445 67.9082 50.4092C68.3952 50.5739 68.8034 50.8281 69.1328 51.1719C69.4694 51.5085 69.7236 51.9417 69.8955 52.4717C70.0674 53.0016 70.1533 53.6318 70.1533 54.3623V62H68.1553V54.3408C68.1553 53.6891 68.0514 53.1842 67.8438 52.8262C67.6432 52.4609 67.3568 52.2067 66.9844 52.0635C66.6191 51.9131 66.1823 51.8379 65.6738 51.8379C65.237 51.8379 64.8503 51.9131 64.5137 52.0635C64.1771 52.2139 63.8942 52.4215 63.665 52.6865C63.4359 52.9443 63.2604 53.2415 63.1387 53.5781C63.0241 53.9147 62.9668 54.2728 62.9668 54.6523ZM75.1484 52.6113V66.4688H73.1504V50.377H74.9766L75.1484 52.6113ZM82.9795 56.0918V56.3174C82.9795 57.1624 82.8792 57.9466 82.6787 58.6699C82.4782 59.3861 82.1846 60.0091 81.7979 60.5391C81.4183 61.069 80.9492 61.4808 80.3906 61.7744C79.832 62.068 79.1911 62.2148 78.4678 62.2148C77.7301 62.2148 77.0785 62.0931 76.5127 61.8496C75.9469 61.6061 75.4671 61.2516 75.0732 60.7861C74.6794 60.3206 74.3643 59.762 74.1279 59.1104C73.8988 58.4587 73.7412 57.7246 73.6553 56.9082V55.7051C73.7412 54.8457 73.9023 54.0758 74.1387 53.3955C74.375 52.7152 74.6865 52.1351 75.0732 51.6553C75.4671 51.1683 75.9434 50.7995 76.502 50.5488C77.0605 50.291 77.7051 50.1621 78.4355 50.1621C79.166 50.1621 79.8141 50.3053 80.3799 50.5918C80.9456 50.8711 81.4219 51.2721 81.8086 51.7949C82.1953 52.3177 82.4854 52.9443 82.6787 53.6748C82.8792 54.3981 82.9795 55.2038 82.9795 56.0918ZM80.9814 56.3174V56.0918C80.9814 55.5117 80.9206 54.9674 80.7988 54.459C80.6771 53.9434 80.4873 53.4922 80.2295 53.1055C79.9788 52.7116 79.6566 52.4036 79.2627 52.1816C78.8688 51.9525 78.3997 51.8379 77.8555 51.8379C77.3542 51.8379 76.9173 51.9238 76.5449 52.0957C76.1797 52.2676 75.8682 52.5003 75.6104 52.7939C75.3525 53.0804 75.1413 53.4098 74.9766 53.7822C74.819 54.1475 74.7008 54.527 74.6221 54.9209V57.7031C74.7653 58.2044 74.9658 58.6771 75.2236 59.1211C75.4814 59.5579 75.8252 59.9124 76.2549 60.1846C76.6846 60.4495 77.2253 60.582 77.877 60.582C78.4141 60.582 78.876 60.471 79.2627 60.249C79.6566 60.0199 79.9788 59.7083 80.2295 59.3145C80.4873 58.9206 80.6771 58.4694 80.7988 57.9609C80.9206 57.4453 80.9814 56.8975 80.9814 56.3174Z" fill="#64635F"/>
<path d="M288.878 60.3672V62H278.641V60.5713L283.765 54.8672C284.395 54.1654 284.882 53.571 285.226 53.084C285.576 52.5898 285.82 52.1494 285.956 51.7627C286.099 51.3688 286.171 50.9678 286.171 50.5596C286.171 50.0439 286.063 49.5785 285.849 49.1631C285.641 48.7406 285.333 48.404 284.925 48.1533C284.517 47.9027 284.022 47.7773 283.442 47.7773C282.748 47.7773 282.168 47.9134 281.702 48.1855C281.244 48.4505 280.9 48.8229 280.671 49.3027C280.442 49.7826 280.327 50.334 280.327 50.957H278.34C278.34 50.0762 278.533 49.2705 278.92 48.54C279.307 47.8096 279.88 47.2295 280.639 46.7998C281.398 46.363 282.332 46.1445 283.442 46.1445C284.431 46.1445 285.276 46.32 285.978 46.6709C286.679 47.0146 287.216 47.5016 287.589 48.1318C287.968 48.7549 288.158 49.4854 288.158 50.3232C288.158 50.7816 288.079 51.2471 287.922 51.7197C287.771 52.1852 287.56 52.6507 287.288 53.1162C287.023 53.5817 286.712 54.04 286.354 54.4912C286.003 54.9424 285.627 55.3864 285.226 55.8232L281.036 60.3672H288.878ZM296.634 46.2734V62H294.646V48.7549L290.64 50.2158V48.4219L296.322 46.2734H296.634ZM300.812 60.9473C300.812 60.6107 300.916 60.3278 301.124 60.0986C301.339 59.8623 301.647 59.7441 302.048 59.7441C302.449 59.7441 302.753 59.8623 302.961 60.0986C303.176 60.3278 303.283 60.6107 303.283 60.9473C303.283 61.2767 303.176 61.556 302.961 61.7852C302.753 62.0143 302.449 62.1289 302.048 62.1289C301.647 62.1289 301.339 62.0143 301.124 61.7852C300.916 61.556 300.812 61.2767 300.812 60.9473ZM308.88 54.5557L307.29 54.1475L308.074 46.3594H316.099V48.1963H309.761L309.288 52.4502C309.575 52.2855 309.936 52.1315 310.373 51.9883C310.817 51.8451 311.326 51.7734 311.898 51.7734C312.622 51.7734 313.27 51.8988 313.843 52.1494C314.416 52.3929 314.903 52.7438 315.304 53.2021C315.712 53.6605 316.023 54.2119 316.238 54.8564C316.453 55.501 316.561 56.2207 316.561 57.0156C316.561 57.7676 316.457 58.4587 316.249 59.0889C316.049 59.7191 315.744 60.2705 315.336 60.7432C314.928 61.2087 314.412 61.5703 313.789 61.8281C313.173 62.0859 312.446 62.2148 311.608 62.2148C310.978 62.2148 310.38 62.1289 309.814 61.957C309.256 61.778 308.755 61.5094 308.311 61.1514C307.874 60.7861 307.516 60.335 307.236 59.7979C306.964 59.2536 306.792 58.6162 306.721 57.8857H308.611C308.697 58.473 308.869 58.9671 309.127 59.3682C309.385 59.7692 309.721 60.0736 310.137 60.2812C310.559 60.4818 311.05 60.582 311.608 60.582C312.081 60.582 312.5 60.4997 312.865 60.335C313.23 60.1702 313.538 59.9339 313.789 59.626C314.04 59.318 314.229 58.9456 314.358 58.5088C314.494 58.0719 314.562 57.5814 314.562 57.0371C314.562 56.543 314.494 56.0846 314.358 55.6621C314.222 55.2396 314.018 54.8708 313.746 54.5557C313.481 54.2406 313.155 53.9971 312.769 53.8252C312.382 53.6462 311.938 53.5566 311.437 53.5566C310.771 53.5566 310.266 53.6462 309.922 53.8252C309.585 54.0042 309.238 54.2477 308.88 54.5557Z" fill="#1D1D1B"/>
<path d="M318.849 48.9268C318.849 48.4183 318.974 47.9528 319.225 47.5303C319.475 47.1077 319.808 46.7712 320.224 46.5205C320.639 46.2627 321.094 46.1338 321.588 46.1338C322.082 46.1338 322.533 46.2627 322.941 46.5205C323.35 46.7712 323.675 47.1077 323.919 47.5303C324.162 47.9528 324.284 48.4183 324.284 48.9268C324.284 49.4352 324.162 49.9007 323.919 50.3232C323.675 50.7386 323.35 51.0716 322.941 51.3223C322.533 51.5658 322.082 51.6875 321.588 51.6875C321.094 51.6875 320.639 51.5658 320.224 51.3223C319.808 51.0716 319.475 50.7386 319.225 50.3232C318.974 49.9007 318.849 49.4352 318.849 48.9268ZM320.181 48.9268C320.181 49.3206 320.317 49.6501 320.589 49.915C320.868 50.18 321.201 50.3125 321.588 50.3125C321.975 50.3125 322.297 50.18 322.555 49.915C322.82 49.6501 322.952 49.3206 322.952 48.9268C322.952 48.5257 322.82 48.1891 322.555 47.917C322.297 47.6449 321.975 47.5088 321.588 47.5088C321.201 47.5088 320.868 47.6449 320.589 47.917C320.317 48.1891 320.181 48.5257 320.181 48.9268ZM336.928 57.0264H338.99C338.883 58.0146 338.6 58.8991 338.142 59.6797C337.683 60.4603 337.035 61.0798 336.197 61.5381C335.359 61.9893 334.314 62.2148 333.061 62.2148C332.144 62.2148 331.31 62.043 330.558 61.6992C329.813 61.3555 329.172 60.8685 328.635 60.2383C328.098 59.6009 327.682 58.8382 327.389 57.9502C327.102 57.055 326.959 56.0596 326.959 54.9639V53.4062C326.959 52.3105 327.102 51.3187 327.389 50.4307C327.682 49.5355 328.101 48.7692 328.646 48.1318C329.197 47.4945 329.859 47.0039 330.633 46.6602C331.406 46.3164 332.276 46.1445 333.243 46.1445C334.425 46.1445 335.424 46.3665 336.24 46.8105C337.057 47.2546 337.69 47.8704 338.142 48.6582C338.6 49.4388 338.883 50.3447 338.99 51.376H336.928C336.827 50.6455 336.641 50.0189 336.369 49.4961C336.097 48.9661 335.71 48.5579 335.209 48.2715C334.708 47.985 334.052 47.8418 333.243 47.8418C332.549 47.8418 331.936 47.9743 331.406 48.2393C330.883 48.5042 330.443 48.8802 330.085 49.3672C329.734 49.8542 329.469 50.4378 329.29 51.1182C329.111 51.7985 329.021 52.554 329.021 53.3848V54.9639C329.021 55.7301 329.1 56.4499 329.258 57.123C329.423 57.7962 329.67 58.387 329.999 58.8955C330.328 59.404 330.747 59.805 331.256 60.0986C331.764 60.3851 332.366 60.5283 333.061 60.5283C333.941 60.5283 334.643 60.3887 335.166 60.1094C335.689 59.8301 336.083 59.429 336.348 58.9062C336.62 58.3835 336.813 57.7568 336.928 57.0264Z" fill="#64635F"/>
</svg>
